<svg width="4915" height="5042" viewBox="0 0 4915 5042" fill="none" xmlns="http://www.w3.org/2000/svg">
<path d="M1408.79 605.24C1406.42 597.693 1403.83 590.038 1401.03 582.491C1299.79 300.669 828.326 281.262 828.326 627.557C828.326 694.293 668.224 627.557 608.172 713.807C548.12 800.058 614.856 853.964 534.859 880.594C454.862 907.224 448.609 840.595 348.128 847.172C247.646 853.748 261.877 947.222 228.024 973.96C194.171 1000.7 194.71 987.328 121.289 993.905C47.8689 1000.48 35.0392 1053.96 35.0392 1053.96H1788.61C1788.61 1053.96 1855.24 853.856 1734.71 780.544C1614.17 707.231 1614.6 807.173 1521.24 767.175C1444.8 734.507 1430.35 671.76 1408.79 605.24Z" stroke="#B2B2B2" stroke-linecap="round" stroke-linejoin="round"/>
<path d="M1469.49 981.399C1469.49 981.399 1505.82 869.166 1416.66 786.581C1327.5 703.996 1235 750.248 1208.47 786.581C1181.95 822.914 1182.06 892.238 1139.15 898.814C1096.24 905.391 1106.16 826.148 1013.66 845.986C921.153 865.823 957.485 958.327 914.468 978.164C871.451 998.002 871.343 925.228 812.154 948.408C752.965 971.588 755.983 1014.5 755.983 1014.5" stroke="#B2B2B2" stroke-linecap="round" stroke-linejoin="round"/>
<path d="M995.004 757.04C970.691 739.71 942.183 729.201 912.438 726.604C882.693 724.006 852.795 729.416 825.846 742.27C730.216 786.473 774.312 878.438 730.216 900.431C686.121 922.425 664.019 896.766 608.819 921.994C553.619 947.222 557.392 984.525 557.392 984.525" stroke="#B2B2B2" stroke-linecap="round" stroke-linejoin="round"/>
<path d="M4448.9 1530.7C4447.39 1526.07 4445.77 1521.33 4444.04 1516.58C4381.4 1342.36 4089.77 1330.28 4089.77 1544.5C4089.77 1585.8 3990.8 1544.5 3953.6 1598.41C3916.41 1652.32 3957.81 1684.66 3908.21 1701.48C3858.62 1718.3 3854.31 1676.79 3792.75 1680.89C3731.19 1684.98 3738.84 1742.77 3718.46 1759.27C3698.09 1775.76 3697.87 1767.57 3652.48 1771.67C3607.09 1775.76 3598.58 1808.75 3598.58 1808.75H4683.93C4683.93 1808.75 4725.11 1684.98 4650.94 1639.6C4576.76 1594.21 4576.65 1656.09 4518.87 1631.4C4471.11 1610.7 4462.37 1571.89 4448.9 1530.7Z" stroke="#B2B2B2" stroke-linecap="round" stroke-linejoin="round"/>
<path d="M4486.41 1763.47C4486.41 1763.47 4508.84 1693.93 4454.07 1642.83C4399.3 1591.73 4341.62 1620.4 4325.23 1642.83C4308.85 1665.26 4308.95 1708.27 4282.11 1712.37C4255.26 1716.47 4261.73 1667.41 4204.48 1680.03C4147.24 1692.64 4169.77 1749.46 4143.25 1761.75C4116.72 1774.04 4116.62 1729.4 4079.85 1743.31C4043.09 1757.22 4045.14 1784.17 4045.14 1784.17" stroke="#B2B2B2" stroke-linecap="round" stroke-linejoin="round"/>
<path d="M4192.84 1624.61C4177.79 1613.88 4160.14 1607.38 4141.73 1605.79C4123.32 1604.2 4104.82 1607.57 4088.15 1615.55C4028.96 1642.83 4055.81 1699.65 4028.96 1713.34C4002.12 1727.03 3988 1711.08 3953.49 1727.03C3918.99 1742.99 3921.15 1765.63 3921.15 1765.63" stroke="#B2B2B2" stroke-linecap="round" stroke-linejoin="round"/>
<path d="M4411.92 511.55C4418.82 511.011 4425.82 510.687 4432.94 510.687C4484.83 510.549 4535.57 526.017 4578.56 555.083C4621.55 584.149 4654.81 625.47 4674.01 673.68C4693.21 721.889 4697.48 774.759 4686.25 825.423C4675.02 876.088 4648.82 922.206 4611.05 957.787" stroke="#B2B2B2" stroke-linecap="round" stroke-linejoin="round"/>
<path d="M4332.03 531.064C4345.96 525.196 4360.4 520.577 4375.15 517.264" stroke="#B2B2B2" stroke-linecap="round" stroke-linejoin="round"/>
<path d="M4587.11 977.948C4559.5 997.769 4528.26 1011.96 4495.17 1019.71C4462.08 1027.45 4427.78 1028.61 4394.24 1023.1C4360.71 1017.59 4328.58 1005.54 4299.7 987.615C4270.83 969.693 4245.76 946.259 4225.94 918.651C4206.12 891.042 4191.93 859.8 4184.18 826.708C4176.43 793.616 4175.28 759.322 4180.79 725.784C4186.29 692.246 4198.35 660.121 4216.27 631.243C4234.19 602.365 4257.63 577.299 4285.24 557.478" stroke="#B2B2B2" stroke-linecap="round" stroke-linejoin="round"/>
<path d="M4432.94 297.973V455.164" stroke="#B2B2B2" stroke-linecap="round" stroke-linejoin="round"/>
<path d="M4432.94 1230.01V1259.99" stroke="#B2B2B2" stroke-linecap="round" stroke-linejoin="round"/>
<path d="M4432.94 1102.69V1207.7" stroke="#B2B2B2" stroke-linecap="round" stroke-linejoin="round"/>
<path d="M4773.09 1119.07L4661.93 1007.92" stroke="#B2B2B2" stroke-linecap="round" stroke-linejoin="round"/>
<path d="M4145.19 491.173L4092.9 438.884" stroke="#B2B2B2" stroke-linecap="round" stroke-linejoin="round"/>
<path d="M4204.05 550.039L4160.06 506.052" stroke="#B2B2B2" stroke-linecap="round" stroke-linejoin="round"/>
<path d="M4878.31 778.926H4756.7" stroke="#B2B2B2" stroke-linecap="round" stroke-linejoin="round"/>
<path d="M4914 778.926H4893.19" stroke="#B2B2B2" stroke-linecap="round" stroke-linejoin="round"/>
<path d="M4067.99 778.926H3951.99" stroke="#B2B2B2" stroke-linecap="round" stroke-linejoin="round"/>
<path d="M4109.18 778.926H4092.79" stroke="#B2B2B2" stroke-linecap="round" stroke-linejoin="round"/>
<path d="M4773.09 438.884L4661.93 550.039" stroke="#B2B2B2" stroke-linecap="round" stroke-linejoin="round"/>
<path d="M4204.05 1007.92L4092.9 1119.07" stroke="#B2B2B2" stroke-linecap="round" stroke-linejoin="round"/>
<path d="M555.02 4238.42C365.485 4495.02 189.104 4746.55 189.104 4746.55" stroke="#263238" stroke-miterlimit="10"/>
<path d="M4141.63 3863.77C3966.97 3617.85 3804.07 3415.92 3738.19 3412.69C3568.39 3404.38 3200.42 3728.79 3200.42 3728.79C3200.42 3728.79 2728.74 3038.79 2577.7 2988.44C2426.65 2938.09 1483.4 3970.08 1483.4 3970.08C1483.4 3970.08 1115.43 3662.27 1002.23 3703.89C952.742 3722 791.454 3923.18 625.422 4143.98" stroke="#263238" stroke-miterlimit="10"/>
<path d="M4225.18 3983.01C4207.93 3958.11 4190.68 3933.2 4173.54 3908.73" stroke="#263238" stroke-miterlimit="10"/>
<path d="M4721.12 4748.38C4721.12 4748.38 4502.37 4390.76 4268.31 4045.65" stroke="#263238" stroke-miterlimit="10"/>
<path d="M3197.62 4316.05C3213.01 4320.14 3228.93 4321.92 3244.84 4321.33C3244.84 4321.33 3237.62 4299.77 3236.97 4298.04C3229.64 4282.63 3206.35 4257.29 3187.49 4259.77C3184.36 4260.29 3181.37 4261.46 3178.72 4263.21C3176.08 4264.96 3173.83 4267.24 3172.12 4269.92C3170.41 4272.59 3169.28 4275.59 3168.81 4278.73C3168.34 4281.86 3168.53 4285.07 3169.37 4288.12C3171.74 4294.57 3175.5 4300.41 3180.38 4305.24C3185.26 4310.07 3191.15 4313.76 3197.62 4316.05Z" fill="#263238"/>
<path d="M3209.16 4413.19C3224.93 4413.11 3240.6 4410.64 3255.62 4405.86C3260.59 4422.98 3266.68 4439.77 3273.84 4456.1C3277.94 4465.58 3282.36 4475.07 3286.89 4484.45C3284.19 4480.46 3281.71 4476.9 3281.28 4476.47C3270.5 4463.64 3241.07 4445.21 3223.5 4452.65C3220.58 4453.97 3217.98 4455.89 3215.86 4458.29C3213.75 4460.69 3212.16 4463.51 3211.21 4466.57C3210.27 4469.62 3209.98 4472.84 3210.37 4476.02C3210.75 4479.2 3211.81 4482.25 3213.47 4484.99C3217.46 4490.57 3222.63 4495.21 3228.61 4498.58C3234.59 4501.96 3241.23 4503.98 3248.08 4504.5C3263.4 4504.49 3278.62 4502.16 3293.25 4497.6C3295.08 4501.16 3296.81 4504.83 3298.64 4508.39C3307.27 4525.64 3316 4542.78 3324.08 4559.92C3326.89 4565.96 3329.48 4572 3332.06 4578.03C3329.58 4574.48 3327.53 4571.46 3327.21 4571.13C3316.43 4558.2 3286.89 4539.87 3269.32 4547.31C3266.4 4548.63 3263.8 4550.55 3261.68 4552.95C3259.57 4555.35 3257.98 4558.17 3257.03 4561.23C3256.09 4564.28 3255.8 4567.5 3256.19 4570.68C3256.58 4573.86 3257.63 4576.91 3259.29 4579.65C3263.31 4585.19 3268.49 4589.8 3274.47 4593.15C3280.44 4596.5 3287.07 4598.51 3293.9 4599.06C3308.82 4599.21 3323.66 4596.99 3337.88 4592.48C3340.36 4598.73 3342.84 4604.99 3345 4611.24C3346.29 4615.44 3347.91 4619.43 3349.1 4623.75C3350.28 4628.06 3351.47 4632.26 3352.55 4636.47C3354.6 4644.66 3356.64 4653.07 3358.37 4661.05C3359.56 4666.66 3360.63 4671.83 3361.71 4677.33C3359.02 4671.29 3353.3 4659.54 3352.76 4658.68C3343.71 4644.23 3317.62 4621.7 3298.86 4626.33C3295.8 4627.2 3292.96 4628.71 3290.52 4630.75C3288.08 4632.79 3286.1 4635.33 3284.71 4638.19C3283.32 4641.04 3282.54 4644.16 3282.43 4647.34C3282.33 4650.52 3282.89 4653.68 3284.09 4656.63C3287.2 4662.74 3291.61 4668.09 3297.02 4672.32C3302.42 4676.55 3308.67 4679.54 3315.35 4681.1C3330.86 4683.43 3346.63 4683.43 3362.14 4681.1C3363.98 4689.94 3365.59 4698.57 3366.99 4706.76C3369.91 4723.37 3372.17 4738.35 3374 4751.4H3386.4C3384.35 4737.92 3381.66 4722.18 3378.1 4704.71C3376.37 4695.66 3374.33 4686.06 3372.06 4676.25C3380.99 4672.68 3389.71 4668.57 3398.15 4663.96C3409.68 4673.83 3422.48 4682.09 3436.21 4688.54C3432.87 4696.95 3429.42 4705.04 3426.08 4712.58C3419.82 4727.14 3413.78 4740.08 3408.39 4751.4H3421.87C3426.4 4740.61 3431.36 4729.83 3436.53 4717C3439.98 4708.49 3443.65 4699.43 3447.31 4689.94C3462.61 4693.49 3478.34 4694.72 3494 4693.61C3500.77 4692.54 3507.23 4690.01 3512.93 4686.19C3518.63 4682.38 3523.42 4677.37 3526.99 4671.51C3528.39 4668.66 3529.18 4665.55 3529.3 4662.37C3529.43 4659.2 3528.88 4656.04 3527.7 4653.09C3526.52 4650.14 3524.74 4647.47 3522.46 4645.26C3520.18 4643.04 3517.46 4641.34 3514.48 4640.24C3496.37 4634.2 3468.77 4654.69 3458.64 4668.49C3458.1 4669.24 3452.6 4678.73 3449.15 4684.77C3450.66 4680.99 3452.06 4677.22 3453.46 4673.23C3456.37 4665.36 3459.07 4657.38 3461.98 4648.87C3463.16 4644.66 3464.46 4640.46 3465.75 4636.25C3467.04 4632.05 3468.01 4627.41 3469.09 4622.99C3471.57 4612.21 3473.62 4602.08 3475.35 4591.4C3489.52 4597.01 3504.46 4600.43 3519.66 4601.54C3526.52 4601.53 3533.3 4600.02 3539.52 4597.11C3545.74 4594.2 3551.25 4589.98 3555.67 4584.72C3557.42 4582.13 3558.62 4579.21 3559.19 4576.14C3559.76 4573.06 3559.68 4569.9 3558.96 4566.86C3558.24 4563.82 3556.89 4560.96 3555.01 4558.47C3553.12 4555.97 3550.74 4553.9 3548.01 4552.37C3531.09 4543.64 3500.68 4559.7 3488.61 4571.78C3487.85 4572.53 3480.09 4582.56 3475.99 4587.52C3476.96 4581.05 3478.04 4574.58 3478.8 4568.01C3481.17 4549.14 3483 4529.84 3484.83 4510.65C3484.83 4504.83 3486.02 4499.01 3486.67 4493.08C3501.31 4498.96 3516.76 4502.6 3532.49 4503.86C3539.35 4503.83 3546.12 4502.32 3552.34 4499.41C3558.56 4496.51 3564.07 4492.29 3568.5 4487.04C3570.25 4484.45 3571.45 4481.53 3572.02 4478.46C3572.59 4475.38 3572.51 4472.22 3571.79 4469.18C3571.07 4466.14 3569.72 4463.28 3567.84 4460.79C3565.95 4458.29 3563.57 4456.22 3560.84 4454.7C3543.92 4445.85 3513.51 4462.03 3501.44 4474.1C3500.47 4474.96 3489.47 4488.76 3486.77 4492.43C3488.18 4479.6 3489.58 4466.77 3491.63 4454.16C3494.1 4437.12 3497.71 4420.26 3502.41 4403.7C3517.12 4409.59 3532.64 4413.23 3548.44 4414.48C3555.31 4414.48 3562.09 4412.97 3568.31 4410.06C3574.53 4407.16 3580.04 4402.93 3584.45 4397.66C3586.2 4395.08 3587.39 4392.16 3587.96 4389.1C3588.52 4386.03 3588.45 4382.88 3587.74 4379.84C3587.03 4376.81 3585.7 4373.95 3583.84 4371.45C3581.98 4368.95 3579.61 4366.86 3576.91 4365.32C3559.87 4356.59 3529.47 4372.76 3517.39 4384.72C3516.42 4385.7 3504.56 4400.57 3502.51 4403.48C3502.51 4402.51 3503.05 4401.44 3503.38 4400.47C3508.54 4384 3515.22 4368.05 3523.32 4352.81C3527.64 4344.29 3532.27 4336.42 3536.91 4328.88C3550.61 4336.15 3565.33 4341.31 3580.57 4344.19C3587.4 4344.93 3594.31 4344.16 3600.81 4341.95C3607.31 4339.73 3613.24 4336.12 3618.2 4331.36C3620.3 4328.99 3621.88 4326.2 3622.83 4323.17C3623.78 4320.14 3624.07 4316.95 3623.69 4313.8C3623.32 4310.66 3622.28 4307.62 3620.64 4304.91C3619.01 4302.19 3616.81 4299.85 3614.21 4298.04C3598.36 4287.26 3566.34 4300.09 3552.97 4310.77C3552.22 4311.3 3545.53 4317.99 3540.68 4322.95L3547.15 4312.81C3555.13 4300.85 3563.21 4290.28 3570.44 4281.01C3574.53 4275.83 3578.42 4271.2 3582.08 4266.89C3597.49 4267.01 3612.83 4264.79 3627.58 4260.31C3633.99 4257.85 3639.77 4254 3644.53 4249.04C3649.28 4244.08 3652.88 4238.14 3655.07 4231.63C3655.84 4228.55 3655.96 4225.35 3655.4 4222.22C3654.85 4219.1 3653.64 4216.13 3651.86 4213.5C3650.08 4210.87 3647.77 4208.65 3645.07 4206.98C3642.37 4205.32 3639.35 4204.24 3636.2 4203.81C3617.23 4201.77 3594.69 4227.86 3587.69 4243.38C3587.15 4244.78 3580.14 4266.89 3580.57 4266.89L3569.14 4280.25C3561.7 4289.42 3553.4 4299.77 3545.1 4311.63C3536.06 4324.37 3527.74 4337.62 3520.2 4351.3C3511.62 4366.6 3504.4 4382.61 3498.63 4399.17C3498.63 4399.17 3498.63 4399.17 3498.63 4399.82C3498.63 4394.21 3498.63 4378.26 3498.63 4377.39C3496.37 4360.47 3482.25 4329.09 3463.49 4325.64C3460.32 4325.14 3457.09 4325.31 3454 4326.15C3450.91 4326.99 3448.03 4328.48 3445.56 4330.52C3443.09 4332.56 3441.09 4335.11 3439.68 4337.98C3438.27 4340.86 3437.49 4344 3437.4 4347.21C3437.68 4354.06 3439.44 4360.77 3442.57 4366.87C3445.7 4372.98 3450.11 4378.33 3455.51 4382.57C3468.79 4391.25 3483.34 4397.84 3498.63 4402.08C3493.32 4419.07 3489.14 4436.4 3486.13 4453.94C3484.29 4464.18 3482.79 4474.53 3481.38 4484.99C3481.38 4480.14 3481.38 4475.83 3481.38 4475.18C3479.12 4458.25 3465 4426.88 3446.24 4423.43C3443.08 4422.94 3439.85 4423.13 3436.77 4423.97C3433.68 4424.82 3430.81 4426.31 3428.35 4428.35C3425.88 4430.39 3423.88 4432.92 3422.46 4435.79C3421.05 4438.66 3420.26 4441.8 3420.15 4444.99C3420.42 4451.85 3422.18 4458.56 3425.31 4464.67C3428.44 4470.77 3432.86 4476.13 3438.26 4480.35C3451.04 4488.82 3465.04 4495.29 3479.77 4499.55C3479.77 4503.53 3478.8 4507.52 3478.26 4511.51C3475.99 4530.6 3473.84 4549.79 3471.03 4568.44C3470.06 4575.01 3468.88 4581.48 3467.8 4587.95C3467.8 4583.64 3467.8 4580.08 3467.8 4579.54C3465.64 4562.62 3451.52 4531.24 3432.65 4527.79C3429.5 4527.3 3426.27 4527.49 3423.2 4528.34C3420.12 4529.19 3417.26 4530.68 3414.8 4532.72C3412.34 4534.76 3410.35 4537.29 3408.95 4540.16C3407.55 4543.03 3406.77 4546.16 3406.67 4549.36C3406.95 4556.21 3408.72 4562.92 3411.84 4569.02C3414.97 4575.13 3419.39 4580.48 3424.78 4584.72C3437.17 4593.02 3450.77 4599.35 3465.1 4603.48C3463.7 4610.05 3462.3 4616.63 3460.68 4622.99C3459.5 4627.2 3458.53 4631.4 3457.13 4635.71C3455.72 4640.03 3454.43 4644.12 3453.03 4648.22C3450.23 4656.09 3447.31 4664.28 3444.3 4671.94C3442.25 4677.22 3440.2 4682.72 3438.15 4687.36C3439.23 4680.78 3440.95 4667.95 3440.95 4666.76C3440.83 4651.61 3436.78 4636.76 3429.2 4623.64C3429.42 4621.99 3429.42 4620.32 3429.2 4618.68C3428.82 4615.53 3427.77 4612.49 3426.14 4609.78C3424.5 4607.06 3422.3 4604.72 3419.7 4602.9C3417.09 4601.09 3414.13 4599.85 3411.02 4599.26C3407.9 4598.67 3404.69 4598.75 3401.6 4599.49C3383.17 4604.45 3371.41 4636.79 3370.55 4653.39C3370.55 4654.47 3371.2 4665.36 3371.74 4672.26C3370.77 4668.27 3369.91 4664.39 3368.93 4660.29C3366.99 4652.1 3364.84 4644.01 3362.47 4635.28C3361.28 4631.08 3359.99 4626.87 3358.69 4622.67C3357.4 4618.46 3355.67 4614.15 3354.16 4609.73C3350.61 4599.81 3346.4 4589.89 3341.98 4579.97C3356.87 4576.85 3371.2 4571.47 3384.46 4564.02C3390.19 4560.21 3395.02 4555.2 3398.61 4549.33C3402.2 4543.47 3404.48 4536.89 3405.27 4530.06C3405.34 4526.89 3404.74 4523.74 3403.52 4520.81C3402.3 4517.89 3400.47 4515.25 3398.16 4513.08C3395.86 4510.9 3393.12 4509.24 3390.13 4508.19C3387.13 4507.14 3383.95 4506.73 3380.79 4506.98C3361.82 4509.03 3345.32 4539.33 3341.87 4555.93C3341.87 4557.01 3340.58 4569.19 3340.15 4575.98C3337.35 4570.06 3334.76 4564.13 3331.74 4558.2C3323.33 4541.05 3314.17 4524.02 3305.11 4507.09L3296.92 4491.35C3312.48 4487.69 3327.39 4481.66 3341.12 4473.45C3346.82 4469.62 3351.62 4464.61 3355.19 4458.74C3358.76 4452.88 3361.03 4446.31 3361.82 4439.49C3361.91 4436.33 3361.32 4433.18 3360.11 4430.26C3358.9 4427.33 3357.09 4424.69 3354.79 4422.52C3352.49 4420.34 3349.76 4418.67 3346.77 4417.62C3343.78 4416.57 3340.61 4416.16 3337.45 4416.42C3318.37 4418.47 3301.98 4448.77 3298.53 4465.37C3298.53 4466.66 3296.7 4484.34 3296.48 4488.76C3290.45 4477.34 3284.63 4465.8 3279.34 4454.16C3272.1 4438.54 3265.87 4422.48 3260.69 4406.07C3276.22 4402.83 3291.19 4397.3 3305.11 4389.68C3310.81 4385.85 3315.61 4380.83 3319.18 4374.97C3322.75 4369.11 3325.02 4362.54 3325.81 4355.72C3325.9 4352.56 3325.31 4349.41 3324.1 4346.49C3322.89 4343.56 3321.08 4340.92 3318.78 4338.75C3316.48 4336.57 3313.75 4334.9 3310.76 4333.85C3307.77 4332.8 3304.6 4332.39 3301.44 4332.65C3282.36 4334.7 3265.97 4365 3262.52 4381.6C3262.52 4382.89 3260.48 4401.87 3260.48 4405.32C3260.09 4404.41 3259.76 4403.47 3259.5 4402.51C3254.8 4385.87 3251.55 4368.84 3249.8 4351.63C3248.72 4342.25 3248.29 4333.08 3247.97 4324.13C3263.39 4322.91 3278.52 4319.27 3292.82 4313.35C3298.93 4310.2 3304.27 4305.74 3308.48 4300.31C3312.69 4294.87 3315.66 4288.58 3317.18 4281.87C3317.61 4278.74 3317.37 4275.56 3316.49 4272.53C3315.61 4269.5 3314.11 4266.69 3312.08 4264.27C3310.05 4261.85 3307.54 4259.89 3304.7 4258.5C3301.87 4257.11 3298.78 4256.33 3295.62 4256.21C3276.54 4256.21 3256.81 4284.46 3251.63 4300.63C3251.63 4301.6 3249.37 4311.41 3248.08 4317.67C3248.08 4313.57 3248.08 4309.47 3248.08 4305.59C3248.08 4291.14 3249.05 4277.99 3250.02 4266.24C3250.56 4259.66 3251.2 4253.62 3251.85 4248.02C3264.8 4239.65 3276.39 4229.36 3286.24 4217.51C3290.21 4211.9 3292.9 4205.49 3294.13 4198.73C3295.36 4191.97 3295.1 4185.02 3293.36 4178.37C3292.3 4175.38 3290.61 4172.64 3288.42 4170.33C3286.23 4168.03 3283.58 4166.22 3280.64 4165.01C3277.7 4163.8 3274.54 4163.22 3271.36 4163.31C3268.19 4163.4 3265.06 4164.16 3262.2 4165.54C3245.27 4174.38 3240.64 4208.67 3243.66 4225.27C3243.66 4226.78 3250.23 4249.1 3250.56 4248.88C3249.8 4254.27 3249.05 4259.66 3248.4 4266.35C3247.21 4278.1 3246.03 4291.25 3245.7 4305.81C3245.17 4321.41 3245.53 4337.03 3246.78 4352.6C3248.14 4370.04 3251.07 4387.32 3255.52 4404.24C3255.47 4404.45 3255.47 4404.67 3255.52 4404.89C3252.5 4400.14 3243.66 4387.2 3242.79 4386.34C3232.01 4373.4 3202.58 4355.08 3185.01 4362.52C3182.09 4363.84 3179.49 4365.76 3177.37 4368.16C3175.26 4370.56 3173.67 4373.38 3172.72 4376.43C3171.78 4379.49 3171.49 4382.71 3171.88 4385.89C3172.27 4389.06 3173.32 4392.12 3174.98 4394.86C3179.04 4400.17 3184.2 4404.55 3190.09 4407.71C3195.98 4410.87 3202.48 4412.74 3209.16 4413.19Z" fill="#263238"/>
<path d="M3536.58 4323.49C3536.58 4323.49 3542.73 4301.17 3542.94 4299.77C3545.21 4282.84 3539.93 4248.77 3522.68 4240.47C3519.78 4239.18 3516.64 4238.52 3513.47 4238.52C3510.3 4238.52 3507.16 4239.19 3504.27 4240.48C3501.37 4241.77 3498.78 4243.66 3496.65 4246.01C3494.53 4248.37 3492.93 4251.15 3491.95 4254.16C3490.39 4260.85 3490.31 4267.81 3491.73 4274.53C3493.14 4281.26 3496.01 4287.59 3500.14 4293.08C3510.73 4304.95 3523.01 4315.2 3536.58 4323.49Z" fill="#263238"/>
<path d="M1409.98 4295.13C1426.12 4299.36 1442.79 4301.18 1459.46 4300.52C1459.46 4300.52 1451.92 4277.56 1451.27 4276.16C1443.51 4260.09 1418.92 4233.03 1399.3 4236.16C1396.02 4236.69 1392.89 4237.91 1390.11 4239.73C1387.34 4241.55 1384.98 4243.94 1383.18 4246.74C1381.39 4249.54 1380.21 4252.68 1379.72 4255.97C1379.23 4259.25 1379.44 4262.61 1380.33 4265.81C1382.84 4272.56 1386.79 4278.68 1391.91 4283.74C1397.03 4288.81 1403.2 4292.7 1409.98 4295.13V4295.13Z" fill="#263238"/>
<path d="M1422.05 4396.91C1438.58 4396.76 1455 4394.19 1470.78 4389.25C1475.99 4407.19 1482.37 4424.76 1489.87 4441.87C1494.18 4451.78 1498.81 4461.7 1503.56 4471.62C1500.75 4467.42 1498.17 4463.75 1497.74 4463.21C1485.98 4449.74 1455.47 4430.87 1437.04 4438.31C1433.98 4439.65 1431.25 4441.63 1429.02 4444.12C1426.78 4446.6 1425.1 4449.52 1424.08 4452.7C1423.07 4455.88 1422.73 4459.24 1423.11 4462.56C1423.48 4465.87 1424.55 4469.07 1426.26 4471.94C1430.46 4477.8 1435.88 4482.66 1442.16 4486.2C1448.43 4489.74 1455.41 4491.87 1462.59 4492.43C1478.65 4492.44 1494.61 4489.97 1509.92 4485.1C1511.86 4488.87 1513.69 4492.65 1515.52 4496.42C1524.58 4514.53 1533.75 4532.54 1542.15 4550.32C1545.17 4556.69 1547.87 4563.05 1550.56 4569.3C1548.08 4565.63 1545.82 4562.51 1545.5 4562.08C1533.75 4548.6 1503.23 4529.73 1484.8 4537.17C1481.74 4538.52 1479.01 4540.5 1476.78 4542.98C1474.55 4545.46 1472.86 4548.39 1471.85 4551.57C1470.83 4554.75 1470.49 4558.1 1470.87 4561.42C1471.24 4564.74 1472.32 4567.94 1474.02 4570.81C1478.22 4576.65 1483.65 4581.5 1489.93 4585.02C1496.21 4588.54 1503.17 4590.64 1510.35 4591.19C1525.96 4591.33 1541.5 4589 1556.39 4584.29C1558.97 4590.86 1561.56 4597.44 1563.82 4603.91C1565.23 4608.33 1566.95 4612.53 1568.03 4617.06C1569.11 4621.59 1570.51 4626.01 1571.8 4630.43C1573.85 4638.95 1576.01 4647.79 1577.84 4656.2C1579.13 4662.02 1580.21 4667.63 1581.4 4673.23C1578.49 4666.87 1572.56 4654.58 1571.91 4653.61C1562.42 4638.52 1535.15 4614.9 1515.74 4619.86C1512.55 4620.77 1509.59 4622.34 1507.05 4624.47C1504.5 4626.6 1502.44 4629.24 1500.98 4632.22C1499.53 4635.2 1498.72 4638.45 1498.6 4641.77C1498.49 4645.08 1499.08 4648.38 1500.32 4651.45C1503.56 4657.81 1508.12 4663.4 1513.7 4667.84C1519.28 4672.29 1525.75 4675.49 1532.67 4677.22C1548.92 4679.73 1565.47 4679.73 1581.72 4677.22C1583.55 4686.6 1585.28 4695.66 1586.79 4704.17C1589.92 4721.64 1592.29 4737.38 1594.12 4750.96H1607.17C1604.9 4736.84 1602.1 4720.35 1598.43 4702.02C1596.6 4692.53 1594.44 4682.5 1592.07 4672.15C1601.46 4668.46 1610.61 4664.18 1619.46 4659.32C1631.54 4669.66 1644.95 4678.33 1659.35 4685.09C1655.79 4693.82 1652.23 4702.34 1648.57 4710.32C1641.99 4725.52 1635.63 4739.11 1630.02 4750.96H1644.04C1648.89 4740.18 1654.06 4728.11 1659.45 4714.96C1663.12 4706.01 1666.89 4696.41 1670.24 4686.6C1686.23 4690.3 1702.7 4691.57 1719.08 4690.37C1726.2 4689.26 1732.99 4686.61 1738.98 4682.61C1744.98 4678.6 1750.03 4673.34 1753.79 4667.19C1755.19 4664.23 1755.96 4661 1756.05 4657.72C1756.14 4654.44 1755.55 4651.18 1754.31 4648.14C1753.08 4645.1 1751.22 4642.35 1748.87 4640.06C1746.52 4637.77 1743.71 4636 1740.64 4634.85C1721.66 4628.49 1692.77 4650.05 1682.1 4664.39C1681.45 4665.25 1675.73 4675.17 1672.18 4681.64C1673.69 4677.54 1675.2 4673.66 1676.7 4669.46C1679.72 4661.16 1682.53 4652.85 1685.55 4643.91C1686.84 4639.59 1688.13 4635.17 1689.53 4630.65C1690.94 4626.12 1691.91 4621.48 1693.09 4616.85C1695.68 4606.06 1697.73 4595.28 1699.56 4583.64C1714.41 4589.58 1730.08 4593.21 1746.03 4594.42C1753.23 4594.4 1760.33 4592.81 1766.85 4589.76C1773.37 4586.7 1779.14 4582.26 1783.76 4576.74C1785.67 4574.02 1786.99 4570.93 1787.62 4567.67C1788.26 4564.41 1788.19 4561.05 1787.44 4557.81C1786.69 4554.58 1785.26 4551.54 1783.25 4548.89C1781.24 4546.24 1778.7 4544.05 1775.78 4542.45C1758 4533.18 1726.08 4550.11 1713.47 4562.72C1712.71 4563.59 1704.63 4573.5 1700.32 4579.22C1701.29 4572.43 1702.47 4565.74 1703.23 4558.84C1705.71 4539 1707.65 4518.84 1709.59 4498.68C1709.59 4492.54 1710.88 4486.39 1711.53 4480.25C1726.85 4486.45 1743.03 4490.27 1759.51 4491.57C1767.1 4491.82 1774.65 4490.32 1781.57 4487.18C1788.49 4484.04 1794.59 4479.34 1799.4 4473.45C1801.31 4470.73 1802.62 4467.63 1803.26 4464.36C1803.89 4461.09 1803.83 4457.72 1803.08 4454.48C1802.33 4451.23 1800.9 4448.18 1798.89 4445.53C1796.88 4442.87 1794.33 4440.67 1791.42 4439.06C1773.63 4429.9 1741.72 4446.82 1729.1 4459.44C1728.13 4460.41 1716.49 4474.86 1713.79 4478.74C1715.19 4465.26 1716.7 4451.78 1718.86 4438.52C1721.54 4420.68 1725.39 4403.03 1730.4 4385.69C1745.81 4391.83 1762.05 4395.65 1778.59 4397.02C1785.79 4397.02 1792.9 4395.44 1799.43 4392.38C1805.95 4389.32 1811.72 4384.87 1816.32 4379.33C1818.22 4376.62 1819.53 4373.53 1820.16 4370.28C1820.79 4367.03 1820.74 4363.68 1819.99 4360.45C1819.25 4357.21 1817.84 4354.18 1815.85 4351.52C1813.87 4348.87 1811.34 4346.67 1808.45 4345.05C1790.66 4335.89 1758.75 4352.81 1746.03 4365.32C1745.06 4366.4 1732.55 4381.92 1730.5 4384.94C1730.5 4383.97 1731.04 4382.89 1731.37 4381.92C1736.83 4364.66 1743.83 4347.91 1752.28 4331.9C1756.81 4322.95 1761.66 4314.65 1766.62 4306.78C1780.95 4314.43 1796.37 4319.85 1812.33 4322.84C1819.49 4323.59 1826.72 4322.79 1833.53 4320.48C1840.34 4318.17 1846.57 4314.42 1851.79 4309.47C1853.99 4306.97 1855.63 4304.03 1856.61 4300.85C1857.6 4297.67 1857.9 4294.32 1857.5 4291.01C1857.11 4287.71 1856.02 4284.52 1854.31 4281.67C1852.6 4278.81 1850.31 4276.35 1847.59 4274.43C1830.88 4263.65 1797.35 4276.7 1782.9 4287.8C1782.15 4288.45 1775.03 4295.46 1769.96 4300.63C1772.23 4297.07 1774.49 4293.3 1776.76 4289.85C1785.16 4277.24 1793.57 4266.24 1801.12 4256.54C1805.43 4251.04 1809.53 4245.75 1813.3 4241.66C1829.48 4241.86 1845.59 4239.57 1861.06 4234.86C1867.76 4232.22 1873.81 4228.17 1878.8 4222.98C1883.78 4217.79 1887.59 4211.58 1889.96 4204.78C1890.74 4201.55 1890.84 4198.19 1890.25 4194.92C1889.66 4191.64 1888.39 4188.53 1886.52 4185.78C1884.65 4183.03 1882.22 4180.7 1879.4 4178.94C1876.58 4177.18 1873.42 4176.03 1870.12 4175.57C1850.18 4173.41 1827 4200.69 1819.23 4217.08C1819.23 4218.48 1811.36 4241.66 1811.69 4241.66C1807.91 4245.97 1803.92 4250.61 1799.72 4255.67C1791.96 4265.27 1783.22 4276.16 1774.49 4288.66C1765.03 4302 1756.32 4315.86 1748.4 4330.17C1739.51 4346.23 1732.04 4363.05 1726.08 4380.41C1726.08 4380.41 1726.08 4380.41 1726.08 4381.06C1726.08 4375.24 1726.08 4358.74 1726.08 4357.56C1723.71 4339.77 1708.94 4306.88 1689.21 4303.65C1685.93 4303.15 1682.57 4303.34 1679.37 4304.22C1676.16 4305.09 1673.18 4306.63 1670.61 4308.74C1668.04 4310.84 1665.93 4313.46 1664.44 4316.43C1662.95 4319.4 1662.09 4322.65 1661.93 4325.97C1662.22 4333.15 1664.06 4340.2 1667.34 4346.6C1670.62 4353 1675.25 4358.62 1680.91 4363.05C1694.74 4372.1 1709.86 4379.01 1725.76 4383.54C1720.2 4401.38 1715.81 4419.57 1712.61 4437.98C1710.67 4448.77 1709.16 4459.55 1707.65 4470.33C1707.65 4465.26 1707.65 4460.73 1707.65 4459.55C1705.28 4441.87 1690.5 4408.98 1670.78 4405.64C1667.49 4405.12 1664.13 4405.3 1660.92 4406.17C1657.7 4407.04 1654.71 4408.58 1652.14 4410.69C1649.56 4412.79 1647.46 4415.42 1645.97 4418.4C1644.48 4421.38 1643.64 4424.63 1643.5 4427.96C1643.79 4435.14 1645.64 4442.18 1648.91 4448.59C1652.19 4454.99 1656.82 4460.6 1662.47 4465.05C1675.77 4473.83 1690.31 4480.59 1705.6 4485.1L1703.98 4497.6C1701.61 4517.77 1699.24 4537.82 1696.43 4557.33C1695.46 4564.34 1694.17 4571.02 1692.98 4577.82C1692.98 4573.29 1692.98 4569.52 1692.98 4568.98C1690.72 4551.19 1675.84 4518.3 1656.22 4515.07C1652.93 4514.53 1649.57 4514.7 1646.35 4515.56C1643.14 4516.41 1640.14 4517.94 1637.55 4520.04C1634.96 4522.13 1632.85 4524.75 1631.35 4527.73C1629.85 4530.7 1628.99 4533.95 1628.84 4537.28C1629.28 4544.41 1631.27 4551.36 1634.65 4557.65C1638.04 4563.94 1642.75 4569.42 1648.46 4573.72C1661.43 4582.44 1675.69 4589.06 1690.72 4593.34C1689.21 4600.24 1687.81 4607.25 1686.08 4613.83C1684.79 4618.35 1683.82 4622.78 1682.31 4627.2L1678.11 4640.35C1675.09 4648.65 1671.96 4657.17 1668.83 4665.15C1666.68 4670.75 1664.63 4675.93 1662.47 4681.32C1663.55 4674.42 1665.38 4660.94 1665.38 4659.75C1665.23 4643.99 1660.99 4628.54 1653.09 4614.9C1653.2 4613.18 1653.2 4611.45 1653.09 4609.73C1652.67 4606.43 1651.55 4603.26 1649.83 4600.41C1648.1 4597.57 1645.8 4595.12 1643.06 4593.22C1640.33 4591.32 1637.23 4590.01 1633.96 4589.38C1630.7 4588.76 1627.33 4588.82 1624.09 4589.57C1604.79 4594.74 1592.5 4628.7 1591.75 4646.6C1591.75 4647.68 1592.4 4659.11 1592.93 4666.33C1591.96 4662.13 1591.1 4658.03 1590.02 4653.72C1587.97 4645.2 1585.71 4636.68 1583.34 4627.63C1582.05 4623.21 1580.64 4618.79 1579.35 4614.37C1578.06 4609.95 1576.22 4605.31 1574.61 4600.78C1570.83 4590 1566.41 4579.97 1561.78 4569.52C1577.43 4566.3 1592.49 4560.66 1606.41 4552.8C1612.37 4548.79 1617.39 4543.54 1621.11 4537.39C1624.84 4531.25 1627.18 4524.37 1627.97 4517.23C1628.08 4513.9 1627.47 4510.59 1626.21 4507.52C1624.94 4504.44 1623.04 4501.67 1620.63 4499.38C1618.22 4497.09 1615.35 4495.33 1612.21 4494.23C1609.07 4493.12 1605.74 4492.69 1602.42 4492.97C1582.58 4495.23 1565.23 4526.93 1561.67 4544.4C1561.67 4545.47 1560.27 4558.3 1559.73 4565.96C1556.92 4559.7 1554.12 4553.45 1551 4547.31C1542.15 4529.41 1532.56 4511.51 1523.07 4493.4C1520.16 4488.01 1517.36 4482.62 1514.55 4477.01C1530.74 4473.62 1546.32 4467.84 1560.81 4459.87C1566.76 4455.88 1571.78 4450.64 1575.51 4444.52C1579.23 4438.39 1581.57 4431.52 1582.37 4424.4C1582.47 4421.07 1581.87 4417.77 1580.6 4414.69C1579.34 4411.61 1577.44 4408.84 1575.03 4406.55C1572.61 4404.26 1569.74 4402.5 1566.61 4401.4C1563.47 4400.3 1560.13 4399.87 1556.82 4400.14C1536.87 4402.3 1519.62 4433.99 1516.06 4451.46C1516.06 4452.75 1514.12 4471.3 1513.91 4476.04C1507.65 4463.97 1501.51 4451.89 1495.9 4439.71C1488.31 4423.33 1481.79 4406.48 1476.39 4389.25C1492.67 4385.85 1508.36 4380.08 1522.96 4372.11C1528.92 4368.09 1533.92 4362.83 1537.65 4356.69C1541.37 4350.54 1543.72 4343.67 1544.53 4336.53C1544.61 4333.21 1544 4329.91 1542.73 4326.84C1541.46 4323.77 1539.55 4321.01 1537.15 4318.72C1534.74 4316.43 1531.88 4314.68 1528.74 4313.57C1525.61 4312.46 1522.29 4312.02 1518.97 4312.27C1499.03 4314.43 1481.78 4346.13 1478.22 4363.7C1478.22 4364.99 1476.07 4385.26 1476.07 4388.61C1476.07 4387.53 1475.31 4386.56 1474.99 4385.59C1470.1 4368.15 1466.71 4350.34 1464.85 4332.33C1463.77 4322.3 1463.24 4312.81 1462.91 4303.43C1479.09 4301.96 1494.95 4298 1509.92 4291.68C1516.3 4288.34 1521.88 4283.66 1526.29 4277.97C1530.7 4272.28 1533.83 4265.7 1535.47 4258.69C1535.91 4255.4 1535.65 4252.05 1534.72 4248.86C1533.79 4245.68 1532.2 4242.72 1530.06 4240.18C1527.92 4237.64 1525.27 4235.58 1522.28 4234.13C1519.3 4232.67 1516.04 4231.86 1512.72 4231.74C1492.67 4231.74 1472.08 4261.39 1466.47 4278.31C1466.47 4279.28 1464.21 4289.09 1462.8 4296.1C1462.8 4291.9 1462.8 4287.59 1462.8 4283.6C1462.8 4268.39 1463.77 4254.59 1464.74 4242.3C1465.28 4235.3 1465.93 4229.04 1466.69 4223.11C1480.27 4214.24 1492.42 4203.33 1502.69 4190.77C1506.85 4184.9 1509.67 4178.19 1510.96 4171.11C1512.24 4164.03 1511.96 4156.76 1510.13 4149.8C1509.02 4146.7 1507.27 4143.86 1505 4141.47C1502.72 4139.09 1499.97 4137.2 1496.93 4135.94C1493.88 4134.69 1490.6 4134.08 1487.31 4134.16C1484.01 4134.25 1480.77 4135.02 1477.79 4136.43C1460 4145.6 1455.37 4181.39 1458.28 4199.07C1458.28 4200.58 1465.18 4223.98 1465.5 4223.76C1464.64 4229.47 1463.88 4235.51 1463.24 4242.2C1461.94 4254.38 1460.76 4268.29 1460.32 4283.49C1459.83 4299.85 1460.22 4316.23 1461.51 4332.54C1462.95 4350.74 1465.98 4368.78 1470.57 4386.45C1470.61 4386.66 1470.61 4386.88 1470.57 4387.1C1467.44 4382.14 1458.17 4368.55 1457.31 4367.58C1445.66 4354.11 1415.15 4335.24 1396.71 4342.68C1393.67 4344.04 1390.95 4346.03 1388.73 4348.51C1386.51 4350.99 1384.83 4353.92 1383.81 4357.09C1382.8 4360.26 1382.46 4363.62 1382.82 4366.93C1383.19 4370.24 1384.25 4373.44 1385.93 4376.31C1390.11 4382.15 1395.5 4387.01 1401.74 4390.57C1407.97 4394.12 1414.9 4396.29 1422.05 4396.91Z" fill="#263238"/>
<path d="M1765.33 4302.79C1765.33 4302.79 1771.69 4279.5 1771.9 4277.99C1774.38 4260.2 1768.78 4224.62 1750.34 4215.89C1747.3 4214.51 1744.01 4213.79 1740.68 4213.77C1737.34 4213.75 1734.04 4214.44 1730.99 4215.78C1727.94 4217.12 1725.2 4219.09 1722.96 4221.56C1720.73 4224.04 1719.03 4226.95 1718 4230.12C1716.37 4237.12 1716.29 4244.4 1717.76 4251.44C1719.23 4258.47 1722.22 4265.11 1726.51 4270.87C1737.77 4283.41 1750.85 4294.17 1765.33 4302.79V4302.79Z" fill="#263238"/>
<path d="M1087.83 4472.27C1097.68 4474.84 1107.85 4475.96 1118.02 4475.61C1118.02 4475.61 1113.49 4461.59 1113.06 4460.73C1108.32 4450.81 1093.44 4434.53 1080.72 4436.15C1078.71 4436.48 1076.79 4437.24 1075.09 4438.36C1073.4 4439.49 1071.95 4440.96 1070.87 4442.68C1069.78 4444.4 1069.06 4446.33 1068.77 4448.34C1068.48 4450.36 1068.62 4452.41 1069.18 4454.37C1070.76 4458.55 1073.26 4462.33 1076.48 4465.43C1079.71 4468.52 1083.59 4470.86 1087.83 4472.27Z" fill="#263238"/>
<path d="M1094.62 4534.48C1104.76 4534.44 1114.84 4532.84 1124.49 4529.73C1127.63 4540.77 1131.52 4551.57 1136.13 4562.08C1138.72 4568.11 1141.52 4574.26 1144.54 4580.3C1142.71 4577.71 1141.2 4575.44 1140.88 4575.12C1133.76 4566.93 1115.11 4555.07 1103.79 4559.92C1101.94 4560.77 1100.29 4561.99 1098.94 4563.52C1097.6 4565.05 1096.6 4566.85 1096 4568.79C1095.4 4570.74 1095.21 4572.79 1095.46 4574.8C1095.71 4576.82 1096.38 4578.77 1097.43 4580.51C1099.99 4584.09 1103.31 4587.05 1107.15 4589.19C1110.98 4591.34 1115.25 4592.61 1119.64 4592.91C1129.44 4593.01 1139.2 4591.52 1148.53 4588.49L1151.98 4595.39C1157.59 4606.17 1162.76 4617.49 1168.26 4628.49C1170.09 4632.37 1171.71 4636.14 1173.43 4640.02L1170.31 4635.6C1163.19 4627.3 1144.43 4615.55 1133.22 4620.4C1131.37 4621.25 1129.72 4622.48 1128.38 4624.01C1127.04 4625.53 1126.03 4627.32 1125.42 4629.26C1124.81 4631.2 1124.61 4633.25 1124.84 4635.27C1125.07 4637.29 1125.72 4639.24 1126.75 4641C1129.34 4644.54 1132.66 4647.49 1136.5 4649.63C1140.33 4651.77 1144.58 4653.05 1148.96 4653.39C1158.54 4653.47 1168.07 4652.05 1177.21 4649.19C1178.72 4653.18 1180.33 4657.27 1181.74 4661.16C1183.14 4665.04 1183.57 4666.44 1184.32 4669.24L1186.59 4677.44C1187.77 4682.61 1189.18 4688.22 1190.25 4693.18C1191.01 4696.73 1191.76 4700.08 1192.41 4703.96C1190.68 4700.08 1187.02 4692.64 1186.7 4691.99C1180.87 4682.83 1164.16 4668.27 1152.3 4671.4C1150.35 4671.95 1148.54 4672.9 1146.98 4674.2C1145.42 4675.5 1144.15 4677.11 1143.25 4678.93C1142.36 4680.75 1141.86 4682.74 1141.78 4684.77C1141.71 4686.79 1142.06 4688.81 1142.82 4690.7C1144.83 4694.61 1147.67 4698.04 1151.13 4700.75C1154.59 4703.47 1158.59 4705.41 1162.87 4706.44C1172.84 4707.94 1182.98 4707.94 1192.95 4706.44C1194.03 4712.15 1195.11 4717.22 1195.97 4722.93C1197.91 4733.71 1199.31 4743.2 1200.5 4751.5H1208.47C1207.07 4742.88 1205.35 4732.74 1203.19 4721.53C1202.01 4715.82 1200.71 4709.67 1199.31 4703.31C1205.04 4701.05 1210.63 4698.42 1216.02 4695.44C1223.37 4701.79 1231.57 4707.09 1240.39 4711.18C1238.23 4716.57 1235.97 4721.96 1233.92 4726.6C1229.82 4736.01 1226.05 4744.32 1222.6 4751.5H1231.11C1234.13 4744.93 1237.26 4737.6 1240.6 4729.94C1242.76 4724.44 1245.13 4718.62 1247.39 4712.58C1257.18 4714.85 1267.25 4715.61 1277.26 4714.85C1281.67 4714.24 1285.9 4712.65 1289.63 4710.21C1293.36 4707.77 1296.5 4704.53 1298.82 4700.72C1299.72 4698.9 1300.22 4696.91 1300.3 4694.87C1300.38 4692.84 1300.03 4690.82 1299.28 4688.93C1298.53 4687.04 1297.39 4685.33 1295.94 4683.9C1294.48 4682.48 1292.75 4681.38 1290.84 4680.67C1279.2 4676.79 1261.52 4689.94 1255.05 4698.78C1255.05 4699.32 1251.06 4705.36 1248.9 4709.56L1251.71 4702.12C1253.54 4697.06 1255.26 4691.99 1257.1 4686.6C1257.85 4683.9 1258.71 4681.21 1259.47 4678.41C1260.22 4675.6 1260.98 4672.8 1261.73 4670C1263.24 4663.31 1264.54 4656.52 1265.72 4649.73C1274.77 4653.37 1284.34 4655.55 1294.08 4656.2C1298.48 4656.18 1302.82 4655.21 1306.8 4653.35C1310.79 4651.49 1314.32 4648.78 1317.15 4645.42C1318.31 4643.75 1319.11 4641.85 1319.49 4639.86C1319.88 4637.86 1319.84 4635.81 1319.39 4633.83C1318.93 4631.85 1318.06 4629.98 1316.84 4628.36C1315.62 4626.73 1314.07 4625.38 1312.3 4624.39C1301.52 4618.79 1281.89 4629.14 1274.13 4636.9L1266.05 4646.92C1266.69 4642.83 1267.45 4638.73 1267.88 4634.53C1269.39 4622.34 1270.57 4610.05 1271.76 4597.76C1271.76 4593.99 1272.51 4590.22 1272.95 4586.98C1282.31 4590.77 1292.2 4593.09 1302.27 4593.88C1306.67 4593.89 1311.02 4592.93 1315.01 4591.06C1319 4589.2 1322.52 4586.48 1325.34 4583.1C1326.52 4581.44 1327.33 4579.54 1327.73 4577.54C1328.12 4575.55 1328.09 4573.49 1327.63 4571.5C1327.17 4569.51 1326.3 4567.65 1325.07 4566.02C1323.84 4564.4 1322.28 4563.05 1320.49 4562.08C1309.71 4556.47 1290.09 4566.82 1282.43 4574.47C1281.79 4575.12 1274.67 4583.96 1273.05 4586.33C1273.92 4578.03 1274.89 4569.84 1276.07 4561.75C1277.75 4550.83 1280.12 4540.03 1283.19 4529.41C1292.58 4533.24 1302.51 4535.6 1312.62 4536.42C1317.02 4536.42 1321.37 4535.45 1325.35 4533.59C1329.34 4531.73 1332.87 4529.01 1335.69 4525.64C1336.87 4523.98 1337.68 4522.1 1338.07 4520.11C1338.47 4518.11 1338.43 4516.06 1337.98 4514.09C1337.52 4512.11 1336.64 4510.25 1335.41 4508.64C1334.18 4507.02 1332.63 4505.69 1330.84 4504.72C1320.06 4499.11 1300.55 4509.46 1292.78 4517.12C1292.14 4517.76 1284.48 4527.25 1283.3 4529.09C1283.3 4528.44 1283.3 4527.79 1283.3 4527.25C1286.63 4516.68 1290.93 4506.43 1296.13 4496.63C1298.93 4491.24 1301.84 4485.85 1304.86 4481.32C1313.61 4486 1323.03 4489.31 1332.78 4491.14C1337.16 4491.61 1341.59 4491.12 1345.76 4489.7C1349.93 4488.29 1353.74 4485.98 1356.93 4482.94C1358.29 4481.41 1359.32 4479.61 1359.93 4477.66C1360.55 4475.7 1360.75 4473.64 1360.52 4471.61C1360.28 4469.57 1359.62 4467.61 1358.58 4465.84C1357.53 4464.08 1356.13 4462.56 1354.45 4461.38C1343.67 4454.69 1323.73 4462.78 1315.1 4469.57C1315.1 4469.57 1310.36 4474.21 1307.34 4477.44C1308.63 4475.29 1310.03 4473.02 1311.44 4470.97C1316.5 4463.21 1321.68 4456.53 1326.31 4450.6C1329.01 4447.15 1331.49 4444.24 1333.75 4441.43C1343.64 4441.57 1353.5 4440.18 1362.97 4437.34C1367.07 4435.74 1370.77 4433.26 1373.81 4430.08C1376.85 4426.89 1379.15 4423.08 1380.54 4418.9C1381.05 4416.93 1381.13 4414.88 1380.78 4412.87C1380.43 4410.87 1379.66 4408.96 1378.52 4407.28C1377.38 4405.6 1375.89 4404.18 1374.16 4403.12C1372.42 4402.05 1370.49 4401.37 1368.47 4401.11C1356.29 4399.82 1341.84 4416.42 1337.42 4426.45C1337.42 4427.31 1332.57 4441.43 1332.78 4441.43L1325.34 4450.06C1320.6 4455.88 1315.32 4462.57 1310.03 4470.22C1304.19 4478.32 1298.86 4486.78 1294.08 4495.56C1288.64 4505.38 1284.06 4515.66 1280.39 4526.28C1280.39 4522.62 1280.39 4512.59 1280.39 4511.84C1278.98 4501.05 1269.6 4480.89 1257.96 4478.63C1255.95 4478.33 1253.89 4478.45 1251.93 4478.99C1249.97 4479.53 1248.14 4480.47 1246.56 4481.76C1244.99 4483.05 1243.7 4484.66 1242.79 4486.48C1241.87 4488.3 1241.35 4490.29 1241.25 4492.32C1241.4 4496.71 1242.52 4501.01 1244.51 4504.92C1246.5 4508.83 1249.33 4512.26 1252.79 4514.96C1261.26 4520.5 1270.53 4524.72 1280.28 4527.47C1276.82 4538.38 1274.12 4549.51 1272.19 4560.78C1271.01 4567.25 1270.04 4573.94 1269.17 4580.62C1269.17 4577.49 1269.17 4574.69 1269.17 4574.37C1267.77 4563.59 1258.39 4543.32 1246.64 4541.16C1244.63 4540.84 1242.58 4540.95 1240.62 4541.47C1238.65 4542 1236.82 4542.93 1235.25 4544.22C1233.67 4545.5 1232.38 4547.1 1231.46 4548.91C1230.55 4550.73 1230.02 4552.71 1229.93 4554.75C1230.07 4559.15 1231.19 4563.46 1233.21 4567.37C1235.22 4571.29 1238.08 4574.71 1241.57 4577.39C1249.73 4582.9 1258.72 4587.05 1268.2 4589.68C1268.2 4592.26 1267.45 4594.85 1267.23 4597.33C1265.72 4609.62 1264.32 4621.91 1262.6 4633.88C1261.95 4638.08 1261.19 4642.29 1260.44 4646.39C1260.44 4643.69 1260.44 4641.32 1260.44 4641C1259.04 4630.21 1249.66 4610.05 1237.91 4607.79C1235.9 4607.47 1233.85 4607.57 1231.88 4608.1C1229.92 4608.63 1228.09 4609.56 1226.51 4610.84C1224.94 4612.13 1223.65 4613.73 1222.73 4615.54C1221.81 4617.36 1221.29 4619.34 1221.2 4621.37C1221.35 4625.79 1222.48 4630.11 1224.49 4634.04C1226.5 4637.97 1229.35 4641.41 1232.84 4644.12C1240.76 4649.41 1249.45 4653.45 1258.61 4656.09C1257.74 4660.29 1256.88 4664.5 1255.8 4668.6C1254.73 4672.69 1254.4 4674.09 1253.54 4676.79L1250.95 4684.77C1249.12 4689.83 1247.18 4695.55 1245.35 4699.97C1243.51 4704.39 1242.65 4706.55 1241.36 4709.89C1242 4705.68 1243.19 4697.38 1243.19 4696.73C1243 4687.12 1240.41 4677.7 1235.64 4669.35C1235.75 4668.27 1235.75 4667.19 1235.64 4666.12C1235.39 4664.1 1234.72 4662.16 1233.67 4660.42C1232.62 4658.68 1231.22 4657.18 1229.55 4656.02C1227.88 4654.86 1225.99 4654.06 1223.99 4653.68C1221.99 4653.31 1219.94 4653.35 1217.96 4653.83C1206.1 4657.06 1198.66 4677.76 1198.02 4688.65C1198.02 4689.3 1198.02 4696.3 1198.77 4700.72C1198.77 4698.24 1197.69 4695.66 1197.05 4693.07C1195.75 4687.79 1194.35 4682.29 1192.84 4677.11C1192.09 4674.42 1191.22 4671.72 1190.47 4668.92C1189.71 4666.12 1188.53 4663.53 1187.56 4660.72C1185.29 4654.26 1182.6 4647.9 1179.69 4641.53C1189.25 4639.59 1198.45 4636.17 1206.96 4631.4C1210.6 4628.96 1213.67 4625.78 1215.98 4622.06C1218.28 4618.34 1219.77 4614.18 1220.33 4609.84C1220.37 4607.8 1219.98 4605.79 1219.19 4603.91C1218.4 4602.04 1217.22 4600.35 1215.74 4598.96C1214.26 4597.57 1212.5 4596.5 1210.58 4595.83C1208.66 4595.16 1206.62 4594.9 1204.59 4595.07C1192.52 4596.36 1181.95 4615.77 1179.69 4626.44C1179.69 4627.09 1178.83 4634.96 1178.5 4639.27C1176.78 4635.5 1175.05 4631.62 1173.22 4627.84C1167.72 4617.06 1162.44 4606.28 1156.18 4595.5C1154.35 4592.16 1152.63 4588.81 1150.9 4585.47C1160.82 4583.36 1170.35 4579.72 1179.15 4574.69C1182.8 4572.28 1185.88 4569.1 1188.17 4565.38C1190.46 4561.65 1191.91 4557.47 1192.41 4553.13C1192.48 4551.09 1192.11 4549.06 1191.34 4547.18C1190.57 4545.29 1189.41 4543.59 1187.93 4542.18C1186.45 4540.78 1184.7 4539.7 1182.77 4539.02C1180.85 4538.34 1178.81 4538.08 1176.78 4538.25C1164.7 4539.54 1154.14 4558.95 1151.87 4569.62C1151.87 4570.49 1150.69 4581.81 1150.58 4584.61C1146.7 4577.28 1143.03 4569.95 1139.8 4562.51C1135.14 4552.47 1131.14 4542.13 1127.83 4531.57C1137.81 4529.45 1147.41 4525.81 1156.29 4520.78C1159.94 4518.37 1163.02 4515.2 1165.31 4511.47C1167.6 4507.75 1169.05 4503.57 1169.55 4499.22C1169.62 4497.18 1169.26 4495.16 1168.49 4493.27C1167.71 4491.38 1166.55 4489.68 1165.07 4488.28C1163.6 4486.87 1161.84 4485.79 1159.92 4485.12C1158 4484.44 1155.95 4484.17 1153.92 4484.34C1141.74 4485.64 1131.28 4505.04 1129.02 4515.72C1129.02 4516.58 1127.72 4528.76 1127.72 4531.03L1127.08 4529.09C1124.05 4518.51 1121.99 4507.69 1120.93 4496.74C1120.22 4490.91 1119.83 4485.04 1119.74 4479.17C1129.62 4478.27 1139.3 4475.83 1148.42 4471.94C1152.35 4469.93 1155.78 4467.09 1158.48 4463.6C1161.18 4460.12 1163.09 4456.08 1164.06 4451.78C1164.33 4449.77 1164.18 4447.73 1163.61 4445.79C1163.04 4443.84 1162.07 4442.04 1160.75 4440.49C1159.44 4438.94 1157.82 4437.69 1155.99 4436.81C1154.17 4435.94 1152.17 4435.45 1150.15 4435.4C1137.86 4435.4 1125.24 4453.4 1121.9 4463.86C1121.9 4464.4 1120.5 4470.33 1119.64 4474.64C1119.64 4472.16 1119.64 4469.46 1119.64 4466.99C1119.64 4457.71 1120.28 4449.3 1120.82 4441.76C1120.82 4437.55 1121.58 4433.67 1122.01 4430.11C1130.11 4424.66 1137.38 4418.05 1143.57 4410.49C1146.08 4406.89 1147.78 4402.8 1148.56 4398.48C1149.34 4394.16 1149.19 4389.73 1148.1 4385.48C1147.42 4383.56 1146.35 4381.8 1144.95 4380.33C1143.54 4378.85 1141.84 4377.69 1139.96 4376.91C1138.08 4376.14 1136.05 4375.77 1134.02 4375.84C1131.98 4375.9 1129.98 4376.39 1128.15 4377.28C1117.37 4382.89 1114.46 4404.78 1116.19 4415.56C1116.19 4416.42 1120.5 4430.76 1120.71 4430.65C1120.18 4434.1 1119.74 4437.88 1119.31 4441.43C1118.56 4448.98 1117.8 4457.5 1117.59 4466.77C1117.17 4476.76 1117.39 4486.77 1118.23 4496.74C1119.1 4507.92 1120.97 4519 1123.84 4529.84C1121.9 4526.82 1116.29 4518.52 1115.75 4517.98C1108.64 4509.68 1089.88 4497.93 1078.67 4502.67C1076.82 4503.52 1075.17 4504.75 1073.83 4506.27C1072.48 4507.8 1071.47 4509.59 1070.86 4511.53C1070.25 4513.47 1070.06 4515.52 1070.29 4517.54C1070.52 4519.56 1071.17 4521.51 1072.2 4523.26C1074.93 4526.61 1078.34 4529.35 1082.21 4531.28C1086.07 4533.21 1090.3 4534.3 1094.62 4534.48V4534.48Z" fill="#263238"/>
<path d="M1304.54 4477.01C1304.54 4477.01 1308.42 4462.67 1308.52 4461.81C1310.03 4451.03 1306.58 4429.47 1295.59 4423.86C1293.73 4423.02 1291.72 4422.58 1289.68 4422.57C1287.64 4422.56 1285.63 4422.98 1283.76 4423.8C1281.9 4424.63 1280.23 4425.84 1278.87 4427.35C1277.51 4428.87 1276.48 4430.65 1275.86 4432.59C1274.88 4436.87 1274.83 4441.31 1275.73 4445.61C1276.62 4449.91 1278.43 4453.96 1281.03 4457.5C1287.87 4465.11 1295.79 4471.69 1304.54 4477.01Z" fill="#263238"/>
<path d="M4325.13 4472.27C4335.01 4474.83 4345.21 4475.96 4355.42 4475.61C4355.42 4475.61 4350.79 4461.59 4350.46 4460.73C4345.72 4450.81 4330.84 4434.53 4318.66 4436.15C4316.65 4436.49 4314.73 4437.24 4313.03 4438.36C4311.33 4439.49 4309.88 4440.95 4308.78 4442.67C4307.68 4444.39 4306.96 4446.32 4306.65 4448.33C4306.35 4450.35 4306.47 4452.41 4307.01 4454.37C4308.57 4458.48 4311 4462.2 4314.12 4465.29C4317.25 4468.38 4321 4470.76 4325.13 4472.27V4472.27Z" fill="#263238"/>
<path d="M4333 4534.48C4343.14 4534.44 4353.21 4532.84 4362.86 4529.73C4366.01 4540.75 4369.86 4551.55 4374.4 4562.08C4377.09 4568.11 4379.9 4574.26 4382.81 4580.3C4381.08 4577.71 4379.57 4575.44 4379.25 4575.12C4372.13 4566.93 4353.48 4555.07 4342.16 4559.92C4340.31 4560.77 4338.66 4561.99 4337.32 4563.52C4335.98 4565.05 4334.97 4566.85 4334.37 4568.79C4333.77 4570.74 4333.59 4572.79 4333.83 4574.8C4334.08 4576.82 4334.75 4578.77 4335.8 4580.51C4338.36 4584.09 4341.68 4587.05 4345.52 4589.19C4349.36 4591.34 4353.62 4592.61 4358.01 4592.91C4367.82 4593.01 4377.58 4591.52 4386.9 4588.49L4390.35 4595.39C4395.96 4606.17 4401.13 4617.49 4406.63 4628.49C4408.47 4632.37 4410.08 4636.14 4411.81 4640.02L4408.47 4635.17C4401.24 4626.87 4382.59 4615.12 4371.38 4619.97C4369.53 4620.82 4367.88 4622.05 4366.54 4623.58C4365.19 4625.1 4364.18 4626.89 4363.57 4628.83C4362.97 4630.77 4362.77 4632.82 4363 4634.84C4363.23 4636.86 4363.88 4638.81 4364.91 4640.56C4367.5 4644.11 4370.82 4647.06 4374.65 4649.2C4378.49 4651.34 4382.74 4652.62 4387.12 4652.96C4396.7 4653.04 4406.23 4651.62 4415.37 4648.76C4416.88 4652.75 4418.49 4656.84 4419.89 4660.72C4421.3 4664.61 4421.73 4666.01 4422.48 4668.81L4424.75 4677C4425.93 4682.18 4427.33 4687.79 4428.41 4692.75C4429.17 4696.3 4429.92 4699.65 4430.57 4703.53C4428.84 4699.65 4425.18 4692.21 4424.85 4691.56C4419.03 4682.4 4402.32 4667.84 4390.46 4670.97C4388.51 4671.52 4386.69 4672.47 4385.13 4673.77C4383.57 4675.07 4382.31 4676.68 4381.41 4678.5C4380.52 4680.32 4380.01 4682.31 4379.94 4684.34C4379.86 4686.36 4380.22 4688.38 4380.97 4690.27C4382.99 4694.18 4385.82 4697.61 4389.28 4700.32C4392.74 4703.04 4396.75 4704.98 4401.03 4706.01C4411 4707.51 4421.14 4707.51 4431.11 4706.01C4432.18 4711.72 4433.26 4716.79 4434.13 4722.5C4436.07 4733.28 4437.47 4742.77 4438.65 4751.07H4446.63C4445.23 4742.45 4443.5 4732.31 4441.24 4721.1C4440.16 4715.39 4438.87 4709.24 4437.36 4702.88C4443.14 4700.65 4448.76 4698.02 4454.18 4695.01C4461.53 4701.36 4469.73 4706.66 4478.54 4710.75C4476.39 4716.14 4474.12 4721.53 4472.08 4726.17C4467.98 4735.55 4464.2 4743.85 4460.65 4751.07H4469.27C4472.18 4744.5 4475.42 4737.16 4478.76 4729.51C4480.92 4724.01 4483.29 4718.19 4485.55 4712.15C4495.33 4714.42 4505.4 4715.18 4515.42 4714.42C4519.83 4713.81 4524.06 4712.22 4527.79 4709.78C4531.52 4707.34 4534.66 4704.1 4536.98 4700.29C4537.87 4698.46 4538.37 4696.46 4538.44 4694.42C4538.52 4692.39 4538.16 4690.36 4537.4 4688.47C4536.63 4686.58 4535.48 4684.87 4534.02 4683.45C4532.55 4682.03 4530.81 4680.94 4528.89 4680.24C4517.36 4676.36 4499.68 4689.51 4493.1 4698.35C4493.1 4698.89 4489.22 4704.93 4487.06 4709.13L4489.86 4701.69C4491.7 4696.63 4493.42 4691.56 4495.25 4686.17C4496.01 4683.47 4496.87 4680.78 4497.63 4677.97C4498.38 4675.17 4499.14 4672.37 4499.89 4669.57C4501.4 4662.88 4502.69 4656.09 4503.88 4649.3C4512.93 4652.93 4522.5 4655.12 4532.23 4655.77C4536.63 4655.75 4540.97 4654.78 4544.96 4652.92C4548.94 4651.06 4552.47 4648.35 4555.31 4644.98C4556.47 4643.32 4557.27 4641.42 4557.65 4639.43C4558.04 4637.43 4558 4635.38 4557.54 4633.4C4557.09 4631.42 4556.22 4629.55 4555 4627.93C4553.78 4626.3 4552.23 4624.95 4550.46 4623.96C4539.67 4618.35 4520.05 4628.7 4512.29 4636.47L4504.2 4646.49C4504.85 4642.4 4505.6 4638.3 4506.04 4634.1C4507.55 4621.91 4508.73 4609.62 4509.92 4597.33C4509.92 4593.56 4510.67 4589.78 4511.1 4586.55C4520.47 4590.34 4530.36 4592.66 4540.43 4593.45C4544.83 4593.44 4549.17 4592.47 4553.16 4590.61C4557.14 4588.75 4560.67 4586.04 4563.5 4582.67C4564.68 4581.01 4565.49 4579.11 4565.89 4577.11C4566.28 4575.11 4566.25 4573.05 4565.79 4571.07C4565.33 4569.08 4564.46 4567.22 4563.23 4565.59C4562 4563.97 4560.44 4562.62 4558.65 4561.64C4547.87 4556.04 4528.25 4566.39 4520.48 4574.04C4520.48 4574.69 4512.83 4583.53 4511.21 4585.9C4512.07 4577.6 4513.04 4569.41 4514.23 4561.32C4515.9 4550.4 4518.28 4539.59 4521.35 4528.98C4530.74 4532.8 4540.67 4535.17 4550.78 4535.99C4555.18 4535.99 4559.53 4535.02 4563.51 4533.16C4567.5 4531.29 4571.03 4528.58 4573.85 4525.2C4575.03 4523.55 4575.84 4521.67 4576.23 4519.67C4576.63 4517.68 4576.59 4515.63 4576.13 4513.65C4575.67 4511.68 4574.8 4509.82 4573.57 4508.21C4572.34 4506.59 4570.78 4505.26 4569 4504.29C4558.22 4498.68 4538.7 4509.03 4530.94 4516.69C4530.29 4517.33 4522.64 4526.82 4521.45 4528.65C4521.39 4528.04 4521.39 4527.43 4521.45 4526.82C4524.79 4516.25 4529.08 4506 4534.28 4496.2C4537.09 4490.81 4540 4485.42 4543.02 4480.89C4551.77 4485.57 4561.18 4488.88 4570.94 4490.7C4575.32 4491.18 4579.75 4490.69 4583.92 4489.27C4588.09 4487.86 4591.9 4485.55 4595.09 4482.51C4596.46 4480.98 4597.49 4479.17 4598.11 4477.21C4598.73 4475.25 4598.92 4473.18 4598.68 4471.14C4598.43 4469.1 4597.76 4467.14 4596.69 4465.38C4595.63 4463.62 4594.2 4462.11 4592.5 4460.95C4582.37 4454.26 4561.88 4462.35 4553.26 4469.14L4545.39 4477.01L4549.59 4470.54C4554.66 4462.78 4559.83 4456.1 4564.47 4450.17C4567.17 4446.72 4569.65 4443.81 4571.91 4441C4581.8 4441.13 4591.65 4439.75 4601.13 4436.91C4605.22 4435.29 4608.91 4432.81 4611.95 4429.62C4614.98 4426.44 4617.29 4422.63 4618.7 4418.47C4619.21 4416.5 4619.29 4414.45 4618.94 4412.44C4618.59 4410.44 4617.82 4408.53 4616.68 4406.85C4615.53 4405.17 4614.05 4403.75 4612.31 4402.68C4610.58 4401.62 4608.64 4400.94 4606.63 4400.68C4594.44 4399.39 4580 4415.99 4575.58 4426.02C4575.58 4426.88 4570.72 4441 4570.94 4441L4563.61 4449.63C4558.86 4455.45 4553.58 4462.13 4548.3 4469.79C4542.46 4477.89 4537.13 4486.35 4532.34 4495.12C4526.86 4504.93 4522.27 4515.22 4518.65 4525.85C4518.65 4522.19 4518.65 4512.16 4518.65 4511.4C4517.25 4500.62 4507.87 4480.46 4496.23 4478.2C4494.21 4477.89 4492.16 4478.02 4490.19 4478.56C4488.23 4479.1 4486.4 4480.04 4484.83 4481.33C4483.25 4482.62 4481.97 4484.23 4481.05 4486.05C4480.14 4487.87 4479.61 4489.86 4479.51 4491.89C4479.67 4496.28 4480.78 4500.58 4482.77 4504.49C4484.77 4508.4 4487.59 4511.83 4491.05 4514.53C4499.53 4520.07 4508.8 4524.29 4518.54 4527.04C4515.09 4537.94 4512.39 4549.07 4510.46 4560.35C4509.27 4566.82 4508.3 4573.5 4507.44 4580.19C4507.44 4577.06 4507.44 4574.26 4507.44 4573.94C4506.04 4563.15 4496.66 4542.89 4484.9 4540.73C4482.9 4540.41 4480.85 4540.51 4478.88 4541.04C4476.92 4541.57 4475.09 4542.5 4473.51 4543.78C4471.93 4545.07 4470.65 4546.67 4469.73 4548.48C4468.81 4550.3 4468.29 4552.28 4468.19 4554.31C4468.34 4558.71 4469.46 4563.03 4471.47 4566.94C4473.49 4570.86 4476.34 4574.28 4479.84 4576.95C4487.96 4582.44 4496.92 4586.59 4506.36 4589.24C4506.36 4591.83 4505.71 4594.42 4505.5 4596.9C4503.99 4609.19 4502.59 4621.48 4500.86 4633.45C4500.21 4637.65 4499.46 4641.86 4498.7 4645.95C4498.7 4643.26 4498.7 4640.89 4498.7 4640.56C4497.3 4629.78 4487.92 4609.62 4476.28 4607.36C4474.27 4607.04 4472.22 4607.14 4470.26 4607.67C4468.29 4608.2 4466.46 4609.13 4464.89 4610.41C4463.31 4611.7 4462.02 4613.3 4461.1 4615.11C4460.19 4616.92 4459.66 4618.91 4459.57 4620.94C4459.73 4625.35 4460.85 4629.68 4462.86 4633.61C4464.88 4637.54 4467.73 4640.98 4471.21 4643.69C4479.14 4648.98 4487.83 4653.02 4496.98 4655.66C4496.12 4659.86 4495.25 4664.07 4494.18 4668.16C4493.1 4672.26 4492.78 4673.66 4491.91 4676.36L4489.33 4684.34C4487.49 4689.4 4485.55 4695.12 4483.61 4699.54C4481.67 4703.96 4481.02 4706.11 4479.73 4709.46C4480.38 4705.25 4481.56 4696.95 4481.56 4696.3C4481.35 4686.13 4478.45 4676.2 4473.15 4667.52C4473.26 4666.44 4473.26 4665.36 4473.15 4664.28C4472.91 4662.27 4472.23 4660.32 4471.18 4658.58C4470.13 4656.84 4468.73 4655.34 4467.06 4654.18C4465.39 4653.02 4463.5 4652.23 4461.5 4651.85C4459.5 4651.47 4457.45 4651.52 4455.47 4651.99C4443.61 4655.23 4436.17 4675.93 4435.53 4686.82C4435.53 4687.46 4435.53 4694.47 4436.28 4698.89C4436.28 4696.41 4435.1 4693.82 4434.45 4691.24C4433.26 4685.95 4431.86 4680.45 4430.35 4675.28C4429.6 4672.58 4428.73 4669.89 4427.98 4667.09C4427.22 4664.28 4426.04 4661.7 4425.07 4658.89C4422.7 4652.42 4420.11 4646.06 4417.2 4639.7C4426.76 4637.76 4435.96 4634.34 4444.47 4629.57C4448.11 4627.15 4451.19 4623.97 4453.47 4620.24C4455.76 4616.52 4457.22 4612.34 4457.74 4608C4457.81 4605.97 4457.44 4603.95 4456.67 4602.07C4455.9 4600.18 4454.73 4598.49 4453.25 4597.09C4451.77 4595.69 4450.02 4594.63 4448.09 4593.96C4446.17 4593.3 4444.13 4593.05 4442.1 4593.23C4430.03 4594.53 4419.46 4613.93 4417.2 4624.61C4417.2 4625.25 4416.34 4633.12 4416.01 4637.44C4414.29 4633.66 4412.56 4629.78 4410.73 4626.01C4405.23 4615.23 4399.41 4604.45 4393.7 4593.67C4391.86 4590.32 4390.14 4586.98 4388.41 4583.64C4398.33 4581.53 4407.86 4577.89 4416.66 4572.86C4420.31 4570.45 4423.39 4567.27 4425.68 4563.54C4427.97 4559.82 4429.42 4555.64 4429.92 4551.29C4429.99 4549.26 4429.62 4547.23 4428.85 4545.34C4428.08 4543.46 4426.92 4541.75 4425.44 4540.35C4423.96 4538.94 4422.21 4537.87 4420.29 4537.19C4418.36 4536.51 4416.32 4536.25 4414.29 4536.42C4402.1 4537.71 4391.65 4557.12 4389.38 4567.79C4389.38 4568.65 4388.2 4579.97 4388.09 4582.78C4384.21 4575.45 4380.54 4568.11 4377.31 4560.67C4372.65 4550.63 4368.65 4540.3 4365.34 4529.73C4375.32 4527.61 4384.92 4523.98 4393.8 4518.95C4397.45 4516.54 4400.53 4513.36 4402.82 4509.64C4405.11 4505.91 4406.56 4501.73 4407.06 4497.39C4407.13 4495.35 4406.77 4493.32 4406 4491.44C4405.22 4489.55 4404.06 4487.85 4402.58 4486.44C4401.11 4485.04 4399.35 4483.96 4397.43 4483.28C4395.51 4482.61 4393.46 4482.34 4391.43 4482.51C4379.25 4483.8 4368.79 4503.21 4366.53 4513.88C4366.53 4514.75 4365.23 4526.93 4365.23 4529.19L4364.59 4527.25C4361.56 4516.68 4359.5 4505.85 4358.44 4494.91C4357.73 4489.08 4357.34 4483.21 4357.25 4477.34C4367.13 4476.44 4376.81 4474 4385.93 4470.11C4389.86 4468.1 4393.29 4465.25 4395.99 4461.77C4398.69 4458.29 4400.6 4454.25 4401.57 4449.95C4401.84 4447.94 4401.69 4445.9 4401.12 4443.95C4400.55 4442.01 4399.58 4440.2 4398.26 4438.66C4396.95 4437.11 4395.33 4435.86 4393.5 4434.98C4391.68 4434.1 4389.68 4433.62 4387.66 4433.56C4375.37 4433.56 4362.75 4451.57 4359.41 4462.03C4359.41 4462.56 4358.01 4468.49 4357.15 4472.81C4357.15 4470.33 4357.15 4467.63 4357.15 4465.15C4357.15 4455.88 4357.79 4447.47 4358.33 4439.92C4358.33 4435.72 4359.09 4431.84 4359.52 4428.28C4367.81 4422.87 4375.26 4416.25 4381.62 4408.66C4384.13 4405.06 4385.83 4400.96 4386.61 4396.65C4387.39 4392.33 4387.24 4387.9 4386.15 4383.65C4385.47 4381.73 4384.4 4379.97 4383 4378.49C4381.59 4377.02 4379.89 4375.85 4378.01 4375.08C4376.13 4374.31 4374.1 4373.94 4372.07 4374C4370.03 4374.07 4368.03 4374.56 4366.2 4375.45C4355.42 4381.06 4352.51 4402.94 4354.24 4413.73C4354.24 4414.59 4358.55 4428.93 4358.76 4428.82C4358.22 4432.27 4357.79 4436.04 4357.36 4439.6C4356.61 4447.15 4355.85 4455.66 4355.64 4464.94C4355.22 4474.93 4355.44 4484.94 4356.28 4494.91C4357.14 4506.09 4359.02 4517.17 4361.89 4528.01C4359.95 4524.99 4354.34 4516.69 4353.8 4516.15C4346.69 4507.85 4327.93 4496.09 4316.72 4500.84C4314.87 4501.69 4313.22 4502.92 4311.88 4504.44C4310.53 4505.97 4309.52 4507.76 4308.91 4509.7C4308.3 4511.64 4308.11 4513.69 4308.34 4515.71C4308.57 4517.73 4309.22 4519.68 4310.25 4521.43C4312.83 4525.16 4316.21 4528.27 4320.15 4530.52C4324.08 4532.78 4328.47 4534.13 4333 4534.48Z" fill="#263238"/>
<path d="M4542.37 4477.01C4542.37 4477.01 4546.36 4462.67 4546.47 4461.81C4547.97 4451.03 4544.52 4429.47 4533.53 4423.86C4531.67 4423.02 4529.66 4422.58 4527.62 4422.57C4525.58 4422.56 4523.57 4422.98 4521.71 4423.8C4519.84 4424.63 4518.17 4425.84 4516.81 4427.35C4515.45 4428.87 4514.42 4430.65 4513.8 4432.59C4512.82 4436.87 4512.77 4441.31 4513.67 4445.61C4514.56 4449.91 4516.37 4453.96 4518.97 4457.5C4525.81 4465.08 4533.69 4471.65 4542.37 4477.01Z" fill="#263238"/>
<path d="M3844.07 4472.27C3853.91 4474.84 3864.08 4475.96 3874.25 4475.61C3874.25 4475.61 3869.72 4461.59 3869.29 4460.73C3864.55 4450.81 3849.67 4434.53 3837.49 4436.15C3835.48 4436.48 3833.56 4437.24 3831.87 4438.36C3830.17 4439.49 3828.73 4440.96 3827.64 4442.68C3826.55 4444.4 3825.84 4446.33 3825.55 4448.34C3825.25 4450.36 3825.39 4452.41 3825.95 4454.37C3827.48 4458.5 3829.89 4462.24 3833.02 4465.33C3836.15 4468.42 3839.92 4470.79 3844.07 4472.27Z" fill="#263238"/>
<path d="M3851.4 4534.48C3861.54 4534.44 3871.61 4532.84 3881.26 4529.73C3884.4 4540.77 3888.29 4551.57 3892.91 4562.08C3895.49 4568.11 3898.3 4574.26 3901.31 4580.3C3899.48 4577.71 3897.97 4575.45 3897.65 4575.12C3890.53 4566.93 3871.88 4555.07 3860.56 4559.92C3858.71 4560.77 3857.06 4562 3855.72 4563.52C3854.38 4565.05 3853.37 4566.85 3852.77 4568.79C3852.17 4570.74 3851.99 4572.79 3852.23 4574.81C3852.48 4576.83 3853.15 4578.77 3854.2 4580.51C3856.76 4584.09 3860.08 4587.05 3863.92 4589.2C3867.76 4591.34 3872.02 4592.61 3876.41 4592.91C3886.22 4593.01 3895.98 4591.52 3905.3 4588.49L3908.75 4595.39C3914.36 4606.17 3919.54 4617.49 3925.03 4628.49C3926.87 4632.37 3928.48 4636.14 3930.21 4640.03L3927.08 4635.61C3919.97 4627.3 3901.21 4615.55 3889.99 4620.4C3888.15 4621.25 3886.5 4622.48 3885.15 4624.01C3883.81 4625.53 3882.8 4627.32 3882.19 4629.26C3881.58 4631.2 3881.39 4633.25 3881.62 4635.27C3881.85 4637.29 3882.5 4639.24 3883.53 4641C3886.11 4644.54 3889.44 4647.49 3893.27 4649.63C3897.11 4651.77 3901.36 4653.05 3905.74 4653.39C3915.31 4653.47 3924.84 4652.05 3933.98 4649.19C3935.49 4653.18 3937.11 4657.28 3938.51 4661.16C3939.91 4665.04 3940.34 4666.44 3941.1 4669.24L3943.36 4677.44C3944.66 4682.61 3945.95 4688.22 3947.03 4693.18C3947.78 4696.74 3948.54 4700.08 3949.18 4703.96C3947.46 4700.08 3943.79 4692.64 3943.47 4691.99C3937.65 4682.83 3920.94 4668.27 3909.08 4671.4C3907.12 4671.95 3905.31 4672.9 3903.75 4674.2C3902.2 4675.5 3900.93 4677.12 3900.05 4678.94C3899.16 4680.76 3898.67 4682.75 3898.61 4684.78C3898.55 4686.81 3898.92 4688.82 3899.7 4690.7C3901.68 4694.63 3904.51 4698.08 3907.97 4700.8C3911.44 4703.52 3915.46 4705.44 3919.75 4706.44C3929.69 4707.94 3939.79 4707.94 3949.72 4706.44C3950.8 4712.15 3951.88 4717.22 3952.85 4722.93C3954.68 4733.72 3956.08 4743.2 3957.27 4751.5H3965.25C3963.85 4742.88 3962.12 4732.74 3959.97 4721.53C3958.78 4715.82 3957.49 4709.67 3956.08 4703.31C3961.82 4701.05 3967.4 4698.42 3972.79 4695.44C3980.15 4701.79 3988.35 4707.09 3997.16 4711.18C3995 4716.57 3992.85 4721.96 3990.69 4726.6C3986.59 4736.02 3982.82 4744.32 3979.37 4751.5H3988C3991.02 4744.93 3994.14 4737.6 3997.48 4729.94C3999.75 4724.44 4002.01 4718.62 4004.28 4712.58C4014.06 4714.85 4024.13 4715.61 4034.14 4714.85C4038.56 4714.24 4042.78 4712.66 4046.51 4710.21C4050.24 4707.77 4053.38 4704.53 4055.7 4700.72C4056.6 4698.9 4057.1 4696.91 4057.18 4694.87C4057.26 4692.84 4056.91 4690.82 4056.16 4688.93C4055.41 4687.04 4054.27 4685.33 4052.82 4683.91C4051.37 4682.48 4049.63 4681.38 4047.72 4680.67C4036.08 4676.79 4018.4 4689.94 4011.93 4698.78C4011.93 4699.32 4007.94 4705.36 4005.79 4709.56L4008.59 4702.13C4010.42 4697.06 4012.15 4691.99 4013.98 4686.6C4014.73 4683.91 4015.6 4681.21 4016.46 4678.41C4017.32 4675.6 4017.86 4672.8 4018.62 4670C4020.12 4663.31 4021.42 4656.52 4022.6 4649.73C4031.66 4653.37 4041.23 4655.55 4050.96 4656.2C4055.36 4656.19 4059.7 4655.22 4063.69 4653.36C4067.67 4651.5 4071.2 4648.79 4074.03 4645.42C4075.21 4643.75 4076.02 4641.86 4076.42 4639.86C4076.81 4637.86 4076.78 4635.8 4076.32 4633.82C4075.86 4631.83 4074.99 4629.97 4073.76 4628.34C4072.53 4626.72 4070.97 4625.37 4069.18 4624.39C4058.4 4618.79 4038.78 4629.14 4031.01 4636.9L4022.93 4646.93C4023.68 4642.83 4024.33 4638.73 4024.87 4634.53C4026.38 4622.34 4027.46 4610.05 4028.64 4597.76C4028.64 4593.99 4029.4 4590.22 4029.83 4586.98C4039.19 4590.77 4049.08 4593.1 4059.15 4593.88C4063.55 4593.89 4067.9 4592.93 4071.89 4591.06C4075.88 4589.2 4079.41 4586.48 4082.22 4583.1C4083.4 4581.44 4084.22 4579.54 4084.61 4577.55C4085 4575.55 4084.97 4573.49 4084.51 4571.5C4084.05 4569.52 4083.18 4567.65 4081.95 4566.03C4080.72 4564.4 4079.16 4563.06 4077.37 4562.08C4066.59 4556.47 4046.97 4566.82 4039.32 4574.48C4038.67 4575.12 4031.55 4583.96 4029.94 4586.33C4030.8 4578.03 4031.77 4569.84 4032.95 4561.75C4034.63 4550.83 4037 4540.03 4040.07 4529.41C4049.51 4533.22 4059.47 4535.58 4069.61 4536.42C4074.01 4536.4 4078.35 4535.42 4082.33 4533.56C4086.31 4531.7 4089.85 4528.99 4092.68 4525.64C4093.84 4523.97 4094.63 4522.08 4095.01 4520.09C4095.38 4518.09 4095.33 4516.05 4094.87 4514.07C4094.4 4512.1 4093.52 4510.25 4092.29 4508.64C4091.06 4507.03 4089.5 4505.69 4087.72 4504.72C4076.94 4499.11 4057.43 4509.46 4049.67 4517.12C4049.02 4517.77 4041.47 4527.25 4040.18 4529.09C4040.22 4528.48 4040.22 4527.86 4040.18 4527.25C4043.42 4516.17 4047.6 4505.39 4052.68 4495.02C4055.49 4489.63 4058.4 4484.24 4061.42 4479.71C4070.17 4484.37 4079.59 4487.68 4089.34 4489.52C4093.72 4489.99 4098.15 4489.5 4102.32 4488.09C4106.49 4486.67 4110.3 4484.36 4113.49 4481.33C4114.85 4479.79 4115.88 4477.99 4116.49 4476.04C4117.11 4474.09 4117.31 4472.02 4117.07 4469.99C4116.84 4467.95 4116.18 4465.99 4115.13 4464.23C4114.09 4462.47 4112.68 4460.94 4111.01 4459.76C4100.77 4453.08 4080.28 4461.16 4071.77 4467.96C4071.23 4467.96 4066.92 4472.59 4063.9 4475.83C4065.19 4473.67 4066.59 4471.41 4067.99 4469.36C4073.06 4461.6 4078.24 4454.91 4082.87 4448.98C4085.57 4445.53 4088.05 4442.62 4090.31 4439.82C4100.2 4439.95 4110.05 4438.57 4119.53 4435.72C4123.63 4434.11 4127.34 4431.62 4130.39 4428.44C4133.44 4425.26 4135.77 4421.45 4137.21 4417.28C4137.7 4415.31 4137.76 4413.25 4137.4 4411.25C4137.04 4409.24 4136.25 4407.34 4135.1 4405.66C4133.95 4403.98 4132.46 4402.56 4130.72 4401.5C4128.99 4400.44 4127.05 4399.76 4125.03 4399.5C4112.84 4398.2 4098.4 4414.8 4093.98 4424.83C4093.98 4425.69 4089.12 4439.82 4089.34 4439.82L4082.01 4448.44C4077.16 4454.26 4071.87 4460.95 4066.59 4468.6C4060.75 4476.71 4055.42 4485.17 4050.64 4493.94C4045.19 4503.77 4040.61 4514.05 4036.94 4524.67C4036.94 4521 4036.94 4510.97 4036.94 4510.22C4035.54 4499.44 4026.16 4479.28 4014.41 4477.01C4012.4 4476.71 4010.34 4476.83 4008.38 4477.37C4006.42 4477.91 4004.59 4478.86 4003.01 4480.15C4001.44 4481.44 4000.15 4483.04 3999.24 4484.86C3998.32 4486.68 3997.8 4488.67 3997.7 4490.71C3997.84 4495.11 3998.96 4499.42 4000.98 4503.33C4002.99 4507.25 4005.85 4510.67 4009.34 4513.35C4017.77 4518.9 4027.01 4523.12 4036.73 4525.85C4033.33 4536.77 4030.62 4547.9 4028.64 4559.17C4027.56 4565.64 4026.59 4572.32 4025.62 4579C4025.62 4575.88 4025.62 4573.07 4025.62 4572.75C4024.22 4561.97 4014.84 4541.7 4003.09 4539.54C4001.08 4539.22 3999.03 4539.33 3997.07 4539.86C3995.1 4540.38 3993.27 4541.32 3991.7 4542.6C3990.12 4543.88 3988.83 4545.48 3987.91 4547.3C3987 4549.11 3986.48 4551.1 3986.38 4553.13C3986.52 4557.53 3987.64 4561.84 3989.66 4565.76C3991.67 4569.67 3994.53 4573.09 3998.02 4575.77C4006.18 4581.28 4015.17 4585.43 4024.65 4588.06C4024.65 4590.65 4023.9 4593.23 4023.68 4595.71C4022.17 4608.01 4020.77 4620.3 4019.05 4632.26C4018.4 4636.47 4017.64 4640.67 4016.89 4644.77C4016.89 4642.07 4016.89 4639.7 4016.89 4639.38C4015.49 4628.6 4006.11 4608.44 3994.36 4606.17C3992.35 4605.85 3990.3 4605.96 3988.34 4606.48C3986.37 4607.01 3984.54 4607.95 3982.96 4609.23C3981.39 4610.51 3980.1 4612.11 3979.18 4613.93C3978.27 4615.74 3977.74 4617.73 3977.65 4619.76C3977.81 4624.17 3978.93 4628.49 3980.94 4632.42C3982.95 4636.35 3985.8 4639.8 3989.29 4642.51C3997.21 4647.79 4005.9 4651.83 4015.06 4654.47C4014.2 4658.68 4013.33 4662.88 4012.25 4666.98C4011.18 4671.08 4010.96 4672.48 4009.99 4675.17L4007.4 4683.15C4005.57 4688.22 4003.63 4693.93 4001.8 4698.35C3999.96 4702.77 3999.1 4704.93 3997.81 4708.27C3998.45 4704.07 3999.64 4695.76 3999.64 4695.12C3999.51 4685.49 3996.91 4676.07 3992.09 4667.73C3992.2 4666.66 3992.2 4665.57 3992.09 4664.5C3991.85 4662.48 3991.17 4660.54 3990.12 4658.8C3989.07 4657.06 3987.67 4655.56 3986 4654.4C3984.33 4653.24 3982.44 4652.45 3980.44 4652.07C3978.44 4651.69 3976.39 4651.74 3974.41 4652.21C3962.55 4655.44 3955.11 4676.14 3954.47 4687.03C3954.47 4687.68 3954.47 4694.69 3955.22 4699.11C3955.22 4696.63 3954.14 4694.04 3953.5 4691.45C3952.2 4686.17 3950.8 4680.67 3949.4 4675.5C3948.54 4672.8 3947.67 4670.11 3946.92 4667.3C3946.17 4664.5 3944.98 4661.91 3944.01 4659.11C3941.74 4652.64 3939.05 4646.28 3936.14 4639.92C3945.7 4637.98 3954.9 4634.56 3963.42 4629.78C3967.05 4627.35 3970.12 4624.16 3972.43 4620.45C3974.73 4616.73 3976.22 4612.56 3976.78 4608.22C3976.84 4606.19 3976.46 4604.18 3975.68 4602.3C3974.9 4600.43 3973.74 4598.74 3972.26 4597.35C3970.79 4595.95 3969.04 4594.89 3967.12 4594.22C3965.21 4593.54 3963.17 4593.28 3961.15 4593.45C3948.97 4594.74 3938.4 4614.15 3936.14 4624.82C3936.14 4625.47 3935.28 4633.34 3934.95 4637.65C3933.23 4633.88 3931.5 4630 3929.67 4626.23C3924.17 4615.44 3918.89 4604.66 3912.64 4593.88C3910.8 4590.54 3909.08 4587.2 3907.35 4583.86C3917.27 4581.74 3926.8 4578.11 3935.6 4573.07C3939.25 4570.66 3942.33 4567.49 3944.62 4563.76C3946.91 4560.04 3948.36 4555.86 3948.86 4551.51C3948.93 4549.47 3948.56 4547.45 3947.79 4545.56C3947.02 4543.67 3945.86 4541.97 3944.38 4540.57C3942.9 4539.16 3941.15 4538.08 3939.23 4537.41C3937.3 4536.73 3935.26 4536.46 3933.23 4536.63C3921.15 4537.93 3910.59 4557.33 3908.32 4568.01C3908.32 4568.87 3907.14 4580.19 3907.03 4582.99C3903.26 4575.66 3899.48 4568.33 3896.25 4560.89C3891.63 4550.83 3887.64 4540.5 3884.28 4529.95C3894.26 4527.83 3903.86 4524.19 3912.74 4519.17C3916.39 4516.76 3919.47 4513.58 3921.76 4509.85C3924.05 4506.13 3925.5 4501.95 3926 4497.6C3926.07 4495.57 3925.71 4493.54 3924.94 4491.65C3924.16 4489.77 3923 4488.06 3921.52 4486.66C3920.05 4485.25 3918.29 4484.18 3916.37 4483.5C3914.45 4482.82 3912.4 4482.56 3910.37 4482.73C3898.3 4484.02 3887.73 4503.43 3885.47 4514.1C3885.47 4514.96 3884.17 4527.15 3884.17 4529.41L3883.53 4527.47C3880.55 4516.88 3878.5 4506.06 3877.38 4495.13C3876.63 4489.09 3876.41 4483.27 3876.19 4477.55C3886.07 4476.66 3895.75 4474.22 3904.87 4470.33C3908.8 4468.32 3912.23 4465.47 3914.93 4461.99C3917.63 4458.5 3919.54 4454.47 3920.51 4450.17C3920.78 4448.16 3920.63 4446.11 3920.06 4444.17C3919.49 4442.22 3918.52 4440.42 3917.21 4438.87C3915.89 4437.33 3914.27 4436.07 3912.44 4435.2C3910.62 4434.32 3908.62 4433.84 3906.6 4433.78C3894.31 4433.78 3881.69 4451.78 3878.35 4462.24C3878.35 4462.78 3876.95 4468.71 3876.09 4473.02C3876.09 4470.54 3876.09 4467.85 3876.09 4465.37C3876.09 4456.1 3876.73 4447.69 3877.27 4440.14C3877.27 4435.94 3878.03 4432.05 3878.46 4428.5C3886.75 4423.08 3894.2 4416.47 3900.56 4408.88C3903.07 4405.28 3904.77 4401.18 3905.55 4396.86C3906.33 4392.55 3906.18 4388.11 3905.09 4383.86C3904.41 4381.94 3903.34 4380.19 3901.94 4378.71C3900.53 4377.23 3898.83 4376.07 3896.95 4375.3C3895.07 4374.52 3893.04 4374.16 3891.01 4374.22C3888.97 4374.28 3886.97 4374.78 3885.14 4375.67C3874.36 4381.27 3871.45 4403.16 3873.18 4413.94C3873.18 4414.8 3877.49 4429.14 3877.7 4429.04C3877.16 4432.49 3876.73 4436.26 3876.3 4439.82C3875.55 4447.36 3874.79 4455.88 3874.58 4465.15C3874.21 4475.15 3874.43 4485.16 3875.22 4495.13C3876.09 4506.31 3877.96 4517.38 3880.83 4528.22V4528.22C3878.89 4525.2 3873.28 4516.9 3872.74 4516.36C3865.63 4508.06 3846.87 4496.31 3835.66 4501.06C3833.81 4501.9 3832.16 4503.13 3830.82 4504.66C3829.47 4506.18 3828.46 4507.98 3827.85 4509.92C3827.24 4511.86 3827.05 4513.9 3827.28 4515.92C3827.51 4517.94 3828.16 4519.89 3829.19 4521.65C3831.74 4525.27 3835.04 4528.29 3838.88 4530.51C3842.71 4532.72 3846.99 4534.08 3851.4 4534.48V4534.48Z" fill="#263238"/>
<path d="M4061.31 4477.01C4061.31 4477.01 4065.19 4462.67 4065.3 4461.81C4066.81 4451.03 4063.36 4429.47 4052.36 4423.86C4050.5 4423.02 4048.49 4422.58 4046.45 4422.57C4044.42 4422.56 4042.4 4422.98 4040.54 4423.8C4038.67 4424.63 4037.01 4425.84 4035.64 4427.35C4034.28 4428.87 4033.25 4430.65 4032.63 4432.59C4031.64 4436.88 4031.59 4441.33 4032.51 4445.63C4033.42 4449.94 4035.26 4453.99 4037.91 4457.5C4044.7 4465.13 4052.58 4471.71 4061.31 4477.01V4477.01Z" fill="#263238"/>
<path d="M771.832 4472.27C781.717 4474.83 791.921 4475.96 802.127 4475.61C802.127 4475.61 797.491 4461.59 797.168 4460.73C792.424 4450.81 777.546 4434.53 764.824 4436.15C762.852 4436.54 760.981 4437.33 759.329 4438.47C757.678 4439.62 756.281 4441.09 755.228 4442.81C754.175 4444.52 753.487 4446.43 753.209 4448.42C752.931 4450.41 753.068 4452.44 753.612 4454.37C755.181 4458.49 757.622 4462.22 760.767 4465.31C763.911 4468.4 767.686 4470.77 771.832 4472.27V4472.27Z" fill="#263238"/>
<path d="M779.271 4534.48C789.41 4534.43 799.481 4532.83 809.135 4529.73C812.237 4540.77 816.092 4551.57 820.671 4562.08C823.366 4568.11 826.17 4574.26 829.081 4580.3L825.523 4575.12C818.407 4566.93 799.755 4555.07 788.435 4559.92C786.585 4560.77 784.935 4562 783.592 4563.53C782.25 4565.05 781.245 4566.85 780.645 4568.79C780.044 4570.74 779.861 4572.79 780.108 4574.81C780.354 4576.83 781.024 4578.77 782.074 4580.51C784.635 4584.09 787.954 4587.05 791.793 4589.2C795.632 4591.34 799.897 4592.61 804.284 4592.91C814.091 4593.01 823.849 4591.52 833.177 4588.49L836.627 4595.39C842.126 4606.17 847.409 4617.49 852.907 4628.49C854.74 4632.37 856.357 4636.14 858.082 4640.03L854.956 4635.61C847.732 4627.3 829.081 4615.55 817.868 4620.4C816.009 4621.24 814.348 4622.46 812.994 4623.99C811.64 4625.51 810.625 4627.3 810.014 4629.25C809.403 4631.19 809.21 4633.25 809.449 4635.27C809.688 4637.3 810.352 4639.25 811.399 4641C813.986 4644.54 817.311 4647.49 821.145 4649.63C824.979 4651.77 829.231 4653.05 833.609 4653.39C843.151 4653.48 852.647 4652.06 861.748 4649.19C863.365 4653.18 864.982 4657.28 866.276 4661.16C867.57 4665.04 868.217 4666.44 868.971 4669.24L871.235 4677.44C872.421 4682.61 873.823 4688.22 874.901 4693.18C875.656 4696.74 876.303 4700.08 877.057 4703.96C875.332 4700.08 871.667 4692.64 871.343 4691.99C865.521 4682.83 848.81 4668.27 836.951 4671.4C834.998 4671.95 833.183 4672.9 831.624 4674.2C830.065 4675.5 828.796 4677.11 827.901 4678.93C827.006 4680.75 826.505 4682.74 826.429 4684.77C826.354 4686.8 826.706 4688.82 827.463 4690.7C829.479 4694.61 832.313 4698.04 835.774 4700.75C839.234 4703.47 843.239 4705.41 847.517 4706.44C857.451 4707.94 867.554 4707.94 877.488 4706.44C878.674 4712.15 879.753 4717.22 880.615 4722.93C882.556 4733.72 883.957 4743.2 885.143 4751.5H893.121C891.72 4742.88 889.995 4732.75 887.731 4721.53C886.653 4715.82 885.359 4709.67 883.849 4703.31C889.632 4701.08 895.252 4698.45 900.668 4695.44C908.038 4701.63 916.24 4706.74 925.034 4710.64L918.565 4726.06C914.468 4735.44 910.587 4743.74 907.137 4750.97H915.762C918.673 4744.39 921.907 4737.06 925.142 4729.4C927.406 4723.9 929.67 4718.08 932.042 4712.05C941.824 4714.31 951.894 4715.07 961.906 4714.31C966.327 4713.71 970.558 4712.14 974.289 4709.69C978.021 4707.25 981.157 4704 983.468 4700.19C984.382 4698.36 984.9 4696.37 984.988 4694.33C985.076 4692.3 984.731 4690.26 983.978 4688.37C983.224 4686.48 982.078 4684.76 980.616 4683.34C979.153 4681.92 977.406 4680.83 975.49 4680.13C963.954 4676.25 946.273 4689.4 939.697 4698.25C939.697 4698.78 935.815 4704.82 933.659 4709.03L936.462 4701.59C938.295 4696.52 940.02 4691.45 941.853 4686.06C942.607 4683.37 943.47 4680.67 944.225 4677.87C944.979 4675.07 945.734 4672.26 946.381 4669.46C947.998 4662.77 949.292 4655.98 950.37 4649.19C959.459 4652.83 969.064 4655.01 978.833 4655.66C983.23 4655.64 987.572 4654.67 991.556 4652.81C995.541 4650.95 999.072 4648.24 1001.9 4644.88C1003.07 4643.21 1003.86 4641.32 1004.25 4639.32C1004.63 4637.33 1004.6 4635.27 1004.14 4633.29C1003.68 4631.31 1002.82 4629.45 1001.6 4627.82C1000.38 4626.2 998.828 4624.84 997.053 4623.85C986.272 4618.25 966.65 4628.6 958.887 4636.36L950.801 4646.39C951.448 4642.29 952.095 4638.19 952.634 4633.99C954.143 4621.81 955.329 4609.52 956.515 4597.22C956.515 4593.45 957.27 4589.68 957.701 4586.44C967.061 4590.24 976.954 4592.57 987.026 4593.34C991.425 4593.34 995.769 4592.37 999.755 4590.5C1003.74 4588.64 1007.27 4585.93 1010.1 4582.56C1011.28 4580.9 1012.09 4579.01 1012.48 4577.01C1012.88 4575.01 1012.84 4572.95 1012.39 4570.96C1011.93 4568.98 1011.06 4567.11 1009.82 4565.49C1008.59 4563.86 1007.03 4562.52 1005.25 4561.54C994.465 4555.93 974.844 4566.28 967.081 4573.94C966.542 4574.58 959.426 4583.42 957.809 4585.8C958.672 4577.49 959.534 4569.3 960.828 4561.22C962.501 4550.29 964.878 4539.49 967.943 4528.87C977.338 4532.7 987.265 4535.06 997.376 4535.88C1001.78 4535.88 1006.12 4534.91 1010.11 4533.05C1014.1 4531.19 1017.63 4528.47 1020.45 4525.1C1021.62 4523.44 1022.44 4521.56 1022.83 4519.57C1023.22 4517.58 1023.19 4515.52 1022.73 4513.55C1022.27 4511.57 1021.4 4509.71 1020.17 4508.1C1018.94 4506.48 1017.38 4505.15 1015.6 4504.18C1004.82 4498.58 985.193 4508.93 977.539 4516.58C976.892 4517.23 969.237 4526.71 968.051 4528.55C967.99 4527.94 967.99 4527.32 968.051 4526.71C971.388 4516.14 975.683 4505.89 980.881 4496.1C983.684 4490.71 986.595 4485.31 989.614 4480.79C998.365 4485.47 1007.78 4488.77 1017.54 4490.6C1021.92 4491.07 1026.35 4490.58 1030.52 4489.17C1034.69 4487.75 1038.5 4485.44 1041.69 4482.4C1043.04 4480.87 1044.06 4479.06 1044.67 4477.1C1045.28 4475.14 1045.47 4473.08 1045.22 4471.04C1044.98 4469.01 1044.31 4467.05 1043.25 4465.29C1042.2 4463.53 1040.78 4462.01 1039.1 4460.84C1028.97 4454.16 1008.48 4462.24 999.856 4469.03L991.986 4476.91L996.19 4470.44C1001.26 4462.67 1006.97 4455.99 1011.07 4450.06C1013.76 4446.61 1016.14 4443.7 1018.51 4440.9C1028.4 4441.03 1038.25 4439.65 1047.72 4436.8C1051.82 4435.19 1055.51 4432.7 1058.54 4429.52C1061.58 4426.33 1063.88 4422.53 1065.3 4418.36C1065.79 4416.39 1065.85 4414.35 1065.5 4412.35C1065.14 4410.35 1064.37 4408.45 1063.23 4406.78C1062.09 4405.1 1060.61 4403.68 1058.89 4402.61C1057.16 4401.54 1055.23 4400.85 1053.22 4400.57C1041.04 4399.28 1026.59 4415.88 1022.17 4425.91C1022.17 4426.77 1017.32 4440.9 1017.54 4440.9L1010.21 4449.52C1005.46 4455.34 1000.18 4462.03 994.897 4469.68C989.053 4477.79 983.724 4486.25 978.94 4495.02C973.455 4504.82 968.872 4515.11 965.248 4525.74C965.248 4525.74 965.248 4525.74 965.248 4525.74C965.248 4522.08 965.248 4512.05 965.248 4511.3C963.847 4500.52 954.467 4480.36 942.715 4478.09C940.704 4477.8 938.656 4477.94 936.7 4478.48C934.743 4479.03 932.922 4479.98 931.351 4481.27C929.78 4482.55 928.493 4484.15 927.573 4485.96C926.652 4487.77 926.118 4489.76 926.004 4491.78C926.2 4496.17 927.342 4500.47 929.352 4504.38C931.361 4508.28 934.191 4511.71 937.648 4514.42C946.123 4519.97 955.394 4524.18 965.14 4526.93C961.687 4537.84 958.986 4548.97 957.054 4560.24C955.868 4566.71 954.898 4573.4 954.036 4580.08C954.036 4576.96 954.036 4574.15 954.036 4573.83C952.526 4563.05 943.254 4542.78 931.503 4540.62C929.496 4540.3 927.443 4540.41 925.48 4540.93C923.517 4541.46 921.687 4542.4 920.11 4543.68C918.532 4544.96 917.244 4546.56 916.327 4548.38C915.411 4550.19 914.888 4552.18 914.792 4554.21C914.937 4558.61 916.056 4562.92 918.07 4566.84C920.083 4570.75 922.941 4574.17 926.436 4576.85C934.563 4582.34 943.517 4586.49 952.957 4589.14L951.987 4596.79C950.586 4609.08 949.184 4621.37 947.351 4633.34C947.351 4637.55 946.057 4641.75 945.303 4645.85C945.303 4643.15 945.303 4640.78 945.303 4640.46C943.901 4629.68 934.522 4609.52 922.77 4607.25C920.768 4606.93 918.721 4607.04 916.764 4607.56C914.807 4608.09 912.983 4609.03 911.414 4610.31C909.845 4611.59 908.566 4613.2 907.662 4615.01C906.757 4616.82 906.248 4618.81 906.167 4620.84C906.327 4625.24 907.442 4629.55 909.434 4633.48C911.426 4637.41 914.247 4640.85 917.703 4643.58C925.674 4648.86 934.398 4652.89 943.578 4655.55C942.715 4659.76 941.853 4663.96 940.775 4668.06C939.696 4672.15 939.373 4673.56 938.511 4676.25C937.648 4678.95 936.678 4681.64 935.923 4684.23C933.982 4689.3 932.15 4695.01 930.209 4699.43C928.268 4703.85 927.621 4706.01 926.328 4709.35C926.975 4705.15 928.161 4696.84 928.161 4696.2C927.972 4686.58 925.377 4677.17 920.614 4668.81C920.614 4667.73 920.614 4666.66 920.614 4665.58C920.349 4663.57 919.668 4661.64 918.614 4659.9C917.559 4658.17 916.155 4656.68 914.49 4655.52C912.826 4654.37 910.938 4653.57 908.948 4653.18C906.957 4652.8 904.908 4652.83 902.932 4653.29C891.073 4656.52 883.526 4677.22 882.987 4688.11C882.987 4688.76 882.987 4695.77 883.742 4700.19C883.095 4697.71 882.556 4695.12 881.909 4692.53C880.723 4687.25 879.321 4681.75 877.812 4676.57C877.057 4673.88 876.195 4671.18 875.44 4668.38C874.685 4665.58 873.499 4662.99 872.529 4660.19C870.157 4653.72 867.57 4647.36 864.659 4641C874.222 4639.05 883.424 4635.64 891.935 4630.86C895.575 4628.44 898.646 4625.26 900.935 4621.54C903.225 4617.82 904.679 4613.64 905.196 4609.3C905.266 4607.27 904.902 4605.24 904.129 4603.36C903.356 4601.48 902.192 4599.78 900.713 4598.39C899.235 4596.99 897.476 4595.92 895.553 4595.26C893.631 4594.59 891.589 4594.34 889.564 4594.53C877.381 4595.82 866.923 4615.23 864.659 4625.9C864.659 4626.55 863.796 4634.42 863.473 4638.73C861.748 4634.96 860.023 4631.08 858.19 4627.3C852.692 4616.52 847.409 4605.74 841.048 4594.96L835.873 4584.93C845.784 4582.8 855.31 4579.17 864.12 4574.15C867.769 4571.74 870.848 4568.56 873.138 4564.84C875.429 4561.11 876.877 4556.93 877.381 4552.59C877.449 4550.55 877.084 4548.52 876.312 4546.64C875.54 4544.75 874.378 4543.05 872.902 4541.64C871.425 4540.24 869.668 4539.16 867.745 4538.48C865.823 4537.81 863.779 4537.54 861.748 4537.71C849.565 4539.01 838.999 4558.41 836.843 4569.09C836.843 4569.95 835.657 4581.27 835.549 4584.07C831.668 4576.74 828.002 4569.41 824.768 4561.97C820.109 4551.93 816.111 4541.59 812.801 4531.03C822.783 4528.91 832.382 4525.27 841.263 4520.25C844.913 4517.84 847.991 4514.66 850.282 4510.93C852.573 4507.21 854.021 4503.03 854.524 4498.68C854.592 4496.65 854.228 4494.62 853.456 4492.73C852.684 4490.84 851.522 4489.14 850.045 4487.74C848.569 4486.33 846.812 4485.26 844.889 4484.58C842.967 4483.9 840.923 4483.64 838.892 4483.81C826.709 4485.1 816.143 4504.51 813.987 4515.18C813.987 4516.04 812.693 4528.22 812.693 4530.49L812.046 4528.55C809.022 4517.97 806.965 4507.15 805.901 4496.2C805.195 4490.37 804.799 4484.51 804.715 4478.63C814.591 4477.72 824.266 4475.29 833.393 4471.41C837.317 4469.4 840.751 4466.55 843.453 4463.07C846.154 4459.58 848.057 4455.55 849.026 4451.25C849.299 4449.24 849.146 4447.19 848.578 4445.25C848.009 4443.3 847.037 4441.5 845.726 4439.95C844.414 4438.41 842.791 4437.15 840.964 4436.28C839.136 4435.4 837.145 4434.92 835.118 4434.86C822.827 4434.86 810.213 4452.86 806.871 4463.32C806.871 4463.86 805.47 4469.79 804.607 4474.1C804.607 4471.62 804.607 4468.93 804.607 4466.45C804.607 4457.18 805.254 4448.77 805.793 4441.22C805.793 4437.01 806.548 4433.13 806.979 4429.58C815.084 4424.12 822.348 4417.51 828.541 4409.95C831.05 4406.35 832.753 4402.26 833.534 4397.94C834.316 4393.62 834.157 4389.19 833.07 4384.94C832.393 4383.02 831.319 4381.26 829.917 4379.79C828.514 4378.31 826.816 4377.15 824.933 4376.38C823.049 4375.6 821.024 4375.24 818.989 4375.3C816.954 4375.36 814.955 4375.86 813.124 4376.75C802.343 4382.35 799.324 4404.24 801.157 4415.02C801.157 4415.88 805.47 4430.22 805.577 4430.11C805.577 4433.56 804.715 4437.34 804.284 4440.9C803.529 4448.44 802.774 4456.96 802.559 4466.23C802.142 4476.23 802.358 4486.24 803.205 4496.2C804.066 4507.38 805.943 4518.46 808.812 4529.3C806.871 4526.28 801.157 4517.98 800.726 4517.44C793.502 4509.14 774.851 4497.39 763.638 4502.13C761.779 4502.97 760.118 4504.19 758.764 4505.72C757.411 4507.24 756.395 4509.03 755.784 4510.98C755.173 4512.92 754.98 4514.98 755.219 4517C755.458 4519.02 756.123 4520.98 757.169 4522.73C759.813 4526.14 763.15 4528.95 766.96 4530.97C770.769 4533 774.966 4534.19 779.271 4534.48V4534.48Z" fill="#263238"/>
<path d="M989.075 4477.01C989.075 4477.01 993.064 4462.67 993.172 4461.81C994.681 4451.03 991.231 4429.47 980.234 4423.86C978.379 4423.02 976.366 4422.58 974.329 4422.57C972.291 4422.56 970.274 4422.98 968.411 4423.8C966.548 4424.63 964.88 4425.84 963.517 4427.35C962.155 4428.87 961.128 4430.65 960.504 4432.59C959.495 4436.87 959.436 4441.32 960.33 4445.62C961.224 4449.92 963.05 4453.98 965.679 4457.5C972.515 4465.08 980.392 4471.65 989.075 4477.01V4477.01Z" fill="#263238"/>
<path d="M1084.06 3276.73C1084.06 3276.73 1504.53 3035.34 1978.26 3031.67C2089.83 2870.78 2149.67 2679.68 2149.79 2483.88C2149.79 1929.07 1674.87 1479.28 1089.02 1479.28C503.162 1479.28 28.247 1929.07 28.247 2484.2C28.3522 2681.48 89.099 2873.96 202.257 3035.56C393.517 3053.78 892.151 3115.01 1084.06 3276.73Z" fill="#92E3A9"/>
<path opacity="0.3" d="M1084.06 3276.73C1084.06 3276.73 1504.53 3035.34 1978.26 3031.67C2089.83 2870.78 2149.67 2679.68 2149.79 2483.88C2149.79 1929.07 1674.87 1479.28 1089.02 1479.28C503.162 1479.28 28.247 1929.07 28.247 2484.2C28.3522 2681.48 89.099 2873.96 202.257 3035.56C393.517 3053.78 892.151 3115.01 1084.06 3276.73Z" fill="white"/>
<path d="M1639.08 2771.09C1610.29 2799.88 1555.74 2817.02 1473.8 2851.52C1479.99 2844 1485.69 2836.07 1490.84 2827.8C1525.66 2771.09 1573.64 2666.08 1573.64 2666.08C1573.64 2666.08 1468.95 2783.92 1442.86 2827.8C1429.18 2848.62 1413.63 2868.14 1396.39 2886.13L1373 2897.56C1233.49 2967.42 1168.15 2984.88 1168.15 2984.88C1168.15 2984.88 1172.57 2906.29 1172.57 2884.51C1176.49 2823.7 1192.82 2764.33 1220.55 2710.07C1259.79 2631.58 1333.86 2561.72 1377.52 2452.72C1404.14 2383.11 1417.45 2309.13 1416.77 2234.61L1395.21 2308.79C1395.21 2308.79 1360.27 2413.48 1321.03 2470.51C1281.79 2527.54 1216.34 2614.44 1168.37 2688.61C1125.24 2755.46 1103.68 2871.9 1099.26 2894.21C1100.78 2884.95 1098.99 2875.44 1094.19 2867.37C1085.46 2854.32 1063.68 2775.83 1051.07 2745.32C1045.14 2732.54 1037.92 2720.4 1029.5 2709.1C1023.55 2666.44 1013.25 2624.5 998.778 2583.93L1001.58 2672.98C988.859 2656.81 974.412 2638.8 958.456 2618.43C915.331 2561.72 871.235 2461.45 871.235 2491.96C871.235 2522.47 914.36 2583.6 980.342 2692.6C1046.32 2801.6 1041.36 2884.51 1041.36 2884.51C1041.36 2884.51 1006.43 2827.8 919.212 2766.78C831.991 2705.76 757.493 2683.87 640.085 2596.65C522.676 2509.43 469.956 2356.77 469.956 2356.77C477.673 2409.14 495.467 2459.52 522.353 2505.12C548.552 2548.24 653.13 2688.4 805.793 2758.05C958.456 2827.69 993.387 2945.53 993.387 3050.22C993.808 3117.57 998.743 3184.81 1008.16 3251.5L948.321 4748.05H1220.44L1163.3 3311.77C1163.3 3236.3 1168.04 3101.64 1198.88 3067.68C1242 3019.71 1351.54 2954.26 1421.3 2915.02C1491.05 2875.78 1595.85 2849.58 1639.4 2801.6C1672.38 2762.28 1701.59 2719.94 1726.62 2675.14C1726.62 2675.14 1678.32 2731.85 1639.08 2771.09Z" fill="#263238"/>
<path d="M3832.21 3509.29C3832.21 3509.29 4186.48 3305.95 4585.39 3302.82C4679.37 3167.33 4729.77 3006.39 4729.86 2841.49C4729.86 2374.34 4329.87 1995.49 3836.52 1995.49C3343.17 1995.49 2943.07 2374.34 2943.07 2841.49C2943.2 3007.68 2994.38 3169.81 3089.7 3305.95C3250.77 3321.26 3670.7 3373.12 3832.21 3509.29Z" fill="#92E3A9"/>
<path opacity="0.3" d="M3832.21 3509.29C3832.21 3509.29 4186.48 3305.95 4585.39 3302.82C4679.37 3167.33 4729.77 3006.39 4729.86 2841.49C4729.86 2374.34 4329.87 1995.49 3836.52 1995.49C3343.17 1995.49 2943.07 2374.34 2943.07 2841.49C2943.2 3007.68 2994.38 3169.81 3089.7 3305.95C3250.77 3321.26 3670.7 3373.12 3832.21 3509.29Z" fill="white"/>
<path d="M3544.56 3180.89C3492.6 3160.51 3455.51 3153.07 3386.94 3128.92C3344.35 3113.95 3303.33 3094.84 3264.46 3071.89C3264.46 3071.89 3342.41 3101.54 3392.44 3115.01C3442.46 3128.49 3501.87 3147.36 3501.87 3147.36C3479.21 3130.12 3457.61 3111.55 3437.18 3091.73C3409.36 3063.91 3368.61 2993.51 3368.61 2993.51C3368.61 2993.51 3416.8 3058.2 3457.56 3086.23C3498.31 3114.26 3611.51 3164.07 3700.57 3221.64C3752.1 3253.58 3793.81 3299.14 3821.1 3353.28C3823.09 3305.64 3821.86 3257.91 3817.44 3210.43C3810 3145.74 3804.39 3002.78 3804.39 3002.78C3804.39 3002.78 3772.91 2930.44 3746.93 2897.02C3720.94 2863.6 3643.1 2861.76 3594.8 2828.45C3546.5 2795.13 3466.83 2741.23 3466.83 2741.23C3466.83 2741.23 3568.82 2796.86 3635.66 2817.24C3670.58 2826.71 3703.74 2841.75 3733.88 2861.76C3733.88 2861.76 3690.76 2783.92 3665.31 2752.33C3639.87 2720.74 3570.76 2633.74 3570.76 2633.74C3570.76 2633.74 3644.94 2708.02 3674.58 2746.94C3704.23 2785.86 3758.03 2854.75 3758.03 2854.75C3764.87 2826.56 3776.15 2799.62 3791.45 2774.97C3817.44 2731.85 3863.8 2535.74 3863.8 2535.74C3863.8 2535.74 3847.08 2678.48 3820.67 2745.32C3794.26 2812.17 3776.14 2871.36 3776.14 2871.36L3817 2956.75C3817 2956.75 3818.84 2934.43 3854.09 2895.51C3889.35 2856.59 3924.49 2834.27 3978.29 2791.68C4032.09 2749.1 4128.58 2624.68 4128.58 2624.68C4128.58 2624.68 4096.99 2676.65 4054.3 2732.49C4011.61 2788.34 3924.93 2853.03 3924.93 2853.03C3924.93 2853.03 4002.87 2838.26 4025.08 2830.82C4047.29 2823.38 4077.05 2806.67 4119.74 2775.19C4162.44 2743.71 4240.28 2654.65 4240.28 2654.65C4240.28 2654.65 4217.96 2691.74 4201.25 2715.78C4184.54 2739.83 4123.41 2799.23 4051.07 2841.92C3978.72 2884.62 3926.87 2847.53 3882.34 2916.1C3837.81 2984.67 3850.75 3138.63 3882.34 3253.66C3900.67 3320.51 3913.28 3360.4 3920.72 3382.07C3933.75 3364.06 3949.58 3348.26 3967.62 3335.28C3985.62 3323.96 4006.97 3311.13 4029.72 3298.62C4033.28 3264.12 4048.05 3180.03 4075.22 3140.57C4106.7 3094.21 4147.56 3047.85 4167.94 3012.59C4188.31 2977.34 4197.58 2883.22 4197.58 2883.22C4197.58 2883.22 4195.75 2916.53 4193.92 2974C4192.09 3031.46 4158.66 3057.55 4106.7 3139.06C4078.59 3182.79 4061.57 3232.71 4057.1 3284.5C4070.47 3277.7 4084.06 3271.13 4097.43 3265.2C4143.79 3244.82 4195.75 3228.11 4264.32 3200.51C4332.89 3172.91 4427.55 3063.26 4427.55 3063.26C4427.55 3063.26 4414.61 3106.39 4331.16 3174.53C4247.72 3242.66 4208.69 3246.87 4117.8 3285.79C4026.92 3324.71 3991.77 3356.3 3958.35 3406.43C3941.6 3431.42 3929.78 3459.38 3923.52 3488.8L3973.87 4749.13H3744.77L3797.17 3438.24C3790.37 3389.61 3760.83 3354.04 3720.73 3298.84C3676.2 3237.6 3648.39 3243.2 3592.75 3248.7C3537.12 3254.2 3440.74 3259.48 3440.74 3259.48C3440.74 3259.48 3546.39 3246.44 3579.82 3229.73C3613.24 3213.02 3631.67 3227.89 3624.34 3222.4C3599.84 3204.87 3572.98 3190.9 3544.56 3180.89V3180.89Z" fill="#263238"/>
<path d="M2481.42 2635.68C2481.42 2635.68 3085.17 2289.06 3765.58 2283.78C3925.93 2052.64 4011.88 1778.06 4011.93 1496.74C4011.93 700.007 3330.34 54.5317 2488.64 54.5317C1646.95 54.5317 965.356 700.007 965.356 1497.17C965.511 1780.48 1052.75 2056.89 1215.27 2288.95C1489.97 2315.04 2205.96 2403.45 2481.42 2635.68Z" fill="#92E3A9"/>
<path d="M3018.65 2075.81C3107.16 2040.98 3170.45 2028.37 3287.43 1987.29C3360.02 1961.43 3429.92 1928.57 3496.15 1889.18C3496.15 1889.18 3363.33 1939.85 3277.94 1961.96C3192.55 1984.06 3091.42 2018.88 3091.42 2018.88C3130.16 1989.49 3167.09 1957.81 3202.04 1924.01C3249.48 1876.57 3319.56 1756.57 3319.56 1756.57C3319.56 1756.57 3237.3 1867.3 3167.76 1914.73C3098.22 1962.17 2904.8 2047.67 2753 2145.35C2601.2 2243.02 2547.51 2369.92 2547.51 2369.92C2544.17 2288.68 2546.37 2207.31 2554.09 2126.37C2566.48 2015.32 2575.65 1772.21 2575.65 1772.21C2575.65 1772.21 2629.55 1648.87 2673.65 1591.94C2717.75 1535.02 2850.68 1531.89 2932.94 1474.97C3015.2 1418.04 3151.15 1326.29 3151.15 1326.29C3151.15 1326.29 2977.25 1421.17 2863.4 1455.67C2749.55 1490.17 2695.75 1531.14 2695.75 1531.14C2695.75 1531.14 2768.52 1398.31 2812.73 1344.51C2856.93 1290.71 2974.45 1142.15 2974.45 1142.15C2974.45 1142.15 2847.88 1269.37 2797.31 1336.1C2746.75 1402.84 2655 1519.38 2655 1519.38C2643.3 1471.32 2624.09 1425.4 2598.07 1383.32C2553.76 1310.66 2474.74 975.361 2474.74 975.361C2474.74 975.361 2503.2 1218.91 2547.51 1332.76C2591.82 1446.61 2622.98 1547.74 2622.98 1547.74L2554.09 1693.18C2554.09 1693.18 2550.96 1655.23 2490.91 1588.82C2430.86 1522.4 2370.8 1484.45 2278.62 1411.57C2186.44 1338.69 2022.46 1126.95 2022.46 1126.95C2022.46 1126.95 2076.37 1215.57 2149.03 1310.23C2221.7 1404.89 2370.8 1516.04 2370.8 1516.04C2370.8 1516.04 2237.98 1490.81 2200.03 1478.09C2162.08 1465.37 2111.51 1437.02 2038.31 1383.22C1965.1 1329.42 1832.71 1177.73 1832.71 1177.73C1832.71 1177.73 1870.66 1240.9 1899.12 1282.09C1927.59 1323.27 2031.95 1424.4 2155.29 1497.07C2278.62 1569.73 2367.25 1506.55 2443.15 1623.53C2519.05 1740.51 2497.05 2003.03 2443.15 2199.14C2411.88 2313.21 2390.21 2381.13 2377.6 2418.11C2354.85 2388.68 2325.85 2356.12 2297.6 2338.33C2266.98 2318.92 2230.54 2297.15 2191.73 2275.8C2185.58 2217.04 2160.46 2074.19 2114.21 2006.27C2060.3 1927.13 1990.87 1848.11 1956.05 1788.05C1921.22 1728 1905.48 1566.71 1905.48 1566.71C1905.48 1566.71 1908.61 1623.53 1911.84 1721.64C1915.08 1819.75 1971.9 1863.95 2060.41 2003.03C2108.31 2077.61 2137.35 2162.71 2145.04 2251C2122.29 2239.36 2099.12 2228.15 2076.26 2218.12C1997.23 2183.3 1908.61 2154.83 1791.63 2107.4C1674.66 2059.96 1513.37 1873.44 1513.37 1873.44C1513.37 1873.44 1535.47 1946.11 1677.78 2063.19C1820.1 2180.28 1886.51 2186.53 2041.44 2252.94C2196.36 2319.36 2257.06 2373.05 2313.45 2458.43C2341.93 2500.98 2362.09 2548.54 2372.85 2598.59L2286.6 4747.62H2676.99L2587.61 2512.23C2599.15 2429.43 2649.5 2368.63 2717.85 2275.04C2793.32 2170.68 2841.19 2180.17 2936.07 2189.66C3030.94 2199.14 3195.46 2208.63 3195.46 2208.63C3195.46 2208.63 3015.2 2186.53 2958.28 2158.07C2901.35 2129.6 2869.65 2154.83 2882.81 2145.35C2895.96 2135.86 2930.14 2110.63 3018.65 2075.81Z" fill="#263238"/>
<path d="M4846.83 4739.65H0" stroke="#263238" stroke-miterlimit="10"/>
<path d="M2347.41 3466.59C2347.41 3466.59 2327.46 3415.6 2307.52 3446.65C2287.57 3477.7 2314.09 3515.32 2327.46 3528.58C2338.73 3538.52 2351.41 3546.73 2365.09 3552.95L2347.41 3466.59Z" stroke="#263238" stroke-miterlimit="10"/>
<path d="M2672.68 3466.59C2672.68 3466.59 2692.63 3415.6 2712.57 3446.65C2732.52 3477.7 2705.99 3515.32 2692.62 3528.58C2681.36 3538.52 2668.68 3546.73 2655 3552.95L2672.68 3466.59Z" stroke="#263238" stroke-miterlimit="10"/>
<path d="M2849.38 3800.27C2855.02 3774.59 2864.66 3749.96 2877.96 3727.28C2900.16 3689.12 2976.28 3508.21 2976.28 3508.21C2976.28 3508.21 3049.27 3314.14 3052.5 3273.39C3055.74 3232.64 2960.43 3168.6 2896.93 3105.09C2833.43 3041.59 2573.49 2851.2 2573.49 2851.2C2573.49 2851.2 2552.9 2701.98 2552.9 2679.77C2552.9 2657.56 2530.69 2632.23 2527.56 2616.27C2524.44 2600.31 2502.12 2594.06 2502.12 2619.51C2502.32 2635.18 2506.71 2650.52 2514.84 2663.92C2519.98 2685.74 2521.83 2708.19 2520.34 2730.55C2517.21 2762.9 2510.1 2841.71 2510.1 2860.68C2510.1 2879.66 2548.16 2911.46 2548.16 2911.46C2548.16 2911.46 2691.01 3057.55 2732.19 3120.94C2773.38 3184.34 2881.4 3295.6 2881.4 3295.6L2802.05 3501.85C2782.63 3519.46 2764.6 3538.57 2748.15 3558.99C2713.22 3600.28 2681.41 3673.27 2681.41 3673.27L2605.3 3698.71L2618.02 3613C2618.02 3613 2630.63 3603.41 2649.72 3565.35C2668.8 3527.29 2671.92 3454.3 2671.92 3454.3C2676.89 3424.87 2680.06 3395.17 2681.41 3365.35C2681.41 3333.66 2691.01 3308.21 2640.23 3244.82C2597.1 3190.91 2528.1 3189.62 2506.97 3190.37C2485.84 3191.13 2416.3 3191.45 2373.61 3244.82C2322.83 3308.21 2332.42 3333.66 2332.42 3365.35C2333.78 3395.17 2336.95 3424.87 2341.91 3454.3C2341.91 3454.3 2345.04 3527.29 2364.12 3565.35C2383.2 3603.41 2395.82 3613 2395.82 3613L2408.54 3698.71L2332.42 3673.27C2332.42 3673.27 2300.62 3600.28 2265.69 3558.99C2249.23 3538.57 2231.21 3519.46 2211.78 3501.85L2132.43 3295.6C2132.43 3295.6 2240.24 3184.44 2281.64 3120.94C2323.04 3057.44 2465.68 2911.46 2465.68 2911.46C2465.68 2911.46 2503.74 2879.77 2503.74 2860.68C2503.74 2841.6 2487.89 2762.36 2484.76 2730.55C2483.27 2708.19 2485.12 2685.74 2490.26 2663.92C2492.96 2649.27 2494.3 2634.4 2494.25 2619.51C2494.25 2594.06 2480.77 2600.42 2477.65 2616.27C2474.52 2632.12 2452.2 2657.56 2452.2 2679.77C2452.2 2701.98 2440.34 2851.2 2440.34 2851.2C2440.34 2851.2 2180.08 3041.59 2116.9 3105.09C2053.73 3168.6 1957.56 3232.1 1961.12 3273.39C1964.67 3314.68 2036.58 3508.21 2036.58 3508.21C2036.58 3508.21 2112.7 3689.12 2134.91 3727.28C2148.21 3749.96 2157.85 3774.59 2163.48 3800.27C2172.99 3896.22 2187.82 3991.56 2207.9 4085.87C2236.47 4206.51 2252.43 4292.22 2252.43 4330.28C2250.51 4362.49 2245.16 4394.4 2236.47 4425.48C2236.47 4425.48 2153.99 4508.06 2109.57 4590.54C2065.15 4673.02 2026.99 4736.63 2026.99 4736.63C2026.99 4736.63 2311.4 4890.58 2496.73 4918.18V4920.66L2506.22 4919.48L2515.81 4920.66V4918.18C2701.14 4890.58 2985.55 4736.63 2985.55 4736.63C2985.55 4736.63 2947.39 4673.12 2902.97 4590.54C2858.55 4507.95 2776.07 4425.48 2776.07 4425.48C2767.38 4394.4 2762.03 4362.49 2760.12 4330.28C2760.12 4292.22 2776.07 4206.51 2804.64 4085.87C2824.83 3991.57 2839.77 3896.22 2849.38 3800.27Z" fill="white" stroke="#263238" stroke-miterlimit="10"/>
<path d="M2208.01 3519.31L2229.89 3690.73" stroke="#263238" stroke-miterlimit="10"/>
<path d="M2806.37 3525.56C2806.37 3525.56 2787.61 3647.07 2803.24 3678.23" stroke="#263238" stroke-miterlimit="10"/>
<path d="M2395.49 3613L2460.4 3643.83" stroke="#263238" stroke-miterlimit="10"/>
<path d="M2617.69 3613L2551.28 3650.52" stroke="#263238" stroke-miterlimit="10"/>
<path d="M2524.65 3227.25C2553.44 3224.98 2564.54 3205.04 2593.33 3216.46C2622.12 3227.89 2646.48 3243.09 2648.75 3271.88C2651.01 3300.67 2639.9 3307.35 2648.75 3325.03C2661.32 3344.87 2667.49 3368.09 2666.43 3391.55C2666.24 3412.69 2667.97 3433.8 2671.6 3454.62C2676.56 3425.19 2679.73 3395.49 2681.09 3365.68C2681.09 3333.98 2690.68 3308.54 2639.9 3245.14C2596.78 3191.24 2527.78 3189.94 2506.65 3190.7C2485.52 3191.45 2415.98 3191.78 2373.28 3245.14C2322.5 3308.54 2332.1 3333.98 2332.1 3365.68C2332.43 3381.33 2333.62 3396.95 2335.66 3412.47C2337.49 3395.87 2339.65 3376.78 2340.72 3364.92C2342.88 3340.56 2376.19 3307.35 2376.19 3285.14C2376.19 3262.93 2382.77 3207.62 2444.87 3205.36C2444.87 3205.04 2495.87 3229.4 2524.65 3227.25Z" fill="#7A7A7A" stroke="#263238" stroke-miterlimit="10"/>
<path d="M2542.33 3349.07C2542.33 3349.07 2522.39 3377.97 2526.81 3402.33" stroke="#263238" stroke-miterlimit="10"/>
<path d="M2549.02 3373.76C2549.02 3373.76 2586.65 3358.24 2615.54 3378.18" stroke="#263238" stroke-miterlimit="10"/>
<path d="M2471.5 3373.76C2471.5 3373.76 2431.61 3358.24 2404.98 3380.34" stroke="#263238" stroke-miterlimit="10"/>
<path d="M2398.3 3340.23C2398.3 3340.23 2436.03 3295.92 2480.34 3318.13" stroke="#263238" stroke-miterlimit="10"/>
<path d="M2553.44 3319.86C2553.44 3319.86 2591.17 3293.34 2631.06 3342.07" stroke="#263238" stroke-miterlimit="10"/>
<path d="M2442.61 3473.17C2445.8 3475.43 2449.52 3476.83 2453.41 3477.23C2457.31 3477.62 2461.23 3477.01 2464.82 3475.43C2480.34 3471.01 2493.6 3455.49 2513.55 3459.91C2533.49 3464.33 2549.02 3484.27 2564.54 3475.43" stroke="#263238" stroke-miterlimit="10"/>
<path d="M2537.91 3408.91L2515.81 3428.86" stroke="#263238" stroke-miterlimit="10"/>
<path d="M2804.97 4085.87C2807.45 4075.09 2809.82 4064.31 2812.19 4053.52C2801.41 4026.46 2787.39 3991.86 2772.84 3956.49C2741.79 3881.02 2646.48 3688.25 2646.48 3688.25L2604.97 3699.04C2604.97 3699.04 2673.11 3814.83 2659.85 3843.61C2646.59 3872.4 2557.86 3954.44 2493.6 3947.76C2429.35 3941.08 2338.46 3885.77 2345.14 3850.73C2351.83 3815.69 2408.21 3699.79 2408.21 3699.79L2366.6 3685.88C2305.36 3765.66 2233.34 3987.76 2205.85 4076.6C2206.71 4080.15 2207.47 4083.6 2208.22 4087.38C2219 4132.44 2227.84 4172.66 2234.74 4207.27C2283.58 4183.65 2360.67 4165.65 2455.98 4159.5C2593.33 4150.66 2704.81 4191.85 2777.9 4209.42C2785.02 4172.77 2793.97 4131.9 2804.97 4085.87Z" fill="#92E3A9" stroke="#263238" stroke-miterlimit="10"/>
<path d="M2903.29 4590.54C2858.87 4508.06 2776.4 4425.48 2776.4 4425.48C2445.19 4489.19 2236.79 4425.48 2236.79 4425.48C2236.79 4425.48 2154.32 4508.06 2109.9 4590.54C2065.48 4673.02 2027.31 4736.63 2027.31 4736.63C2027.31 4736.63 2311.72 4890.58 2497.05 4918.18V4920.66L2506.54 4919.48L2516.14 4920.66V4918.18C2701.47 4890.58 2985.88 4736.63 2985.88 4736.63C2985.88 4736.63 2947.71 4673.12 2903.29 4590.54Z" fill="#92E3A9" stroke="#263238" stroke-miterlimit="10"/>
<path d="M2052.65 4732.21C1994.31 4735.91 1935.78 4735.15 1877.56 4729.94C1793.36 4721.1 1695.79 4725.52 1616.01 4778.67C1536.22 4831.83 1534.07 4893.93 1565.12 4942.76C1596.17 4991.6 1773.41 5049.07 2077.01 5039.8C2380.61 5030.52 2597.75 5006.59 2690.9 5006.59H2872.56C2879.25 5006.59 2619.96 4948.91 2482.5 4893.49C2345.04 4838.08 2180.62 4776.09 2150.11 4762.83C2118.17 4750.95 2085.64 4740.73 2052.65 4732.21Z" fill="white" stroke="#263238" stroke-miterlimit="10"/>
<path d="M2475.92 4891.12C2339.86 4836.35 2180.62 4776.09 2150.11 4763.04C2118.32 4751.03 2085.93 4740.67 2053.08 4731.99C1994.74 4735.69 1936.21 4734.94 1877.99 4729.73C1793.79 4720.89 1696.22 4725.31 1616.44 4778.46C1536.66 4831.61 1534.5 4893.71 1565.55 4942.55C1596.6 4991.39 1773.84 5048.85 2077.44 5039.58C2235.71 5034.94 2370.37 5026.1 2476.35 5018.77L2475.92 4891.12Z" fill="#92E3A9" stroke="#263238" stroke-miterlimit="10"/>
<path d="M1884.14 4807.67C1884.14 4807.67 2096.96 4800.99 2198.84 4834.2" stroke="#263238" stroke-miterlimit="10"/>
<path d="M2367.35 4931.44C2315.12 4908.89 2264.05 4883.7 2214.37 4855.97C2158.95 4822.77 2068.17 4769.72 2028.28 4760.67C1988.39 4751.61 1946.24 4758.4 1955.08 4745.14C1963.92 4731.88 2010.49 4689.73 2079.17 4691.99C2147.85 4694.25 2203.26 4725.2 2209.95 4725.2C2216.63 4725.2 2311.94 4685.31 2351.83 4696.41C2391.72 4707.52 2424.93 4811.66 2436.03 4822.77C2441.91 4829.81 2449.43 4835.31 2457.92 4838.79C2466.41 4842.27 2475.63 4843.61 2484.76 4842.71C2513.55 4842.71 2695.32 4829.34 2818.98 4798.29C2942.64 4767.24 3058.33 4698.57 3189 4694.15C3319.66 4689.73 3406.24 4720.78 3423.92 4771.77C3441.6 4822.77 3419.93 4883.14 3393.41 4915.49C3366.89 4947.83 3224.9 5024.05 3142.96 5024.05C3061.02 5024.05 2854.88 5021.9 2754.83 5001.95C2654.78 4982.01 2464.49 4950.96 2451.23 4950.96C2437.97 4950.96 2367.35 4931.44 2367.35 4931.44Z" fill="white" stroke="#263238" stroke-miterlimit="10"/>
<path d="M3189.43 4694.26C3058.76 4698.68 2943.51 4767.46 2819.41 4798.4C2711.6 4825.46 2559.15 4839.05 2502.98 4842.07C2488.33 4856.69 2478.75 4875.62 2475.63 4896.09C2472.5 4916.55 2476.01 4937.48 2485.62 4955.81C2547.83 4965.08 2678.29 4986.97 2755.16 5002.38C2854.88 5022.33 3060.91 5024.49 3143.28 5024.49C3225.65 5024.49 3367.1 4949.02 3393.73 4915.92C3420.36 4882.82 3442.46 4822.88 3424.67 4771.88C3406.88 4720.89 3320.2 4689.84 3189.43 4694.26Z" fill="#92E3A9" stroke="#263238" stroke-miterlimit="10"/>
<path d="M1380.44 3043.43C1400.17 3052.2 1421.39 3057.14 1442.97 3057.98C1481.02 3060.14 1496.23 3006.99 1496.23 3006.99C1475.42 3003.5 1454.08 3004.99 1433.96 3011.32C1413.84 3017.65 1395.5 3028.65 1380.44 3043.43V3043.43Z" fill="#92E3A9"/>
<path d="M2117.23 2524.95C2136.96 2533.73 2158.18 2538.67 2179.76 2539.51C2217.82 2541.67 2233.02 2488.51 2233.02 2488.51C2212.21 2485.03 2190.88 2486.51 2170.75 2492.85C2150.63 2499.18 2132.29 2510.18 2117.23 2524.95V2524.95Z" fill="#92E3A9"/>
<path d="M1183.57 2314.4C1203.3 2323.17 1224.52 2328.11 1246.1 2328.95C1284.16 2331 1299.36 2277.96 1299.36 2277.96C1278.55 2274.47 1257.22 2275.96 1237.09 2282.29C1216.97 2288.62 1198.63 2299.62 1183.57 2314.4Z" fill="#92E3A9"/>
<path d="M1370.62 2395.04C1372.13 2373.48 1369.57 2351.83 1363.08 2331.21C1352.3 2294.77 1296.99 2298.87 1296.99 2298.87C1300.83 2319.57 1309.49 2339.06 1322.29 2355.77C1335.09 2372.48 1351.65 2385.94 1370.62 2395.04V2395.04Z" fill="#92E3A9"/>
<path d="M4006.54 1915.81C4026.26 1924.61 4047.49 1929.55 4069.07 1930.37C4107.13 1932.41 4122.33 1879.26 4122.33 1879.26C4101.51 1875.77 4080.17 1877.27 4060.04 1883.62C4039.92 1889.97 4021.58 1901.01 4006.54 1915.81V1915.81Z" fill="#92E3A9"/>
<path d="M3274.81 2469.32C3294.54 2478.1 3315.77 2483.04 3337.34 2483.88C3375.4 2486.03 3390.6 2432.88 3390.6 2432.88C3369.8 2429.4 3348.46 2430.88 3328.34 2437.21C3308.21 2443.55 3289.87 2454.55 3274.81 2469.32V2469.32Z" fill="#92E3A9"/>
<path d="M3092.29 3620.55C3085.46 3600.09 3074.77 3581.13 3060.81 3564.7C3036.55 3535.27 2987.17 3559.96 2987.17 3559.96C2998.66 3577.64 3014.17 3592.35 3032.45 3602.89C3050.72 3613.42 3071.22 3619.47 3092.29 3620.55Z" fill="#92E3A9"/>
<path d="M2074.97 3896.01C2068.11 3875.51 2057.39 3856.51 2043.38 3840.06C2019.23 3810.62 1969.85 3835.42 1969.85 3835.42C1981.34 3853.1 1996.86 3867.81 2015.13 3878.34C2033.4 3888.87 2053.9 3894.92 2074.97 3896.01V3896.01Z" fill="#92E3A9"/>
<path d="M1017.97 2132.19C1011.12 2111.69 1000.39 2092.7 986.379 2076.24C962.229 2046.8 912.851 2071.6 912.851 2071.6C924.346 2089.28 939.863 2103.99 958.133 2114.52C976.404 2125.05 996.908 2131.11 1017.97 2132.19V2132.19Z" fill="#92E3A9"/>
</svg>
