<svg width="50" height="50" viewBox="0 0 50 50" fill="none" xmlns="http://www.w3.org/2000/svg">
<path d="M5.52616 0H44.4738C48.1482 0 50 2.45833 50 7.45833V42.5417C50 47.5 48.1482 50 44.4738 50H5.52616C1.85185 50 0 47.5 0 42.5417V7.45833C0 2.45833 1.85185 0 5.52616 0ZM24.9853 35.8333L44.7972 12.7917C45.5026 11.9583 46.0611 10.0417 45.1793 8.33333C44.3269 6.625 42.769 6.58333 41.7402 7.625L24.9853 23.7083L8.25985 7.625C7.23104 6.58333 5.67313 6.625 4.82069 8.33333C3.93886 10.0417 4.49735 11.9583 5.20282 12.7917L24.9853 35.8333Z" fill="#FB2A09"/>
</svg>
