<svg width="5915" height="6025" viewBox="0 0 5915 6025" fill="none" xmlns="http://www.w3.org/2000/svg">
<path opacity="0.5" d="M2703.88 1865.04C2703.88 1865.04 2889.11 1652.61 3159.35 1652.61C3159.35 1652.61 3168.32 1487.77 3352.74 1452.14C3537.16 1416.51 3572.93 1581.21 3572.93 1581.21C3572.93 1581.21 3708.93 1508.85 3892.26 1581.21C4075.59 1653.56 4038.05 1864.36 4038.05 1864.36C4038.05 1864.36 4566.01 1847.22 4656.58 1943.92H2284.05C2284.05 1943.92 2331.92 1825.6 2703.88 1865.04Z" stroke="#263238" stroke-linecap="round" stroke-linejoin="round"/>
<path d="M2703.88 1865.04C2703.88 1865.04 2889.11 1652.61 3159.35 1652.61C3159.35 1652.61 3168.32 1487.77 3352.74 1452.14C3537.16 1416.51 3572.93 1581.21 3572.93 1581.21C3572.93 1581.21 3708.93 1508.85 3892.26 1581.21C4075.59 1653.56 4038.05 1864.36 4038.05 1864.36C4038.05 1864.36 4566.01 1847.22 4656.58 1943.92H2284.05C2284.05 1943.92 2331.92 1825.6 2703.88 1865.04Z" stroke="#263238" stroke-linecap="round" stroke-linejoin="round"/>
<path opacity="0.5" d="M4234.57 605.535C4234.57 605.535 4086.74 436.214 3871.31 436.214C3871.31 436.214 3864.1 304.701 3717.09 276.277C3570.07 247.852 3541.37 379.229 3541.37 379.229C3541.37 379.229 3432.57 321.565 3286.78 379.229C3140.99 436.894 3170.36 605.127 3170.36 605.127C3170.36 605.127 2748.76 591.527 2677.09 668.503H4569.41C4569.41 668.503 4531.19 574.119 4234.57 605.535Z" stroke="#263238" stroke-linecap="round" stroke-linejoin="round"/>
<path d="M4234.57 605.535C4234.57 605.535 4086.74 436.214 3871.31 436.214C3871.31 436.214 3864.1 304.701 3717.09 276.277C3570.07 247.852 3541.37 379.229 3541.37 379.229C3541.37 379.229 3432.57 321.565 3286.78 379.229C3140.99 436.894 3170.36 605.127 3170.36 605.127C3170.36 605.127 2748.76 591.527 2677.09 668.503H4569.41C4569.41 668.503 4531.19 574.119 4234.57 605.535Z" stroke="#263238" stroke-linecap="round" stroke-linejoin="round"/>
<path opacity="0.5" d="M804.221 1194.01C804.221 1194.01 891.942 1093.37 1020.05 1093.37C1022.47 1069.55 1032.79 1047.23 1049.39 1029.97C1065.98 1012.71 1087.88 1001.51 1111.58 998.169C1198.9 981.305 1215.9 1059.23 1215.9 1059.23C1239.77 1048.9 1265.5 1043.57 1291.51 1043.57C1317.52 1043.57 1343.26 1048.9 1367.13 1059.23C1453.9 1093.51 1436.35 1193.47 1436.35 1193.47C1436.35 1193.47 1686.32 1185.31 1729.3 1231.14H605.388C605.388 1231.14 627.964 1175.24 804.221 1194.01Z" stroke="#263238" stroke-linecap="round" stroke-linejoin="round"/>
<path d="M804.221 1194.01C804.221 1194.01 891.942 1093.37 1020.05 1093.37C1022.47 1069.55 1032.79 1047.23 1049.39 1029.97C1065.98 1012.71 1087.88 1001.51 1111.58 998.169C1198.9 981.305 1215.9 1059.23 1215.9 1059.23C1239.77 1048.9 1265.5 1043.57 1291.51 1043.57C1317.52 1043.57 1343.26 1048.9 1367.13 1059.23C1453.9 1093.51 1436.35 1193.47 1436.35 1193.47C1436.35 1193.47 1686.32 1185.31 1729.3 1231.14H605.388C605.388 1231.14 627.964 1175.24 804.221 1194.01Z" stroke="#263238" stroke-linecap="round" stroke-linejoin="round"/>
<path opacity="0.5" d="M2148.18 3519.76C2148.18 3519.76 2235.9 3419.12 2364.02 3419.12C2366.4 3395.29 2376.72 3372.96 2393.32 3355.7C2409.92 3338.43 2431.83 3327.24 2455.54 3323.92C2542.86 3307.33 2559.99 3384.85 2559.99 3384.85C2583.86 3374.52 2609.6 3369.19 2635.61 3369.19C2661.62 3369.19 2687.35 3374.52 2711.23 3384.85C2797.99 3418.99 2780.45 3519.08 2780.45 3519.08C2780.45 3519.08 3030.42 3510.92 3073.4 3556.75H1949.35C1949.35 3556.75 1971.92 3500.99 2148.18 3519.76Z" stroke="#263238" stroke-linecap="round" stroke-linejoin="round"/>
<path d="M2148.18 3519.76C2148.18 3519.76 2235.9 3419.12 2364.02 3419.12C2366.4 3395.29 2376.72 3372.96 2393.32 3355.7C2409.92 3338.43 2431.83 3327.24 2455.54 3323.92C2542.86 3307.33 2559.99 3384.85 2559.99 3384.85C2583.86 3374.52 2609.6 3369.19 2635.61 3369.19C2661.62 3369.19 2687.35 3374.52 2711.23 3384.85C2797.99 3418.99 2780.45 3519.08 2780.45 3519.08C2780.45 3519.08 3030.42 3510.92 3073.4 3556.75H1949.35C1949.35 3556.75 1971.92 3500.99 2148.18 3519.76Z" stroke="#263238" stroke-linecap="round" stroke-linejoin="round"/>
<path d="M1137.56 2244.07L1136.2 2031.91C1135.7 2024.59 1132.43 2017.73 1127.07 2012.72C1121.7 2007.71 1114.64 2004.93 1107.3 2004.93C1099.96 2004.93 1092.89 2007.71 1087.53 2012.72C1082.16 2017.73 1078.9 2024.59 1078.4 2031.91V2101.41" stroke="#263238" stroke-linecap="round" stroke-linejoin="round"/>
<path d="M1076.77 2300.79L1076.22 2378.71" stroke="#263238" stroke-linecap="round" stroke-linejoin="round"/>
<path d="M1149.66 4128.64L1138.92 2458.68" stroke="#263238" stroke-linecap="round" stroke-linejoin="round"/>
<path d="M1075.27 2525.46L1065.07 4128.64" stroke="#263238" stroke-linecap="round" stroke-linejoin="round"/>
<path d="M1839.19 2392.04L1221.61 2260.26L1187.61 2308.13L1162.99 2305.55L901.734 1679.94C899.955 1675.65 896.59 1672.2 892.337 1670.32C888.084 1668.44 883.27 1668.27 878.895 1669.84C874.519 1671.42 870.919 1674.62 868.84 1678.78C866.762 1682.94 866.366 1687.74 867.734 1692.18L1048.34 2297.39L1106.69 2304.05L1115.94 2326.22L701.948 2864.37C699.413 2868.04 698.322 2872.52 698.884 2876.94C699.446 2881.36 701.622 2885.42 704.994 2888.34C708.367 2891.26 712.697 2892.83 717.155 2892.74C721.613 2892.66 725.884 2890.94 729.149 2887.9L1165.17 2430.94L1142.05 2376.54L1157.42 2356.68L1833.75 2427.95C1836.11 2428.3 1838.51 2428.19 1840.82 2427.62C1843.14 2427.05 1845.32 2426.03 1847.24 2424.61C1849.16 2423.2 1850.78 2421.42 1852.01 2419.38C1853.24 2417.34 1854.06 2415.07 1854.42 2412.72C1854.78 2410.36 1854.67 2407.95 1854.09 2405.64C1853.52 2403.32 1852.5 2401.14 1851.09 2399.22C1849.67 2397.3 1847.89 2395.68 1845.85 2394.45C1843.81 2393.22 1841.55 2392.4 1839.19 2392.04V2392.04Z" stroke="#263238" stroke-linecap="round" stroke-linejoin="round"/>
<path d="M1149.66 2344.85C1159.43 2344.85 1167.34 2336.93 1167.34 2327.17C1167.34 2317.41 1159.43 2309.49 1149.66 2309.49C1139.9 2309.49 1131.98 2317.41 1131.98 2327.17C1131.98 2336.93 1139.9 2344.85 1149.66 2344.85Z" stroke="#263238" stroke-linecap="round" stroke-linejoin="round"/>
<path d="M1706.18 2977.53L1705.09 2809.57C1705.09 2803.51 1702.68 2797.69 1698.4 2793.41C1694.11 2789.12 1688.3 2786.72 1682.24 2786.72C1676.18 2786.72 1670.37 2789.12 1666.09 2793.41C1661.8 2797.69 1659.39 2803.51 1659.39 2809.57V2864.65" stroke="#263238" stroke-linecap="round" stroke-linejoin="round"/>
<path d="M1658.03 3022.41L1657.63 3083.88" stroke="#263238" stroke-linecap="round" stroke-linejoin="round"/>
<path d="M1715.7 4468.23L1707.27 3147.26" stroke="#263238" stroke-linecap="round" stroke-linejoin="round"/>
<path d="M1656.95 3200.02L1648.79 4468.23" stroke="#263238" stroke-linecap="round" stroke-linejoin="round"/>
<path d="M2261.61 3094.9L1772.96 2990.45L1745.76 3028.39L1726.17 3026.35L1519.59 2531.31C1518.95 2529.52 1517.95 2527.88 1516.64 2526.5C1515.33 2525.12 1513.75 2524.02 1511.99 2523.29C1510.24 2522.56 1508.35 2522.21 1506.44 2522.25C1504.54 2522.3 1502.67 2522.74 1500.95 2523.56C1497.68 2524.95 1495.04 2527.48 1493.51 2530.69C1491.98 2533.9 1491.68 2537.55 1492.66 2540.96L1635.59 3019.69L1681.7 3024.99L1689.04 3042.54L1361.28 3467.95C1358.81 3470.83 1357.59 3474.58 1357.88 3478.37C1358.17 3482.16 1359.96 3485.67 1362.84 3488.14C1365.73 3490.61 1369.48 3491.84 1373.27 3491.54C1377.05 3491.25 1380.57 3489.46 1383.04 3486.58L1727.8 3125.09L1709.58 3082.38L1721.68 3066.61L2256.71 3122.91C2258.59 3123.22 2260.52 3123.13 2262.36 3122.64C2264.21 3122.16 2265.93 3121.29 2267.42 3120.1C2268.9 3118.91 2270.12 3117.42 2271 3115.72C2271.87 3114.03 2272.38 3112.17 2272.49 3110.26C2272.85 3106.82 2271.94 3103.36 2269.94 3100.53C2267.94 3097.7 2264.98 3095.7 2261.61 3094.9Z" stroke="#263238" stroke-linecap="round" stroke-linejoin="round"/>
<path d="M1730.39 3043.22C1730.39 3045.91 1729.59 3048.53 1728.1 3050.77C1726.6 3053.01 1724.48 3054.75 1721.99 3055.78C1719.51 3056.81 1716.77 3057.08 1714.13 3056.55C1711.5 3056.03 1709.07 3054.73 1707.17 3052.83C1705.27 3050.93 1703.97 3048.51 1703.45 3045.87C1702.92 3043.23 1703.19 3040.5 1704.22 3038.01C1705.25 3035.53 1706.99 3033.4 1709.23 3031.91C1711.47 3030.41 1714.1 3029.62 1716.79 3029.62C1720.39 3029.62 1723.85 3031.05 1726.4 3033.6C1728.95 3036.15 1730.39 3039.61 1730.39 3043.22Z" stroke="#263238" stroke-linecap="round" stroke-linejoin="round"/>
<path d="M4689.63 2244.07L4690.99 2031.91C4691.49 2024.59 4694.76 2017.73 4700.12 2012.72C4705.49 2007.71 4712.55 2004.93 4719.89 2004.93C4727.23 2004.93 4734.3 2007.71 4739.66 2012.72C4745.02 2017.73 4748.29 2024.59 4748.79 2031.91V2101.41" stroke="#263238" stroke-linecap="round" stroke-linejoin="round"/>
<path d="M4750.42 2300.79L4750.97 2378.71" stroke="#263238" stroke-linecap="round" stroke-linejoin="round"/>
<path d="M4677.53 4128.64L4688.27 2458.68" stroke="#263238" stroke-linecap="round" stroke-linejoin="round"/>
<path d="M4751.92 2525.46L4762.12 4128.64" stroke="#263238" stroke-linecap="round" stroke-linejoin="round"/>
<path d="M3988 2392.04L4605.58 2260.26L4639.58 2308.13L4664.2 2305.55L4925.46 1679.94C4927.23 1675.65 4930.6 1672.2 4934.85 1670.32C4939.11 1668.44 4943.92 1668.27 4948.3 1669.84C4952.67 1671.42 4956.27 1674.62 4958.35 1678.78C4960.43 1682.94 4960.82 1687.74 4959.46 1692.18L4778.85 2297.39L4720.5 2304.05L4711.25 2326.22L5125.65 2864.1C5128.18 2867.77 5129.28 2872.24 5128.71 2876.67C5128.15 2881.09 5125.98 2885.15 5122.6 2888.07C5119.23 2890.98 5114.9 2892.55 5110.44 2892.47C5105.98 2892.39 5101.71 2890.67 5098.45 2887.63L4662.43 2430.67L4685.55 2376.27L4670.18 2356.41L3993.85 2427.68C3989.27 2428.14 3984.68 2426.84 3981.02 2424.04C3977.36 2421.25 3974.91 2417.16 3974.16 2412.61C3973.42 2408.06 3974.43 2403.41 3977.01 2399.58C3979.58 2395.76 3983.51 2393.06 3988 2392.04V2392.04Z" stroke="#263238" stroke-linecap="round" stroke-linejoin="round"/>
<path d="M4677.53 2344.85C4687.29 2344.85 4695.21 2336.93 4695.21 2327.17C4695.21 2317.41 4687.29 2309.49 4677.53 2309.49C4667.76 2309.49 4659.85 2317.41 4659.85 2327.17C4659.85 2336.93 4667.76 2344.85 4677.53 2344.85Z" stroke="#263238" stroke-linecap="round" stroke-linejoin="round"/>
<path d="M4121.01 2977.53L4122.1 2809.57C4122.1 2803.51 4124.51 2797.69 4128.79 2793.41C4133.08 2789.12 4138.89 2786.72 4144.95 2786.72C4151.01 2786.72 4156.82 2789.12 4161.1 2793.41C4165.39 2797.69 4167.8 2803.51 4167.8 2809.57V2864.65" stroke="#263238" stroke-linecap="round" stroke-linejoin="round"/>
<path d="M4169.16 3022.41L4169.56 3083.88" stroke="#263238" stroke-linecap="round" stroke-linejoin="round"/>
<path d="M4111.49 4468.23L4119.92 3147.26" stroke="#263238" stroke-linecap="round" stroke-linejoin="round"/>
<path d="M4170.24 3200.02L4178.4 4468.23" stroke="#263238" stroke-linecap="round" stroke-linejoin="round"/>
<path d="M3565.58 3094.9L4054.23 2990.45L4081.43 3028.39L4101.02 3026.35L4307.6 2531.31C4308.24 2529.52 4309.24 2527.88 4310.55 2526.5C4311.86 2525.12 4313.44 2524.02 4315.2 2523.29C4316.95 2522.56 4318.84 2522.21 4320.75 2522.25C4322.65 2522.3 4324.52 2522.74 4326.24 2523.56C4329.51 2524.95 4332.15 2527.48 4333.68 2530.69C4335.21 2533.9 4335.51 2537.55 4334.53 2540.96L4191.6 3019.69L4145.49 3024.99L4138.15 3042.54L4465.91 3467.95C4468.38 3470.83 4469.6 3474.58 4469.31 3478.37C4469.02 3482.16 4467.23 3485.67 4464.35 3488.14C4461.46 3490.61 4457.71 3491.84 4453.92 3491.54C4450.14 3491.25 4446.62 3489.46 4444.15 3486.58L4099.39 3125.09L4117.61 3082.38L4105.51 3066.61L3570.48 3122.91C3568.6 3123.22 3566.67 3123.13 3564.83 3122.64C3562.98 3122.16 3561.26 3121.29 3559.77 3120.1C3558.29 3118.91 3557.07 3117.42 3556.19 3115.72C3555.32 3114.03 3554.81 3112.17 3554.7 3110.26C3554.34 3106.82 3555.25 3103.36 3557.25 3100.53C3559.25 3097.7 3562.21 3095.7 3565.58 3094.9V3094.9Z" stroke="#263238" stroke-linecap="round" stroke-linejoin="round"/>
<path d="M4097.48 3043.22C4097.48 3045.91 4098.28 3048.53 4099.77 3050.77C4101.27 3053.01 4103.39 3054.75 4105.88 3055.78C4108.36 3056.81 4111.1 3057.08 4113.74 3056.55C4116.37 3056.03 4118.8 3054.73 4120.7 3052.83C4122.6 3050.93 4123.9 3048.51 4124.42 3045.87C4124.95 3043.23 4124.68 3040.5 4123.65 3038.01C4122.62 3035.53 4120.87 3033.4 4118.64 3031.91C4116.4 3030.41 4113.77 3029.62 4111.08 3029.62C4107.48 3029.62 4104.02 3031.05 4101.47 3033.6C4098.92 3036.15 4097.48 3039.61 4097.48 3043.22Z" stroke="#263238" stroke-linecap="round" stroke-linejoin="round"/>
<path d="M1 3930.35C1 3930.35 27.3842 3999.98 109.801 4107.15C216.289 4246.69 417.571 4449.74 778.381 4644.49C1414.87 4988.57 1817.7 5560.32 1817.7 5560.32L2188.03 4379.97C2188.03 4379.97 2023.33 4368 1791.59 4203.17C1633.42 4092.05 1444.79 3909.54 1256.29 3612.79C790.077 2879.61 302.378 2720.62 302.378 2720.62" fill="white"/>
<path opacity="0.4" d="M109.393 4107.15C216.289 4246.69 417.571 4449.74 778.381 4644.49C1414.87 4988.57 1817.7 5560.32 1817.7 5560.32L2188.03 4379.97C2188.03 4379.97 2023.33 4368 1791.59 4203.17C1601.87 4198 1208.55 4326.79 1007.68 4520.86C1007 4521.14 542.964 4285.85 109.393 4107.15Z" fill="#92E3A9"/>
<path d="M1333.94 4361.2C1333.94 4361.2 1560.39 4556.77 1687.55 4563.16" stroke="#263238" stroke-linecap="round" stroke-linejoin="round"/>
<path d="M669.58 4587.91C831.013 4666.38 1067.79 4754.11 1153.88 4798.99" stroke="#263238" stroke-linecap="round" stroke-linejoin="round"/>
<path d="M1288.66 3665.69C1332.45 3756.18 1384.1 3842.64 1443.02 3924.09" stroke="#263238" stroke-linecap="round" stroke-linejoin="round"/>
<path d="M1 3930.35C1 3930.35 27.3842 3999.98 109.801 4107.15C216.289 4246.69 417.571 4449.74 778.381 4644.49C1414.87 4988.57 1817.7 5560.32 1817.7 5560.32L2188.03 4379.97C2188.03 4379.97 2023.33 4368 1791.59 4203.17C1633.42 4092.05 1444.79 3909.54 1256.29 3612.79C790.077 2879.61 302.378 2720.62 302.378 2720.62" stroke="#263238" stroke-linecap="round" stroke-linejoin="round"/>
<path d="M5913.77 3821.55C5913.77 3821.55 5887.39 3891.18 5804.97 3998.35C5698.08 4137.89 5496.8 4340.93 5136.67 4535.69C4500.18 4879.77 4097.35 5451.52 4097.35 5451.52L3727.02 4271.17C3727.02 4271.17 3891.71 4259.2 4123.46 4094.37C4280.95 3982.57 4469.44 3800.47 4658.08 3503.71C5124.29 2770.53 5612.12 2611.55 5612.12 2611.55" fill="white"/>
<path opacity="0.4" d="M5805.38 3998.35C5698.48 4137.89 5497.2 4340.93 5137.07 4535.69C4500.59 4879.77 4097.75 5451.52 4097.75 5451.52L3727.42 4271.17C3727.42 4271.17 3892.12 4259.2 4123.87 4094.37C4313.59 4089.2 4651.28 4176.78 4820.6 4447.97C4820.6 4448.1 5371.81 4177.05 5805.38 3998.35Z" fill="#92E3A9"/>
<path d="M4347.45 4048.26C4347.45 4048.26 4236.88 4227.92 3951.15 4340.66" stroke="#263238" stroke-linecap="round" stroke-linejoin="round"/>
<path d="M5205.48 4507.26C5137.48 4535.69 4855.69 4624.22 4791.09 4669.51" stroke="#263238" stroke-linecap="round" stroke-linejoin="round"/>
<path d="M4662.02 3638.76C4662.02 3638.76 4726.35 3407.56 4820.6 3267.48" stroke="#263238" stroke-linecap="round" stroke-linejoin="round"/>
<path d="M5913.77 3821.55C5913.77 3821.55 5887.39 3891.18 5804.97 3998.35C5698.08 4137.89 5496.8 4340.93 5136.67 4535.69C4500.18 4879.77 4097.35 5451.52 4097.35 5451.52L3727.02 4271.17C3727.02 4271.17 3891.71 4259.2 4123.46 4094.37C4280.95 3982.57 4469.44 3800.47 4658.08 3503.71C5124.29 2770.53 5612.12 2611.55 5612.12 2611.55" stroke="#263238" stroke-linecap="round" stroke-linejoin="round"/>
<path d="M2489.54 4662.44L2092.01 4710.18C2092.01 4710.18 1814.44 4794.77 1747.39 4855.02C1680.34 4915.27 1592.21 5076.84 1592.21 5076.84C1592.21 5076.84 1494.56 5095.33 1444.51 5076.84C1438.9 5075.29 1433.66 5072.59 1429.15 5068.92C1424.63 5065.24 1420.92 5060.67 1418.27 5055.48C1411.89 5040.3 1407.32 5024.41 1404.67 5008.15C1397.57 4957.26 1396.84 4905.68 1402.49 4854.61C1402.49 4854.61 1337.21 4761.31 1334.49 4723.1C1331.77 4684.88 1345.64 4527.39 1385.08 4483.33C1386.68 4481.44 1388.45 4479.7 1390.39 4478.16C1433.91 4443.34 1682.24 4332.91 1682.24 4332.91C1682.24 4332.91 1738.14 4249 1874.82 4224.11C2011.5 4199.22 2306.49 4286.26 2306.49 4286.26L2349.33 4374.12L2489.54 4662.44Z" fill="white"/>
<path opacity="0.4" d="M1404.94 5008.56C1397.84 4957.67 1397.11 4906.09 1402.76 4855.02C1402.76 4855.02 1337.48 4761.72 1334.76 4723.51C1332.04 4685.29 1345.91 4527.8 1385.35 4483.74C1339.66 4574.86 1348.77 4713.71 1412.55 4669.51C1490.21 4615.11 1570.31 4725.82 1570.31 4725.82C1485.59 4769.75 1423.57 4919.48 1404.94 5008.56Z" fill="#92E3A9"/>
<path opacity="0.4" d="M2489.54 4662.44L2092.01 4710.18C2092.01 4710.18 1814.44 4794.77 1747.39 4855.02C1680.34 4915.27 1592.21 5076.83 1592.21 5076.83C1592.21 5076.83 1494.56 5095.33 1444.51 5076.83C1490.48 5063.23 1557.12 5011.55 1569.77 4942.33C1587.72 4843.86 1753.51 4755.19 1747.25 4678.9C1741 4602.6 1613.83 4478.16 1613.83 4478.16C1688.36 4461.97 1755.55 4508.35 1755.55 4508.35C1726.69 4473.53 1692.49 4443.51 1654.23 4419.41C1800.16 4403.63 1828.17 4506.85 1828.17 4506.85C1868.97 4515.97 1964.17 4478.16 1964.17 4478.16C1964.66 4441.2 1975.14 4405.06 1994.5 4373.57L2041.83 4447.69C2093.37 4447.69 2266.37 4398.46 2348.65 4374.12L2489.54 4662.44Z" fill="#92E3A9"/>
<path d="M1418.27 5056.03C1439.62 5105.67 1592.07 5076.97 1592.07 5076.97C1592.07 5076.97 1680.34 4915.27 1747.39 4855.02C1814.44 4794.77 2092.01 4710.04 2092.01 4710.04L2489.54 4662.44L2306.35 4286.67C2306.35 4286.67 2011.36 4199.77 1874.68 4224.65C1738 4249.54 1682.11 4333.46 1682.11 4333.46C1682.11 4333.46 1433.77 4443.75 1390.25 4478.7C1346.73 4513.66 1331.22 4685.29 1334.35 4723.51C1337.48 4761.72 1402.35 4855.02 1402.35 4855.02C1402.35 4855.02 1387.12 4983.81 1418.27 5056.03Z" stroke="#263238" stroke-linecap="round" stroke-linejoin="round"/>
<path d="M1424.39 5022.57C1424.39 5022.57 1449.27 4882.9 1567.32 4832.17C1567.32 4832.17 1579.7 4748.94 1548.69 4710.59C1517.68 4672.23 1427.51 4746.76 1424.39 4832.17C1421.26 4917.58 1424.39 5022.57 1424.39 5022.57Z" stroke="#263238" stroke-linecap="round" stroke-linejoin="round"/>
<path d="M1682.11 4507.26C1682.11 4507.26 1889.24 4600.29 1780.98 4831.63" stroke="#263238" stroke-linecap="round" stroke-linejoin="round"/>
<path d="M1755.55 4463.74C1755.55 4463.74 1931.53 4615.52 1802.2 4806.6" stroke="#263238" stroke-linecap="round" stroke-linejoin="round"/>
<path d="M1995.05 4432.87C1985.13 4499.96 1985.13 4568.15 1995.05 4635.24" stroke="#263238" stroke-linecap="round" stroke-linejoin="round"/>
<path d="M1474.16 4669.51C1474.16 4669.51 1436.9 4687.33 1412.01 4780.49" stroke="#263238" stroke-linecap="round" stroke-linejoin="round"/>
<path d="M1443.02 4507.26C1443.02 4507.26 1390.25 4514.47 1362.37 4618.92" stroke="#263238" stroke-linecap="round" stroke-linejoin="round"/>
<path d="M4501.81 4662.44C4458.29 4690.32 4435.31 4748.94 4435.31 4748.94C4435.31 4748.94 4443.47 4855.02 4435.31 4882.9C4427.15 4910.78 4368.12 4963.68 4321.48 4934.17C4274.83 4904.66 4250.89 4795.99 4130.12 4748.94L3374.64 4448.1C3400.26 4411.87 3430.84 4379.41 3465.49 4351.68C3521.23 4305.69 3583.41 4268.12 3650.04 4240.16C3846.42 4156.25 4085.24 4103.48 4202.07 4140.74C4267.62 4161.82 4346.64 4235.13 4407.56 4307.34C4454.62 4362.97 4490.8 4418.32 4501.81 4448.1C4526.57 4516.51 4545.61 4634.42 4501.81 4662.44Z" fill="white"/>
<path opacity="0.4" d="M4501.81 4662.44C4458.29 4690.32 4435.31 4748.94 4435.31 4748.94C4435.31 4748.94 4443.47 4855.02 4435.31 4882.9C4427.15 4910.78 4368.12 4963.68 4321.48 4934.17C4274.83 4904.66 4250.89 4795.99 4130.12 4748.94L3374.64 4448.1C3400.26 4411.87 3430.84 4379.41 3465.49 4351.68C3568.98 4351.68 3705.26 4361.47 3816.91 4407.71C3816.91 4407.71 3809.3 4323.8 3852.82 4333.32C3852.82 4333.32 3841.8 4248.45 3888.72 4244.24C3935.64 4240.02 3924.63 4271.44 3924.63 4271.44C3924.63 4271.44 3924.63 4356.98 3962.57 4374.26C4000.51 4391.53 3978.21 4273.48 4051.11 4257.02C4051.11 4257.02 4055.19 4390.03 4097.89 4433.14C4097.89 4433.14 4049.34 4573.36 4115.57 4642.86C4181.8 4712.35 4305.97 4795.18 4333.17 4792.46C4360.37 4789.74 4260 4668.7 4260 4668.7C4260 4668.7 4261.91 4545.34 4338.07 4521.14C4414.23 4496.93 4480.46 4558.94 4480.46 4558.94C4468.94 4471.96 4444.56 4387.16 4408.11 4307.34C4455.16 4362.97 4491.34 4418.32 4502.36 4448.1C4526.57 4516.51 4545.61 4634.43 4501.81 4662.44Z" fill="#92E3A9"/>
<path d="M3374.5 4448.1C3374.5 4448.1 3453.52 4323.93 3650.04 4240.16C3846.56 4156.38 4085.24 4103.48 4202.07 4140.74C4318.89 4178.01 4476.92 4379.83 4501.27 4448.1C4525.61 4516.38 4544.79 4634.42 4501.27 4662.44C4457.75 4690.46 4434.9 4748.8 4434.9 4748.8C4434.9 4748.8 4443.06 4855.02 4434.9 4882.9C4426.74 4910.78 4367.72 4963.68 4321.2 4934.17C4274.69 4904.66 4250.48 4795.99 4129.71 4748.8" stroke="#263238" stroke-linecap="round" stroke-linejoin="round"/>
<path d="M4260 4668.7C4260 4668.7 4269.39 4547.52 4328 4553.78C4386.62 4560.03 4431.23 4687.33 4435.44 4831.63C4435.31 4831.63 4371.39 4705.96 4260 4668.7Z" stroke="#263238" stroke-linecap="round" stroke-linejoin="round"/>
<path d="M4067.02 4710.04C4067.02 4710.04 3999.02 4491.62 4144.54 4407.85" stroke="#263238" stroke-linecap="round" stroke-linejoin="round"/>
<path d="M4050.97 4286.67C4050.97 4286.67 3994.67 4474.08 4050.97 4579.07C4050.97 4579.07 3917.96 4479.25 3817.05 4522.63" stroke="#263238" stroke-linecap="round" stroke-linejoin="round"/>
<path d="M3933.6 4521.14C3933.6 4521.14 3914.43 4448.1 3917.55 4407.85C3920.68 4367.59 3866.82 4320.81 3887.5 4271.17" stroke="#263238" stroke-linecap="round" stroke-linejoin="round"/>
<path d="M3852.68 4361.2C3852.68 4361.2 3897.15 4462.38 3924.63 4478.57" stroke="#263238" stroke-linecap="round" stroke-linejoin="round"/>
<path d="M3951.15 4600.29C3951.15 4600.29 4007.18 4575.54 4051.11 4600.29" stroke="#263238" stroke-linecap="round" stroke-linejoin="round"/>
<path d="M4383.76 4419.95C4383.76 4419.95 4473.8 4412.34 4495.56 4594.85" stroke="#263238" stroke-linecap="round" stroke-linejoin="round"/>
<path d="M3060.2 3109.58C3060.2 3109.58 2843.55 2984.73 3021.04 2533.62C3198.52 2082.5 3732.05 1945.69 3852.68 1809.69C3852.68 1809.69 3803.99 3195.13 3060.2 3109.58Z" fill="#92E3A9"/>
<path opacity="0.3" d="M3758.16 1939.16C3697.23 2054.9 3509.69 2200.96 3303.65 2552.39C3202.89 2728.16 3119.01 2913.09 3053.13 3104.69C3020.36 3080.48 2887.75 2958.08 2988.12 2628.68C2992.07 2745.64 3033.55 2811.33 3033.55 2811.33C3020.49 2356.41 3758.16 1939.16 3758.16 1939.16Z" fill="black" fill-opacity="0.7"/>
<path d="M3060.2 3109.58C3060.2 3109.58 2843.55 2984.73 3021.04 2533.62C3198.52 2082.5 3732.05 1945.69 3852.68 1809.69C3852.68 1809.69 3803.99 3195.13 3060.2 3109.58Z" stroke="#263238" stroke-linecap="round" stroke-linejoin="round"/>
<path d="M3080.2 2552.39C3080.2 2552.39 3046.47 2793.52 3123.99 2950.6L3162.75 2850.09C3162.75 2850.09 3431.76 2842.89 3571.57 2670.71" stroke="#263238" stroke-linecap="round" stroke-linejoin="round"/>
<path d="M3227.35 2347.98C3227.35 2347.98 3166.28 2573.88 3209.4 2731.77L3227.35 2652.89C3227.35 2652.89 3564.5 2565.58 3636.17 2461.54" stroke="#263238" stroke-linecap="round" stroke-linejoin="round"/>
<path d="M3401.97 2201.64C3401.97 2201.64 3320.37 2370.15 3322.28 2510.09L3362.13 2442.09C3362.13 2442.09 3646.91 2387.69 3697.23 2298.61" stroke="#263238" stroke-linecap="round" stroke-linejoin="round"/>
<path d="M3571.57 2056.12C3512.13 2137.72 3441.55 2322 3441.55 2322L3506.56 2248.02C3506.56 2248.02 3667.31 2206.13 3727.42 2127.66" stroke="#263238" stroke-linecap="round" stroke-linejoin="round"/>
<path d="M2801.94 4299.45C2801.94 4299.45 2894.42 2670.71 3679.28 2055.44C3679.28 2055.44 2951.13 2656.97 2913.59 4299.45H2801.94Z" fill="#92E3A9"/>
<path opacity="0.3" d="M2801.94 4299.45C2801.94 4299.45 2894.42 2670.71 3679.28 2055.44C3679.28 2055.44 2951.13 2656.97 2913.59 4299.45H2801.94Z" fill="black" fill-opacity="0.7"/>
<path d="M2801.94 4299.45C2801.94 4299.45 2894.42 2670.71 3679.28 2055.44C3679.28 2055.44 2951.13 2656.97 2913.59 4299.45H2801.94Z" stroke="#263238" stroke-linecap="round" stroke-linejoin="round"/>
<path d="M2728.5 2601.62C2728.5 2601.62 2922.3 2489.96 2763.45 2086.45C2604.6 1682.93 2127.51 1560.53 2019.66 1438.95C2019.66 1438.95 2063.18 2677.64 2728.5 2601.62Z" fill="#92E3A9"/>
<path opacity="0.3" d="M2763.99 2086.18C2755.53 2064.38 2745.3 2043.32 2733.39 2023.21C2709.05 1982.41 2770.39 2103.31 2771.61 2200.96C2772.49 2225.38 2767.82 2249.69 2757.95 2272.04C2748.08 2294.4 2733.27 2314.22 2714.63 2330.03C2702.39 2266.11 2695.72 2199.06 2665.12 2141.53C2509.26 1847.22 2145.33 1580.52 2087.53 1536.6C2093.78 1544.48 2293.02 1795 2410.94 1939.16C2474.18 2016.82 2516.2 2114.74 2557.82 2204.9C2610.58 2319.55 2657.91 2436.11 2704.83 2553.61C2711.36 2570.07 2718.43 2586.39 2724.55 2602.71C2777.32 2569.8 2806.15 2508.59 2818.39 2447.53C2838.52 2343.22 2814.59 2235.37 2781.27 2134.73C2775.96 2118.27 2770.39 2102.09 2763.99 2086.18Z" fill="black" fill-opacity="0.7"/>
<path d="M2728.5 2601.62C2728.5 2601.62 2922.3 2489.96 2763.45 2086.45C2604.6 1682.93 2127.51 1560.53 2019.66 1438.95C2019.66 1438.95 2063.18 2677.64 2728.5 2601.62Z" stroke="#263238" stroke-linecap="round" stroke-linejoin="round"/>
<path d="M2710.55 2103.31C2710.55 2103.31 2740.74 2318.87 2671.38 2459.36L2636.7 2369.47C2636.7 2369.47 2396.11 2363.07 2270.99 2209.12" stroke="#263238" stroke-linecap="round" stroke-linejoin="round"/>
<path d="M2579.03 1920.39C2579.03 1920.39 2633.43 2122.49 2595.08 2263.66L2579.03 2193.07C2579.03 2193.07 2277.38 2115.01 2213.33 2021.98" stroke="#263238" stroke-linecap="round" stroke-linejoin="round"/>
<path d="M2422.77 1788.88C2422.77 1788.88 2495.66 1939.7 2494.03 2064.82L2458.4 2003.76C2458.4 2003.76 2203.67 1955.62 2159.2 1875.51" stroke="#263238" stroke-linecap="round" stroke-linejoin="round"/>
<path d="M2270.99 1659.27C2324.3 1732.85 2387.41 1897.14 2387.41 1897.14L2328.79 1831.04C2328.79 1831.04 2185.04 1793.5 2131.32 1723.33" stroke="#263238" stroke-linecap="round" stroke-linejoin="round"/>
<path d="M2927.19 3599.87C2927.19 3599.87 2876.87 2209.12 2174.97 1658.32C2174.97 1658.32 2850.76 2263.66 2860.69 3821.41C2860.69 3821.41 2882.72 3825.76 2894.55 3789.86" fill="#92E3A9"/>
<path opacity="0.3" d="M2927.19 3599.87C2927.19 3599.87 2876.87 2209.12 2174.97 1658.32C2174.97 1658.32 2850.76 2263.66 2860.69 3821.41C2860.69 3821.41 2882.72 3825.76 2894.55 3789.86" fill="black" fill-opacity="0.7"/>
<path d="M2927.19 3599.87C2927.19 3599.87 2876.87 2209.12 2174.97 1658.32C2174.97 1658.32 2850.76 2263.66 2860.69 3821.41C2860.69 3821.41 2882.72 3825.76 2894.55 3789.86" stroke="#263238" stroke-linecap="round" stroke-linejoin="round"/>
<path d="M1792.27 4863.18C1792.27 4863.18 1745.48 4826.19 1792.27 4710.59C1828.17 4622.05 1945 4626.4 1951.39 4533.78C1999.26 4539.77 2037.48 4508.08 2062.23 4469.32C2086.98 4430.56 2106.97 4384.05 2148.32 4363.65C2161.92 4357.39 2175.52 4353.99 2188.03 4347.33C2237.13 4321.21 2254.13 4250.63 2307.17 4234.58C2338.45 4225.06 2375.17 4237.98 2403.86 4223.43C2432.56 4208.88 2446.7 4169.03 2477.85 4155.43C2491.21 4151.35 2504.85 4148.22 2518.65 4146.05C2573.73 4131.63 2609.22 4064.45 2666.21 4065.94C2682.67 4066.62 2700.35 4073.29 2715.03 4065.94C2726.59 4060.23 2733.53 4047.04 2745.5 4042.41C2755.8 4039.97 2766.57 4040.39 2776.64 4043.64C2808.46 4050.49 2841.59 4047.74 2871.84 4035.75C2899.04 4023.37 2905.3 3987.33 2921.89 3979.17C2987.85 3946.67 3061.84 4073.29 3100.05 4104.97C3122.36 4123.61 3147.52 4076.01 3176.48 4077.09C3202.87 4078.18 3216.33 4118.98 3242.44 4115.72C3230.34 4125.24 3237.28 4146.32 3250.61 4154.07C3264.85 4160.03 3280.18 4162.95 3295.62 4162.64C3333.16 4166.58 3367.02 4186.3 3399.66 4205.48C3405.52 4208.3 3410.64 4212.45 3414.62 4217.58C3418.57 4223.57 3419.38 4231.18 3423.46 4237.03C3432.03 4249.13 3451.89 4250.63 3458.28 4263.41C3460.29 4270.32 3461.48 4277.44 3461.81 4284.63C3466.03 4304.76 3489.83 4313.87 3510.37 4315.37C3530.9 4316.86 3552.93 4314.42 3570.48 4325.3C3582.62 4335.28 3593.65 4346.55 3603.39 4358.89C3644.19 4398.46 3691.52 4396.29 3729.19 4446.34C3768.63 4498.7 3795.29 4555.95 3851.59 4593.76C3946.79 4657.82 3973.99 4748.12 3999.97 4832.03C4025.95 4915.95 3656.98 5124.84 2911.96 5178.29C2166.95 5231.74 1782.48 4919.76 1792.27 4863.18Z" fill="#263238"/>
<path opacity="0.4" d="M2487.37 4282.45C2503.96 4286.81 2528.17 4285.72 2530.21 4268.85C2529.86 4265.03 2530.14 4261.17 2531.02 4257.43C2535.38 4247.37 2550.88 4255.12 2561.62 4252.67C2569.65 4250.77 2574.54 4242.88 2580.39 4237.17C2587.88 4230.28 2597.55 4226.24 2607.71 4225.74C2617.87 4225.25 2627.89 4228.33 2636.02 4234.45C2645.4 4242.06 2651.66 4253.76 2662.4 4259.2C2682.53 4269.26 2715.58 4257.97 2723.06 4279.05" stroke="white" stroke-linecap="round" stroke-linejoin="round"/>
<path opacity="0.4" d="M2774.19 4388.67C2778.85 4391.65 2784.12 4393.54 2789.61 4394.2C2795.09 4394.86 2800.66 4394.28 2805.89 4392.49C2811.12 4390.69 2815.88 4387.75 2819.81 4383.86C2823.74 4379.97 2826.74 4375.25 2828.59 4370.04C2830.09 4364.6 2830.63 4358.21 2835.26 4354.81C2842.33 4349.78 2851.85 4356.58 2860.55 4357.39C2877.83 4359.16 2887.75 4339.03 2899.04 4326.11C2905.89 4318.45 2914.65 4312.75 2924.44 4309.6C2934.22 4306.45 2944.66 4305.97 2954.69 4308.2C2964.72 4310.43 2973.98 4315.29 2981.5 4322.29C2989.03 4329.29 2994.55 4338.17 2997.51 4348.01L3100.05 4375.21" stroke="white" stroke-linecap="round" stroke-linejoin="round"/>
<path opacity="0.4" d="M2949.64 4172.7C2967.21 4167.09 2985.6 4164.47 3004.04 4164.95C3001.61 4159.23 3001.08 4152.89 3002.52 4146.85C3003.96 4140.81 3007.29 4135.39 3012.03 4131.38C3016.77 4127.36 3022.67 4124.98 3028.87 4124.56C3035.06 4124.14 3041.23 4125.71 3046.47 4129.05C3050.82 4125.08 3055.97 4122.08 3061.57 4120.26C3067.17 4118.44 3073.09 4117.82 3078.94 4118.47C3084.8 4119.11 3090.45 4120.99 3095.52 4123.99C3100.59 4126.99 3104.96 4131.03 3108.35 4135.85L3112.43 4152.98C3139.21 4161.86 3164.07 4175.7 3185.73 4193.78" stroke="white" stroke-linecap="round" stroke-linejoin="round"/>
<path opacity="0.4" d="M3234.28 4300.54L3261.48 4308.57C3257 4301.49 3265.43 4292.79 3273.73 4291.16C3282.02 4291.18 3290.26 4289.75 3298.07 4286.94C3306.23 4282.05 3308.68 4271.71 3313.98 4263.82C3319.29 4255.93 3332.61 4251.45 3337.1 4259.74C3336.01 4251.04 3345.67 4243.97 3354.51 4244.24C3363.38 4245.41 3371.73 4249.09 3378.58 4254.85L3448.21 4303.26" stroke="white" stroke-linecap="round" stroke-linejoin="round"/>
<path d="M1565.15 5076.84C1565.15 5076.84 1643.89 4937.71 1747.39 4855.02C1850.88 4772.33 1925.41 4666.11 2016.53 4553.5C2107.65 4440.9 2240.12 4298.09 2306.35 4286.67C2372.58 4275.25 2521.64 4296.6 2538.23 4432.87C2538.23 4432.87 2639.55 4310.47 2781.4 4396.15C2923.25 4481.83 2852.8 4643.81 2852.8 4643.81C2852.8 4643.81 2904.48 4623.14 2936.58 4643.81C2968.68 4664.48 3060.07 5760.51 3060.07 5760.51C3007.74 5773.64 2956.47 5790.65 2906.66 5811.38C2828.05 5844.43 2728.63 5848.64 2661.86 5811.38C2661.86 5811.38 2537.69 5843.47 2454.86 5837.76C2372.04 5832.05 2148.45 5827.97 2069.85 5807.16C1983.26 5782.12 1898.95 5749.78 1817.84 5710.46C1758.68 5676.73 1709.94 5627.37 1676.94 5567.8C1652.19 5517.48 1606.63 5501.02 1536.18 5416.16C1465.73 5331.29 1565.15 5076.84 1565.15 5076.84Z" fill="white"/>
<path opacity="0.4" d="M2936.58 4643.81C2905.57 4623.95 2856.34 4642.45 2852.94 4643.81C2859.09 4628.35 2863.64 4612.31 2866.54 4595.94L2781.54 4775.05C2781.54 4775.05 2650.03 4946.14 2602.97 5022.84C2555.91 5099.55 2596.17 5107.57 2538.37 5229.7C2480.57 5351.83 2395.98 5585.48 2306.49 5604.38C2217 5623.29 2026.87 5558.28 1991.51 5466.75C1956.15 5375.22 2041.42 5310.62 2146.01 5178.02C2250.59 5045.42 2293.97 4995.78 2285.68 4934.31C2277.38 4872.83 2489.68 4502.37 2503.28 4479.79C2497.7 4487.14 2464.93 4531.06 2423.86 4585.33C2442.23 4551 2458.05 4515.36 2471.18 4478.7L2275.48 4396.29C2275.48 4396.29 2083.04 4601.1 2186.53 4679.44C2243.38 4722.55 2299.69 4723.23 2352.05 4679.44C2311.25 4732.89 2271.13 4782.53 2248.69 4807.01C2186.53 4875.01 2174.02 4950.49 2146.14 4995.1C2118.26 5039.71 2007.56 5224.94 1912.08 5291.85C1816.61 5358.77 1760.17 5377.13 1682.38 5335.24C1629.34 5306.54 1596.43 5149.05 1580.65 5052.08C1570.72 5067.72 1565.42 5077.24 1565.42 5077.24C1565.42 5077.24 1466.14 5331.57 1536.59 5416.43C1607.03 5501.29 1652.46 5517.75 1677.21 5568.07C1710.25 5627.41 1758.81 5676.63 1817.7 5710.46C1899.06 5749.77 1983.59 5782.16 2070.39 5807.3C2149 5827.83 2372.58 5832.05 2455.41 5837.76C2538.23 5843.47 2662.4 5811.38 2662.4 5811.38C2728.63 5848.64 2827.91 5844.56 2907.2 5811.38C2952.69 5792.55 2999.34 5776.7 3046.88 5763.91C3051.23 5758.34 3055.31 5752.49 3059.66 5746.64C3048.37 5620.02 2966.64 4663.26 2936.58 4643.81Z" fill="#92E3A9"/>
<path opacity="0.4" d="M2607.59 4478.57C2607.59 4478.57 2410.39 4706.91 2546.39 4806.6C2682.39 4906.29 2829.68 4716.3 2836.07 4558.94L2607.59 4478.57Z" fill="#92E3A9"/>
<path d="M3060.2 5760.51L3046.6 5763.91C2999.07 5776.7 2952.41 5792.55 2906.93 5811.38C2828.19 5844.56 2728.91 5848.64 2662.13 5811.38C2662.13 5811.38 2537.96 5843.61 2455.14 5837.76C2372.31 5831.91 2148.73 5827.83 2070.12 5807.3C1983.41 5782.15 1898.98 5749.76 1817.7 5710.46C1758.66 5676.56 1709.99 5627.18 1676.94 5567.66C1652.19 5517.34 1606.63 5501.02 1536.31 5416.02C1466 5331.02 1565.15 5076.84 1565.15 5076.84C1565.15 5076.84 1570.45 5067.32 1580.38 5051.68C1607.58 5007.75 1670.95 4915.68 1747.39 4855.02C1850.88 4772.06 1925.41 4666.11 2016.53 4553.5C2107.65 4440.9 2240.12 4298.09 2306.35 4286.67C2372.58 4275.25 2521.64 4296.6 2538.23 4432.87C2538.23 4432.87 2639.55 4310.47 2781.4 4396.15C2874.29 4452.59 2876.6 4541.4 2866.4 4595.8C2863.51 4612.18 2858.95 4628.22 2852.8 4643.67C2856.2 4642.45 2905.43 4623.95 2936.44 4643.67C2967.45 4663.39 3048.24 5619.89 3058.84 5746.5C3059.66 5755.62 3060.2 5760.51 3060.2 5760.51Z" stroke="#263238" stroke-linecap="round" stroke-linejoin="round"/>
<path d="M2538.23 4432.87C2492.67 4469.86 2244.2 4938.79 2198.23 4994.69C2152.26 5050.59 2024.29 5209.84 1968.39 5268.46C1929 5313.13 1895.58 5362.74 1868.97 5416.02C1833.33 5451.86 1794.95 5484.87 1754.19 5514.76" stroke="#263238" stroke-linecap="round" stroke-linejoin="round"/>
<path d="M2852.8 4643.81C2812.51 4712.06 2776.18 4782.58 2744 4855.02C2703.2 4951.17 2586.65 5196.52 2538.1 5290.22C2489.54 5383.93 2411.75 5597.58 2355.86 5631.85C2299.96 5666.13 2219.17 5743.65 2169.53 5737.39" stroke="#263238" stroke-linecap="round" stroke-linejoin="round"/>
<path d="M2213.19 5764.86C2213.19 5764.86 2199.59 5734.4 2213.19 5727.33" stroke="#263238" stroke-linecap="round" stroke-linejoin="round"/>
<path d="M2697.35 5779.82C2697.35 5779.82 2809.28 5672.79 2824.79 5594.59C2840.29 5516.39 3060.07 4900.99 3060.07 4900.99" stroke="#263238" stroke-linecap="round" stroke-linejoin="round"/>
<path d="M2275.21 4396.15C2275.21 4396.15 2402.64 4387.86 2470.91 4478.57C2470.91 4478.57 2368.37 4733.84 2244.2 4668.97C2120.03 4604.1 2275.21 4396.15 2275.21 4396.15Z" fill="white" stroke="#263238" stroke-linecap="round" stroke-linejoin="round"/>
<path d="M2607.59 4478.57C2607.59 4478.57 2735.57 4474.08 2836.07 4558.94C2836.07 4558.94 2769.03 4845.63 2607.59 4802.11C2446.16 4758.59 2554.69 4571.05 2607.59 4478.57Z" fill="white" stroke="#263238" stroke-linecap="round" stroke-linejoin="round"/>
<path d="M2883.95 4723.51C2883.95 4723.51 2812.41 4831.22 2821.79 4909.83C2831.18 4988.44 2936.58 4973.88 2936.58 4973.88" stroke="#263238" stroke-linecap="round" stroke-linejoin="round"/>
<path d="M2349.74 4994.69C2349.74 4994.69 2437.59 5059.7 2522.59 5076.97" stroke="#263238" stroke-linecap="round" stroke-linejoin="round"/>
<path d="M1613.83 5112.74C1613.83 5112.74 1626.35 5262.34 1657.35 5314.57C1688.36 5366.79 1897.12 5364.21 1897.12 5364.21" stroke="#263238" stroke-linecap="round" stroke-linejoin="round"/>
<path d="M1949.21 5466.61C1983.8 5527.71 2037.17 5576.02 2101.4 5604.38C2210.2 5652.93 2285.54 5631.58 2285.54 5631.58" stroke="#263238" stroke-linecap="round" stroke-linejoin="round"/>
<path d="M2470.91 5683.94C2470.91 5683.94 2635.47 5759.42 2734.89 5699.99" stroke="#263238" stroke-linecap="round" stroke-linejoin="round"/>
<path d="M2011.37 4748.8C2011.37 4748.8 2046.45 4830.4 2117.45 4849.17" stroke="#263238" stroke-linecap="round" stroke-linejoin="round"/>
<path d="M2697.35 5268.46C2732.23 5297.25 2775.77 5313.48 2820.98 5314.57" stroke="#263238" stroke-linecap="round" stroke-linejoin="round"/>
<path d="M4268.84 5357.95C4268.84 5357.95 4169.43 5538.02 4063.89 5587.79C3958.35 5637.57 3871.31 5618.94 3809.3 5655.79C3747.28 5692.65 3641.61 5711.69 3498.81 5736.58C3356.01 5761.47 3212.12 5792.47 3110.12 5773.84C3074.8 5767.08 3040.69 5755.07 3008.93 5738.21C2940.34 5700.27 2878.18 5651.71 2824.79 5594.32C2774.06 5542.23 2778.41 5458.32 2812.55 5401.74C2819.95 5387.97 2830.09 5375.86 2842.35 5366.16C2854.6 5356.45 2868.71 5349.35 2883.81 5345.3C2883.81 5345.3 2849.67 5318.1 2811.19 5283.69C2769.43 5246.43 2722.92 5200.46 2710.14 5171.36C2685.11 5115.46 2691.37 5016.18 2778.14 4929.14C2803.1 4903.79 2833.17 4884.05 2866.35 4871.22C2899.53 4858.4 2935.06 4852.78 2970.58 4854.75C2970.58 4854.75 2837.57 4745.95 2889.79 4618.65C2908.7 4572.68 2942.43 4511.89 3045.11 4494.48C3192.12 4469.59 3274.95 4553.5 3274.95 4553.5C3274.95 4553.5 3251.69 4407.71 3399.93 4376.7C3548.18 4345.7 3871.31 4581.66 3933.6 4612.8C3978.35 4635.11 4048.52 4686.24 4114.48 4726.91L4130.26 4736.7C4148.48 4747.58 4166.3 4757.51 4182.76 4765.39C4259.6 4821.29 4282.85 4909.56 4321.61 4934.17C4332.54 4940.33 4345 4943.24 4357.53 4942.56C4370.05 4941.89 4382.13 4937.66 4392.33 4930.36C4394.92 4934.31 4397.36 4938.12 4399.4 4941.79C4430.28 4997.68 4504.81 5234.46 4268.84 5357.95Z" fill="white"/>
<path opacity="0.4" d="M4268.84 5357.95C4268.84 5357.95 4169.43 5538.01 4063.89 5587.79C3958.35 5637.57 3871.31 5618.93 3809.3 5655.79C3747.28 5692.65 3641.61 5711.69 3498.81 5736.58C3356.01 5761.46 3212.12 5792.47 3110.12 5773.84C3074.8 5767.08 3040.69 5755.07 3008.93 5738.21C3086.04 5732.36 3144.93 5693.74 3172.13 5635.8C3206.27 5563.99 3104.81 5558.55 3080.47 5603.97C3056.12 5649.4 2910.33 5633.08 2936.03 5603.97C2961.74 5574.87 2910.33 5425.95 2883.27 5405.96C2871.71 5397.12 2842.47 5397.93 2812 5401.74C2819.41 5387.97 2829.55 5375.86 2841.8 5366.16C2854.06 5356.45 2868.17 5349.35 2883.27 5345.3C2883.27 5345.3 2849.13 5318.1 2810.64 5283.69L2905.84 5340.13C2905.84 5340.13 3109.84 5516.93 3221.23 5603.97C3332.61 5691.02 3543.82 5670.34 3599.31 5603.97C3654.8 5537.61 3403.06 5330.88 3324.45 5268.05C3248.29 5207.4 3214.7 5105.8 3212.8 5099.55C3219.46 5105.8 3425.5 5305.32 3539.2 5438.46C3655.34 5574.46 3776.38 5533.66 3907.9 5472.33C4039.41 5410.99 3965.83 5235.55 3923.81 5193.8C3881.79 5152.04 3696.69 4991.29 3667.58 4942.47C3638.48 4893.64 3436.38 4721.19 3422.78 4710.31C3436.38 4719.29 3660.1 4864.13 3692.2 4900.71C3724.3 4937.3 3808.21 4995.91 3932.79 5084.86C4057.36 5173.8 4151.88 5277.03 4243.96 5084.86C4307.2 4952.67 4191.6 4805.65 4113.26 4726.63L4129.03 4736.42C4147.26 4747.3 4165.08 4757.23 4181.53 4765.12C4258.37 4821.02 4281.63 4909.28 4320.39 4933.9C4331.32 4940.05 4343.78 4942.97 4356.3 4942.29C4368.83 4941.62 4380.9 4937.38 4391.11 4930.09C4393.69 4934.03 4396.14 4937.84 4398.18 4941.51C4430.28 4997.68 4504.81 5234.46 4268.84 5357.95Z" fill="#92E3A9"/>
<path opacity="0.4" d="M3008.8 4789.19C3026.35 4746.05 3053.74 4707.6 3088.78 4676.9C3123.82 4646.21 3165.54 4624.12 3210.62 4612.39C3210.62 4612.39 3362.81 4717.93 3362.81 4804.83C3362.81 4891.74 3304.19 4959.06 3195.39 4925.47C3086.59 4891.87 3008.8 4789.19 3008.8 4789.19Z" fill="#92E3A9"/>
<path opacity="0.4" d="M3374.5 4569.42C3374.5 4569.42 3436.79 4488.63 3532.94 4463.88C3532.94 4463.88 3733.27 4616.06 3657.93 4696.71C3582.58 4777.36 3405.51 4674.95 3374.5 4569.42Z" fill="#92E3A9"/>
<path opacity="0.4" d="M2801.94 5168.36C2801.94 5168.36 2878.64 5048.41 2991.39 5016.18C2991.39 5016.18 3224.36 5147.69 3106.31 5251.19C2988.26 5354.69 2829.95 5224.26 2801.94 5168.36Z" fill="#92E3A9"/>
<path d="M4268.84 5357.95C4268.84 5357.95 4169.43 5538.02 4063.89 5587.79C3958.35 5637.57 3871.31 5618.94 3809.3 5655.79C3747.28 5692.65 3641.61 5711.69 3498.81 5736.58C3356.01 5761.47 3212.12 5792.47 3110.12 5773.84C3008.12 5755.21 2911.96 5683.67 2824.51 5594.32C2748.08 5515.71 2796.63 5364.07 2883.54 5345.3C2883.54 5345.3 2734.62 5227.25 2709.87 5171.36C2685.11 5115.46 2691.1 5016.18 2777.87 4929.14C2802.83 4903.79 2832.9 4884.05 2866.08 4871.22C2899.26 4858.4 2934.79 4852.78 2970.31 4854.75C2970.31 4854.75 2837.3 4745.95 2889.52 4618.65C2908.43 4572.68 2942.15 4511.89 3044.84 4494.48C3191.85 4469.59 3274.68 4553.5 3274.68 4553.5C3274.68 4553.5 3251.42 4407.71 3399.66 4376.7C3547.9 4345.7 3871.31 4581.66 3933.6 4612.8C3981.88 4637.01 4060.08 4694.4 4130.26 4736.7C4148.48 4747.58 4166.3 4757.51 4182.76 4765.39C4259.6 4821.29 4282.85 4909.56 4321.61 4934.17C4332.54 4940.33 4345 4943.24 4357.53 4942.56C4370.05 4941.89 4382.13 4937.66 4392.33 4930.36C4394.92 4934.31 4397.36 4938.12 4399.4 4941.79C4430.28 4997.68 4504.8 5234.46 4268.84 5357.95Z" stroke="#263238" stroke-linecap="round" stroke-linejoin="round"/>
<path d="M3275.08 4554.46C3295.89 4602.33 3484.8 4772.06 3566.4 4821.83C3648 4871.61 3875.53 5119.95 3941.76 5152.86C4007.99 5185.77 4065.93 5289.54 4144.54 5314.43" stroke="#263238" stroke-linecap="round" stroke-linejoin="round"/>
<path d="M2970.85 4855.02C3084.68 4950.22 3213.07 5111.65 3275.08 5157.21C3337.1 5202.77 3478 5360.12 3540.15 5438.73C3602.3 5517.34 3643.65 5571.2 3887.91 5604.38" stroke="#263238" stroke-linecap="round" stroke-linejoin="round"/>
<path d="M3974.4 5364.21C3974.4 5364.21 3957.95 5513.81 3729.6 5542.23" stroke="#263238" stroke-linecap="round" stroke-linejoin="round"/>
<path d="M4248.17 4934.17C4248.17 4934.17 4310.19 5111.65 4144.54 5177.88" stroke="#263238" stroke-linecap="round" stroke-linejoin="round"/>
<path d="M2883.95 5345.57C2883.95 5345.57 3044.56 5480.08 3110.12 5517.34C3175.67 5554.61 3262.71 5654.02 3328.94 5674.69C3372.28 5686.69 3418.07 5686.69 3461.41 5674.69" stroke="#263238" stroke-linecap="round" stroke-linejoin="round"/>
<path d="M3633.04 5531.08C3615.95 5559.73 3593.29 5584.65 3566.4 5604.38" stroke="#263238" stroke-linecap="round" stroke-linejoin="round"/>
<path d="M2970.85 4764.85C2988.34 4721.66 3015.71 4683.18 3050.76 4652.47C3085.81 4621.77 3127.56 4599.71 3172.68 4588.05C3172.68 4588.05 3324.86 4693.59 3324.86 4780.63C3324.86 4867.67 3266.11 4934.71 3157.31 4901.12C3048.51 4867.53 2970.85 4764.85 2970.85 4764.85Z" fill="white" stroke="#263238" stroke-linecap="round" stroke-linejoin="round"/>
<path d="M3349.61 4554.46C3349.61 4554.46 3411.9 4473.67 3508.05 4448.78C3508.05 4448.78 3708.52 4600.97 3633.04 4681.75C3557.56 4762.54 3380.76 4659.31 3349.61 4554.46Z" fill="white" stroke="#263238" stroke-linecap="round" stroke-linejoin="round"/>
<path d="M2781.4 5146.88C2781.4 5146.88 2857.97 5026.79 2970.85 4994.69C2970.85 4994.69 3203.68 5126.2 3085.77 5229.7C2967.86 5333.2 2809.42 5202.77 2781.4 5146.88Z" fill="white" stroke="#263238" stroke-linecap="round" stroke-linejoin="round"/>
<path d="M2836.07 5536.38C2836.07 5536.38 2944.06 5514.49 2970.58 5416.02C2970.58 5416.02 3081.01 5501.29 3017.36 5567.66C2923.8 5665.45 2836.07 5536.38 2836.07 5536.38Z" fill="white" stroke="#263238" stroke-linecap="round" stroke-linejoin="round"/>
<path d="M3781.28 4882.9C3800.21 4872.41 3816.49 4857.73 3828.87 4839.98C3841.24 4822.23 3849.39 4801.88 3852.68 4780.49" stroke="#263238" stroke-linecap="round" stroke-linejoin="round"/>
<path d="M3585.71 4994.69C3585.71 4994.69 3561.64 5130.69 3429.31 5153" stroke="#263238" stroke-linecap="round" stroke-linejoin="round"/>
<path d="M3253.6 5314.57C3253.6 5314.57 3199.2 5393.31 3119.23 5416.02" stroke="#263238" stroke-linecap="round" stroke-linejoin="round"/>
<path d="M3302.56 5663.13C3280.19 5695.57 3249.19 5721.11 3213.07 5736.85" stroke="#263238" stroke-linecap="round" stroke-linejoin="round"/>
<path d="M3400.21 5683.94C3401.61 5693.22 3401.12 5702.69 3398.79 5711.78C3396.45 5720.87 3392.31 5729.39 3386.61 5736.85" stroke="#263238" stroke-linecap="round" stroke-linejoin="round"/>
<path d="M3014.37 5710.46C3041.13 5708.23 3067.04 5699.96 3090.15 5686.27C3113.26 5672.58 3132.96 5653.84 3147.79 5631.45" stroke="#263238" stroke-linecap="round" stroke-linejoin="round"/>
</svg>
