<svg width="70" height="70" viewBox="0 0 70 70" fill="none" xmlns="http://www.w3.org/2000/svg">
<path d="M35 23.0417C32.6349 23.0417 30.3229 23.743 28.3563 25.057C26.3898 26.371 24.8571 28.2386 23.952 30.4237C23.0469 32.6088 22.8101 35.0133 23.2715 37.333C23.7329 39.6526 24.8718 41.7834 26.5442 43.4558C28.2166 45.1282 30.3474 46.2671 32.6671 46.7286C34.9868 47.19 37.3912 46.9532 39.5763 46.0481C41.7614 45.143 43.629 43.6102 44.943 41.6437C46.257 39.6772 46.9584 37.3651 46.9584 35C46.9622 33.4285 46.6555 31.8718 46.0559 30.4192C45.4563 28.9666 44.5756 27.6468 43.4644 26.5356C42.3532 25.4244 41.0334 24.5437 39.5808 23.9441C38.1282 23.3445 36.5715 23.0378 35 23.0417V23.0417ZM35 42.7875C33.4598 42.7875 31.9542 42.3308 30.6735 41.4751C29.3929 40.6194 28.3947 39.4031 27.8053 37.9801C27.2159 36.5572 27.0617 34.9914 27.3622 33.4807C27.6626 31.9701 28.4043 30.5825 29.4934 29.4934C30.5825 28.4043 31.9701 27.6626 33.4808 27.3621C34.9914 27.0617 36.5572 27.2159 37.9802 27.8053C39.4032 28.3947 40.6194 29.3928 41.4751 30.6735C42.3308 31.9541 42.7875 33.4598 42.7875 35C42.7875 37.0654 41.9671 39.0462 40.5066 40.5066C39.0462 41.967 37.0654 42.7875 35 42.7875ZM50.2542 22.5458C50.2542 23.1227 50.0831 23.6866 49.7627 24.1662C49.4422 24.6459 48.9866 25.0197 48.4537 25.2405C47.9207 25.4612 47.3343 25.519 46.7685 25.4065C46.2027 25.2939 45.683 25.0161 45.2751 24.6082C44.8672 24.2003 44.5894 23.6806 44.4769 23.1148C44.3644 22.5491 44.4221 21.9626 44.6429 21.4297C44.8636 20.8967 45.2375 20.4412 45.7171 20.1207C46.1968 19.8002 46.7607 19.6292 47.3375 19.6292C48.1111 19.6292 48.8529 19.9365 49.3999 20.4834C49.9469 21.0304 50.2542 21.7723 50.2542 22.5458ZM58.1584 25.4625C58.2432 21.8366 56.8907 18.3242 54.3959 15.6917C51.7774 13.1649 48.2633 11.7803 44.625 11.8417C40.8334 11.6667 29.1667 11.6667 25.375 11.8417C21.7502 11.7632 18.2402 13.1148 15.6042 15.6042C13.1094 18.2367 11.7569 21.7491 11.8417 25.375C11.6667 29.1667 11.6667 40.8333 11.8417 44.625C11.7569 48.2509 13.1094 51.7633 15.6042 54.3958C18.2402 56.8852 21.7502 58.2368 25.375 58.1583C29.225 58.3917 40.775 58.3917 44.625 58.1583C48.251 58.2432 51.7633 56.8907 54.3959 54.3958C56.8907 51.7633 58.2432 48.2509 58.1584 44.625C58.3334 40.8333 58.3334 29.1667 58.1584 25.375V25.4625ZM53.2 48.7958C52.804 49.799 52.2062 50.7101 51.4436 51.4727C50.681 52.2353 49.7698 52.8332 48.7667 53.2292C44.2389 54.1446 39.61 54.4584 35 54.1625C30.3997 54.4589 25.7805 54.1451 21.2625 53.2292C20.2594 52.8332 19.3483 52.2353 18.5856 51.4727C17.823 50.7101 17.2252 49.799 16.8292 48.7958C15.6042 45.7042 15.8667 38.4125 15.8667 35.0292C15.8667 31.6458 15.6042 24.325 16.8292 21.2625C17.214 20.2494 17.8076 19.3286 18.5714 18.5598C19.3351 17.7911 20.252 17.1915 21.2625 16.8C25.7805 15.8841 30.3997 15.5703 35 15.8667C39.61 15.5708 44.2389 15.8846 48.7667 16.8C49.7698 17.196 50.681 17.7938 51.4436 18.5565C52.2062 19.3191 52.804 20.2302 53.2 21.2333C54.425 24.325 54.1334 31.6167 54.1334 35C54.1334 38.3833 54.425 45.7042 53.2 48.7667V48.7958Z" fill="#E3056D"/>
</svg>
