<svg width="50" height="50" viewBox="0 0 50 50" fill="none" xmlns="http://www.w3.org/2000/svg">
<g clip-path="url(#clip0_16_2834)">
<path d="M42.6023 42.6029H35.1939V31.0008C35.1939 28.2342 35.1445 24.6727 31.3408 24.6727C27.4822 24.6727 26.8918 27.6871 26.8918 30.7994V42.6021H19.4836V18.7436H26.5955V22.0041H26.6951C27.4069 20.7871 28.4353 19.786 29.6711 19.1073C30.9068 18.4286 32.3034 18.0977 33.7123 18.15C41.2211 18.15 42.6055 23.0891 42.6055 29.5145L42.6023 42.6029V42.6029ZM11.1242 15.4824C8.74981 15.4828 6.82461 13.5582 6.82422 11.1838C6.82383 8.80938 8.74824 6.88418 11.1227 6.88379C13.4971 6.8832 15.4223 8.80781 15.4227 11.1822C15.4229 12.3225 14.9701 13.4161 14.164 14.2225C13.3579 15.029 12.2645 15.4822 11.1242 15.4824V15.4824ZM14.8285 42.6031H7.4123V18.7436H14.8283V42.6029L14.8285 42.6031ZM46.2957 0.00351697H3.68965C1.67598 -0.0191393 0.0246094 1.59395 0 3.60762V46.3914C0.0238281 48.4061 1.675 50.0207 3.68945 49.9996H46.2957C48.3145 50.0246 49.9721 48.41 50 46.3914V3.6043C49.9713 1.58672 48.3135 -0.0261705 46.2957 0.000196659" fill="#0A66C2"/>
</g>
<defs>
<clipPath id="clip0_16_2834">
<rect width="50" height="50" fill="white"/>
</clipPath>
</defs>
</svg>
